G04 Layer: BottomSilkLayer*
G04 EasyEDA v6.1.52, Mon, 29 Jul 2019 07:14:48 GMT*
G04 763c4d154c644d5a9bd2c91acdf97d9b,a2ddd735335a41bd89ccdca2c933086a,10*
G04 Gerber Generator version 0.2*
G04 Scale: 100 percent, Rotated: No, Reflected: No *
G04 Dimensions in millimeters *
G04 leading zeros omitted , absolute positions ,3 integer and 3 decimal *
%FSLAX33Y33*%
%MOMM*%
G90*
G71D02*

%ADD10C,0.254000*%
%ADD27C,0.199898*%
%ADD29C,0.152400*%
%ADD30C,0.203200*%

%LPD*%
G54D27*
G01X15955Y16491D02*
G01X14635Y16491D01*
G01X14635Y18561D01*
G01X15955Y18561D01*
G01X17087Y16491D02*
G01X18407Y16491D01*
G01X18407Y18561D01*
G01X17087Y18561D01*
G01X18687Y12526D02*
G01X18687Y11206D01*
G01X16617Y11206D01*
G01X16617Y12526D01*
G01X18687Y13658D02*
G01X18687Y14978D01*
G01X16617Y14978D01*
G01X16617Y13658D01*
G01X22370Y12526D02*
G01X22370Y11206D01*
G01X20300Y11206D01*
G01X20300Y12526D01*
G01X22370Y13658D02*
G01X22370Y14978D01*
G01X20300Y14978D01*
G01X20300Y13658D01*
G01X20019Y16491D02*
G01X18699Y16491D01*
G01X18699Y18561D01*
G01X20019Y18561D01*
G01X21151Y16491D02*
G01X22471Y16491D01*
G01X22471Y18561D01*
G01X21151Y18561D01*
G01X13000Y18560D02*
G01X14320Y18560D01*
G01X14320Y16490D01*
G01X13000Y16490D01*
G01X11868Y18560D02*
G01X10548Y18560D01*
G01X10548Y16490D01*
G01X11868Y16490D01*
G01X14750Y12526D02*
G01X14750Y11206D01*
G01X12680Y11206D01*
G01X12680Y12526D01*
G01X14750Y13658D02*
G01X14750Y14978D01*
G01X12680Y14978D01*
G01X12680Y13658D01*
G54D10*
G01X18516Y34874D02*
G01X13030Y34874D01*
G01X13030Y34874D02*
G01X13030Y34112D01*
G01X13030Y34112D02*
G01X13030Y28371D01*
G01X13030Y28371D02*
G01X18516Y28371D01*
G01X18516Y28371D02*
G01X18516Y34112D01*
G01X18516Y34112D02*
G01X18516Y34874D01*
G01X18516Y34112D02*
G01X13030Y34112D01*
G01X25857Y25D02*
G01X25857Y5511D01*
G01X25857Y5511D02*
G01X25095Y5511D01*
G01X25095Y5511D02*
G01X19354Y5511D01*
G01X19354Y5511D02*
G01X19354Y25D01*
G01X19354Y25D02*
G01X25095Y25D01*
G01X25095Y25D02*
G01X25857Y25D01*
G01X25095Y25D02*
G01X25095Y5511D01*
G01X7086Y34874D02*
G01X1600Y34874D01*
G01X1600Y34874D02*
G01X1600Y34112D01*
G01X1600Y34112D02*
G01X1600Y28371D01*
G01X1600Y28371D02*
G01X7086Y28371D01*
G01X7086Y28371D02*
G01X7086Y34112D01*
G01X7086Y34112D02*
G01X7086Y34874D01*
G01X7086Y34112D02*
G01X1600Y34112D01*
G01X24231Y34874D02*
G01X18745Y34874D01*
G01X18745Y34874D02*
G01X18745Y34112D01*
G01X18745Y34112D02*
G01X18745Y28371D01*
G01X18745Y28371D02*
G01X24231Y28371D01*
G01X24231Y28371D02*
G01X24231Y34112D01*
G01X24231Y34112D02*
G01X24231Y34874D01*
G01X24231Y34112D02*
G01X18745Y34112D01*
G54D30*
G01X15113Y22402D02*
G01X14097Y22402D01*
G01X14097Y22402D02*
G01X14097Y21793D01*
G01X15113Y23418D02*
G01X12065Y23418D01*
G01X12065Y23418D02*
G01X12065Y21793D01*
G01X12065Y21793D02*
G01X15113Y21793D01*
G01X15113Y21793D02*
G01X15113Y23418D01*
G01X18669Y22402D02*
G01X17653Y22402D01*
G01X17653Y22402D02*
G01X17653Y21793D01*
G01X18669Y23418D02*
G01X15621Y23418D01*
G01X15621Y23418D02*
G01X15621Y21793D01*
G01X15621Y21793D02*
G01X18669Y21793D01*
G01X18669Y21793D02*
G01X18669Y23418D01*
G01X22479Y22402D02*
G01X21463Y22402D01*
G01X21463Y22402D02*
G01X21463Y21793D01*
G01X22479Y23418D02*
G01X19431Y23418D01*
G01X19431Y23418D02*
G01X19431Y21793D01*
G01X19431Y21793D02*
G01X22479Y21793D01*
G01X22479Y21793D02*
G01X22479Y23418D01*
G54D10*
G01X12801Y34874D02*
G01X7315Y34874D01*
G01X7315Y34874D02*
G01X7315Y34112D01*
G01X7315Y34112D02*
G01X7315Y28371D01*
G01X7315Y28371D02*
G01X12801Y28371D01*
G01X12801Y28371D02*
G01X12801Y34112D01*
G01X12801Y34112D02*
G01X12801Y34874D01*
G01X12801Y34112D02*
G01X7315Y34112D01*
G01X13247Y294D02*
G01X18247Y294D01*
G01X18247Y5294D01*
G01X13247Y5294D01*
G01X13247Y294D01*
G01X18447Y4694D02*
G01X18447Y5444D01*
G01X17697Y5444D01*
G01X18447Y4694D01*
G01X17147Y4594D02*
G01X17147Y4994D01*
G01X16747Y4994D01*
G01X17147Y4594D01*
G54D30*
G01X5276Y27247D02*
G01X5899Y27247D01*
G01X5588Y27559D02*
G01X5588Y26935D01*
G01X5310Y26706D02*
G01X5276Y26637D01*
G01X5172Y26533D01*
G01X5899Y26533D01*
G01X5345Y26270D02*
G01X5310Y26270D01*
G01X5241Y26235D01*
G01X5207Y26201D01*
G01X5172Y26131D01*
G01X5172Y25993D01*
G01X5207Y25924D01*
G01X5241Y25889D01*
G01X5310Y25854D01*
G01X5380Y25854D01*
G01X5449Y25889D01*
G01X5553Y25958D01*
G01X5899Y26305D01*
G01X5899Y25820D01*
G01X5414Y25591D02*
G01X5899Y25383D01*
G01X5414Y25176D02*
G01X5899Y25383D01*
G01X3186Y27039D02*
G01X3117Y27074D01*
G01X3048Y27143D01*
G01X3013Y27212D01*
G01X3013Y27351D01*
G01X3048Y27420D01*
G01X3117Y27489D01*
G01X3186Y27524D01*
G01X3290Y27559D01*
G01X3463Y27559D01*
G01X3567Y27524D01*
G01X3636Y27489D01*
G01X3706Y27420D01*
G01X3740Y27351D01*
G01X3740Y27212D01*
G01X3706Y27143D01*
G01X3636Y27074D01*
G01X3567Y27039D01*
G01X3463Y27039D01*
G01X3463Y27212D02*
G01X3463Y27039D01*
G01X3013Y26810D02*
G01X3740Y26810D01*
G01X3013Y26810D02*
G01X3740Y26325D01*
G01X3013Y26325D02*
G01X3740Y26325D01*
G01X3013Y26097D02*
G01X3740Y26097D01*
G01X3013Y26097D02*
G01X3013Y25854D01*
G01X3048Y25750D01*
G01X3117Y25681D01*
G01X3186Y25647D01*
G01X3290Y25612D01*
G01X3463Y25612D01*
G01X3567Y25647D01*
G01X3636Y25681D01*
G01X3706Y25750D01*
G01X3740Y25854D01*
G01X3740Y26097D01*
G01X13972Y27559D02*
G01X14700Y27559D01*
G01X13972Y27559D02*
G01X13972Y27316D01*
G01X14007Y27212D01*
G01X14076Y27143D01*
G01X14146Y27108D01*
G01X14250Y27074D01*
G01X14423Y27074D01*
G01X14527Y27108D01*
G01X14596Y27143D01*
G01X14665Y27212D01*
G01X14700Y27316D01*
G01X14700Y27559D01*
G01X14111Y26845D02*
G01X14076Y26776D01*
G01X13972Y26672D01*
G01X14700Y26672D01*
G01X22063Y27686D02*
G01X22790Y27686D01*
G01X22790Y27686D02*
G01X22790Y27270D01*
G01X22236Y27007D02*
G01X22201Y27007D01*
G01X22132Y26972D01*
G01X22098Y26937D01*
G01X22063Y26868D01*
G01X22063Y26730D01*
G01X22098Y26660D01*
G01X22132Y26626D01*
G01X22201Y26591D01*
G01X22271Y26591D01*
G01X22340Y26626D01*
G01X22444Y26695D01*
G01X22790Y27041D01*
G01X22790Y26556D01*
G01X22479Y26328D02*
G01X22479Y25704D01*
G01X19904Y27686D02*
G01X20631Y27686D01*
G01X20631Y27686D02*
G01X20631Y27270D01*
G01X20042Y27041D02*
G01X20008Y26972D01*
G01X19904Y26868D01*
G01X20631Y26868D01*
G01X20320Y26639D02*
G01X20320Y26016D01*
G01X16729Y27686D02*
G01X17456Y27686D01*
G01X17456Y27686D02*
G01X17456Y27270D01*
G01X16729Y26833D02*
G01X16764Y26937D01*
G01X16867Y27007D01*
G01X17041Y27041D01*
G01X17145Y27041D01*
G01X17318Y27007D01*
G01X17422Y26937D01*
G01X17456Y26833D01*
G01X17456Y26764D01*
G01X17422Y26660D01*
G01X17318Y26591D01*
G01X17145Y26556D01*
G01X17041Y26556D01*
G01X16867Y26591D01*
G01X16764Y26660D01*
G01X16729Y26764D01*
G01X16729Y26833D01*
G01X17145Y26328D02*
G01X17145Y25704D01*
G01X11014Y27559D02*
G01X11741Y27385D01*
G01X11014Y27212D02*
G01X11741Y27385D01*
G01X11014Y27212D02*
G01X11741Y27039D01*
G01X11014Y26866D02*
G01X11741Y27039D01*
G01X11118Y26152D02*
G01X11049Y26222D01*
G01X11014Y26325D01*
G01X11014Y26464D01*
G01X11049Y26568D01*
G01X11118Y26637D01*
G01X11187Y26637D01*
G01X11256Y26603D01*
G01X11291Y26568D01*
G01X11326Y26499D01*
G01X11395Y26291D01*
G01X11430Y26222D01*
G01X11464Y26187D01*
G01X11533Y26152D01*
G01X11637Y26152D01*
G01X11707Y26222D01*
G01X11741Y26325D01*
G01X11741Y26464D01*
G01X11707Y26568D01*
G01X11637Y26637D01*
G01X8474Y27559D02*
G01X9201Y27559D01*
G01X8474Y27559D02*
G01X8474Y27247D01*
G01X8509Y27143D01*
G01X8543Y27108D01*
G01X8612Y27074D01*
G01X8716Y27074D01*
G01X8786Y27108D01*
G01X8820Y27143D01*
G01X8855Y27247D01*
G01X8855Y27559D01*
G01X8474Y26845D02*
G01X9201Y26672D01*
G01X8474Y26499D02*
G01X9201Y26672D01*
G01X8474Y26499D02*
G01X9201Y26325D01*
G01X8474Y26152D02*
G01X9201Y26325D01*
G01X8474Y25924D02*
G01X9201Y25924D01*
G01X8474Y25924D02*
G01X9201Y25647D01*
G01X8474Y25369D02*
G01X9201Y25647D01*
G01X8474Y25369D02*
G01X9201Y25369D01*
G01X8474Y24933D02*
G01X8509Y25037D01*
G01X8612Y25106D01*
G01X8786Y25141D01*
G01X8890Y25141D01*
G01X9063Y25106D01*
G01X9167Y25037D01*
G01X9201Y24933D01*
G01X9201Y24864D01*
G01X9167Y24760D01*
G01X9063Y24691D01*
G01X8890Y24656D01*
G01X8786Y24656D01*
G01X8612Y24691D01*
G01X8509Y24760D01*
G01X8474Y24864D01*
G01X8474Y24933D01*
G54D29*
G01X24072Y6534D02*
G01X24072Y5911D01*
G01X24384Y6223D02*
G01X23760Y6223D01*
G01X23116Y6638D02*
G01X23462Y6638D01*
G01X23497Y6326D01*
G01X23462Y6361D01*
G01X23358Y6396D01*
G01X23254Y6396D01*
G01X23150Y6361D01*
G01X23081Y6292D01*
G01X23047Y6188D01*
G01X23047Y6119D01*
G01X23081Y6015D01*
G01X23150Y5945D01*
G01X23254Y5911D01*
G01X23358Y5911D01*
G01X23462Y5945D01*
G01X23497Y5980D01*
G01X23531Y6049D01*
G01X22818Y6638D02*
G01X22541Y5911D01*
G01X22264Y6638D02*
G01X22541Y5911D01*
G54D30*
G01X3775Y22225D02*
G01X4502Y22225D01*
G01X3775Y22225D02*
G01X3775Y21982D01*
G01X3810Y21878D01*
G01X3879Y21809D01*
G01X3948Y21774D01*
G01X4052Y21740D01*
G01X4225Y21740D01*
G01X4329Y21774D01*
G01X4398Y21809D01*
G01X4468Y21878D01*
G01X4502Y21982D01*
G01X4502Y22225D01*
G01X3913Y21511D02*
G01X3879Y21442D01*
G01X3775Y21338D01*
G01X4502Y21338D01*
G01X3775Y20576D02*
G01X4502Y20576D01*
G01X3775Y20576D02*
G01X4502Y20299D01*
G01X3775Y20022D02*
G01X4502Y20299D01*
G01X3775Y20022D02*
G01X4502Y20022D01*
G01X3775Y19793D02*
G01X3810Y19758D01*
G01X3775Y19724D01*
G01X3740Y19758D01*
G01X3775Y19793D01*
G01X4017Y19758D02*
G01X4502Y19758D01*
G01X4017Y19495D02*
G01X4502Y19495D01*
G01X4156Y19495D02*
G01X4052Y19391D01*
G01X4017Y19322D01*
G01X4017Y19218D01*
G01X4052Y19149D01*
G01X4156Y19114D01*
G01X4502Y19114D01*
G01X3775Y18886D02*
G01X3810Y18851D01*
G01X3775Y18816D01*
G01X3740Y18851D01*
G01X3775Y18886D01*
G01X4017Y18851D02*
G01X4502Y18851D01*
G01X3775Y18054D02*
G01X4502Y18054D01*
G01X4502Y18054D02*
G01X4502Y17639D01*
G01X3775Y17410D02*
G01X3810Y17375D01*
G01X3775Y17341D01*
G01X3740Y17375D01*
G01X3775Y17410D01*
G01X4017Y17375D02*
G01X4502Y17375D01*
G01X4017Y16697D02*
G01X4572Y16697D01*
G01X4675Y16731D01*
G01X4710Y16766D01*
G01X4745Y16835D01*
G01X4745Y16939D01*
G01X4710Y17008D01*
G01X4121Y16697D02*
G01X4052Y16766D01*
G01X4017Y16835D01*
G01X4017Y16939D01*
G01X4052Y17008D01*
G01X4121Y17078D01*
G01X4225Y17112D01*
G01X4294Y17112D01*
G01X4398Y17078D01*
G01X4468Y17008D01*
G01X4502Y16939D01*
G01X4502Y16835D01*
G01X4468Y16766D01*
G01X4398Y16697D01*
G01X3775Y16468D02*
G01X4502Y16468D01*
G01X4156Y16468D02*
G01X4052Y16364D01*
G01X4017Y16295D01*
G01X4017Y16191D01*
G01X4052Y16122D01*
G01X4156Y16087D01*
G01X4502Y16087D01*
G01X3775Y15754D02*
G01X4364Y15754D01*
G01X4468Y15720D01*
G01X4502Y15651D01*
G01X4502Y15581D01*
G01X4017Y15858D02*
G01X4017Y15616D01*
G01X3775Y15353D02*
G01X3810Y15318D01*
G01X3775Y15283D01*
G01X3740Y15318D01*
G01X3775Y15353D01*
G01X4017Y15318D02*
G01X4502Y15318D01*
G01X4017Y15055D02*
G01X4502Y15055D01*
G01X4156Y15055D02*
G01X4052Y14951D01*
G01X4017Y14882D01*
G01X4017Y14778D01*
G01X4052Y14708D01*
G01X4156Y14674D01*
G01X4502Y14674D01*
G01X4017Y14030D02*
G01X4572Y14030D01*
G01X4675Y14064D01*
G01X4710Y14099D01*
G01X4745Y14168D01*
G01X4745Y14272D01*
G01X4710Y14341D01*
G01X4121Y14030D02*
G01X4052Y14099D01*
G01X4017Y14168D01*
G01X4017Y14272D01*
G01X4052Y14341D01*
G01X4121Y14411D01*
G01X4225Y14445D01*
G01X4294Y14445D01*
G01X4398Y14411D01*
G01X4468Y14341D01*
G01X4502Y14272D01*
G01X4502Y14168D01*
G01X4468Y14099D01*
G01X4398Y14030D01*
G01X3879Y12783D02*
G01X3810Y12852D01*
G01X3775Y12956D01*
G01X3775Y13094D01*
G01X3810Y13198D01*
G01X3879Y13268D01*
G01X3948Y13268D01*
G01X4017Y13233D01*
G01X4052Y13198D01*
G01X4087Y13129D01*
G01X4156Y12921D01*
G01X4191Y12852D01*
G01X4225Y12817D01*
G01X4294Y12783D01*
G01X4398Y12783D01*
G01X4468Y12852D01*
G01X4502Y12956D01*
G01X4502Y13094D01*
G01X4468Y13198D01*
G01X4398Y13268D01*
G01X3775Y12554D02*
G01X4502Y12554D01*
G01X4156Y12554D02*
G01X4052Y12450D01*
G01X4017Y12381D01*
G01X4017Y12277D01*
G01X4052Y12208D01*
G01X4156Y12173D01*
G01X4502Y12173D01*
G01X3775Y11944D02*
G01X3810Y11910D01*
G01X3775Y11875D01*
G01X3740Y11910D01*
G01X3775Y11944D01*
G01X4017Y11910D02*
G01X4502Y11910D01*
G01X4225Y11647D02*
G01X4225Y11231D01*
G01X4156Y11231D01*
G01X4087Y11266D01*
G01X4052Y11300D01*
G01X4017Y11369D01*
G01X4017Y11473D01*
G01X4052Y11543D01*
G01X4121Y11612D01*
G01X4225Y11647D01*
G01X4294Y11647D01*
G01X4398Y11612D01*
G01X4468Y11543D01*
G01X4502Y11473D01*
G01X4502Y11369D01*
G01X4468Y11300D01*
G01X4398Y11231D01*
G01X3775Y11002D02*
G01X4502Y11002D01*
G01X3775Y10358D02*
G01X4502Y10358D01*
G01X4121Y10358D02*
G01X4052Y10427D01*
G01X4017Y10497D01*
G01X4017Y10601D01*
G01X4052Y10670D01*
G01X4121Y10739D01*
G01X4225Y10774D01*
G01X4294Y10774D01*
G01X4398Y10739D01*
G01X4468Y10670D01*
G01X4502Y10601D01*
G01X4502Y10497D01*
G01X4468Y10427D01*
G01X4398Y10358D01*
G01X4017Y9596D02*
G01X4502Y9388D01*
G01X4017Y9180D02*
G01X4502Y9388D01*
G01X3913Y8952D02*
G01X3879Y8883D01*
G01X3775Y8779D01*
G01X4502Y8779D01*
G01X4329Y8515D02*
G01X4364Y8550D01*
G01X4398Y8515D01*
G01X4364Y8481D01*
G01X4329Y8515D01*
G01X3913Y8252D02*
G01X3879Y8183D01*
G01X3775Y8079D01*
G01X4502Y8079D01*
G01X5635Y19084D02*
G01X6189Y19084D01*
G01X6293Y19119D01*
G01X6327Y19153D01*
G01X6362Y19223D01*
G01X6362Y19292D01*
G01X6327Y19361D01*
G01X6293Y19396D01*
G01X6189Y19431D01*
G01X6120Y19431D01*
G01X5877Y18682D02*
G01X5912Y18752D01*
G01X5981Y18821D01*
G01X6085Y18856D01*
G01X6154Y18856D01*
G01X6258Y18821D01*
G01X6327Y18752D01*
G01X6362Y18682D01*
G01X6362Y18578D01*
G01X6327Y18509D01*
G01X6258Y18440D01*
G01X6154Y18405D01*
G01X6085Y18405D01*
G01X5981Y18440D01*
G01X5912Y18509D01*
G01X5877Y18578D01*
G01X5877Y18682D01*
G01X5635Y18177D02*
G01X6362Y18177D01*
G01X6016Y18177D02*
G01X5912Y18073D01*
G01X5877Y18003D01*
G01X5877Y17900D01*
G01X5912Y17830D01*
G01X6016Y17796D01*
G01X6362Y17796D01*
G01X5877Y17567D02*
G01X6362Y17567D01*
G01X6016Y17567D02*
G01X5912Y17463D01*
G01X5877Y17394D01*
G01X5877Y17290D01*
G01X5912Y17221D01*
G01X6016Y17186D01*
G01X6362Y17186D01*
G01X5635Y16424D02*
G01X6362Y16424D01*
G01X5635Y16424D02*
G01X6362Y16147D01*
G01X5635Y15870D02*
G01X6362Y16147D01*
G01X5635Y15870D02*
G01X6362Y15870D01*
G01X5877Y15226D02*
G01X6362Y15226D01*
G01X5981Y15226D02*
G01X5912Y15295D01*
G01X5877Y15364D01*
G01X5877Y15468D01*
G01X5912Y15537D01*
G01X5981Y15607D01*
G01X6085Y15641D01*
G01X6154Y15641D01*
G01X6258Y15607D01*
G01X6327Y15537D01*
G01X6362Y15468D01*
G01X6362Y15364D01*
G01X6327Y15295D01*
G01X6258Y15226D01*
G01X5981Y14581D02*
G01X5912Y14651D01*
G01X5877Y14720D01*
G01X5877Y14824D01*
G01X5912Y14893D01*
G01X5981Y14962D01*
G01X6085Y14997D01*
G01X6154Y14997D01*
G01X6258Y14962D01*
G01X6327Y14893D01*
G01X6362Y14824D01*
G01X6362Y14720D01*
G01X6327Y14651D01*
G01X6258Y14581D01*
G01X5877Y14353D02*
G01X6362Y14353D01*
G01X6085Y14353D02*
G01X5981Y14318D01*
G01X5912Y14249D01*
G01X5877Y14180D01*
G01X5877Y14076D01*
G01X5877Y13431D02*
G01X6362Y13431D01*
G01X5981Y13431D02*
G01X5912Y13501D01*
G01X5877Y13570D01*
G01X5877Y13674D01*
G01X5912Y13743D01*
G01X5981Y13812D01*
G01X6085Y13847D01*
G01X6154Y13847D01*
G01X6258Y13812D01*
G01X6327Y13743D01*
G01X6362Y13674D01*
G01X6362Y13570D01*
G01X6327Y13501D01*
G01X6258Y13431D01*
G01X6085Y13203D02*
G01X6085Y12787D01*
G01X6016Y12787D01*
G01X5946Y12822D01*
G01X5912Y12857D01*
G01X5877Y12926D01*
G01X5877Y13030D01*
G01X5912Y13099D01*
G01X5981Y13168D01*
G01X6085Y13203D01*
G01X6154Y13203D01*
G01X6258Y13168D01*
G01X6327Y13099D01*
G01X6362Y13030D01*
G01X6362Y12926D01*
G01X6327Y12857D01*
G01X6258Y12787D01*
G01X5808Y11991D02*
G01X5773Y11991D01*
G01X5704Y11956D01*
G01X5669Y11921D01*
G01X5635Y11852D01*
G01X5635Y11714D01*
G01X5669Y11644D01*
G01X5704Y11610D01*
G01X5773Y11575D01*
G01X5842Y11575D01*
G01X5912Y11610D01*
G01X6016Y11679D01*
G01X6362Y12025D01*
G01X6362Y11540D01*
G01X5635Y11104D02*
G01X5669Y11208D01*
G01X5773Y11277D01*
G01X5946Y11312D01*
G01X6050Y11312D01*
G01X6223Y11277D01*
G01X6327Y11208D01*
G01X6362Y11104D01*
G01X6362Y11035D01*
G01X6327Y10931D01*
G01X6223Y10861D01*
G01X6050Y10827D01*
G01X5946Y10827D01*
G01X5773Y10861D01*
G01X5669Y10931D01*
G01X5635Y11035D01*
G01X5635Y11104D01*
G01X5773Y10598D02*
G01X5739Y10529D01*
G01X5635Y10425D01*
G01X6362Y10425D01*
G01X5877Y9746D02*
G01X5981Y9781D01*
G01X6050Y9850D01*
G01X6085Y9954D01*
G01X6085Y9989D01*
G01X6050Y10093D01*
G01X5981Y10162D01*
G01X5877Y10196D01*
G01X5842Y10196D01*
G01X5739Y10162D01*
G01X5669Y10093D01*
G01X5635Y9989D01*
G01X5635Y9954D01*
G01X5669Y9850D01*
G01X5739Y9781D01*
G01X5877Y9746D01*
G01X6050Y9746D01*
G01X6223Y9781D01*
G01X6327Y9850D01*
G01X6362Y9954D01*
G01X6362Y10023D01*
G01X6327Y10127D01*
G01X6258Y10162D01*
G01X7331Y20701D02*
G01X8058Y20701D01*
G01X7573Y20354D02*
G01X7920Y20701D01*
G01X7781Y20562D02*
G01X8058Y20320D01*
G01X7331Y20091D02*
G01X8058Y20091D01*
G01X7573Y19745D02*
G01X7920Y20091D01*
G01X7781Y19952D02*
G01X8058Y19710D01*
G01X7331Y19135D02*
G01X7816Y19481D01*
G01X7816Y18962D01*
G01X7331Y19135D02*
G01X8058Y19135D01*
G01X7573Y18560D02*
G01X7608Y18629D01*
G01X7677Y18699D01*
G01X7781Y18733D01*
G01X7850Y18733D01*
G01X7954Y18699D01*
G01X8024Y18629D01*
G01X8058Y18560D01*
G01X8058Y18456D01*
G01X8024Y18387D01*
G01X7954Y18318D01*
G01X7850Y18283D01*
G01X7781Y18283D01*
G01X7677Y18318D01*
G01X7608Y18387D01*
G01X7573Y18456D01*
G01X7573Y18560D01*
G01X7573Y18020D02*
G01X8058Y17812D01*
G01X7573Y17604D02*
G01X8058Y17812D01*
G01X8197Y17881D01*
G01X8266Y17950D01*
G01X8301Y18020D01*
G01X8301Y18054D01*
G01X7331Y17237D02*
G01X7366Y17202D01*
G01X7331Y17168D01*
G01X7296Y17202D01*
G01X7331Y17237D01*
G01X7573Y17202D02*
G01X8162Y17202D01*
G01X8266Y17237D01*
G01X8301Y17306D01*
G01X8301Y17375D01*
G01X7885Y16904D02*
G01X7920Y16939D01*
G01X7954Y16904D01*
G01X7920Y16870D01*
G01X7885Y16904D01*
G01X7573Y16641D02*
G01X8058Y16503D01*
G01X7573Y16364D02*
G01X8058Y16503D01*
G01X7573Y16364D02*
G01X8058Y16225D01*
G01X7573Y16087D02*
G01X8058Y16225D01*
G01X7573Y15685D02*
G01X7608Y15754D01*
G01X7677Y15824D01*
G01X7781Y15858D01*
G01X7850Y15858D01*
G01X7954Y15824D01*
G01X8024Y15754D01*
G01X8058Y15685D01*
G01X8058Y15581D01*
G01X8024Y15512D01*
G01X7954Y15443D01*
G01X7850Y15408D01*
G01X7781Y15408D01*
G01X7677Y15443D01*
G01X7608Y15512D01*
G01X7573Y15581D01*
G01X7573Y15685D01*
G01X7573Y15179D02*
G01X8058Y15179D01*
G01X7781Y15179D02*
G01X7677Y15145D01*
G01X7608Y15076D01*
G01X7573Y15006D01*
G01X7573Y14902D01*
G01X7331Y14258D02*
G01X8058Y14258D01*
G01X7677Y14258D02*
G01X7608Y14327D01*
G01X7573Y14397D01*
G01X7573Y14501D01*
G01X7608Y14570D01*
G01X7677Y14639D01*
G01X7781Y14674D01*
G01X7850Y14674D01*
G01X7954Y14639D01*
G01X8024Y14570D01*
G01X8058Y14501D01*
G01X8058Y14397D01*
G01X8024Y14327D01*
G01X7954Y14258D01*
G01X7573Y14030D02*
G01X8301Y14030D01*
G01X7677Y14030D02*
G01X7608Y13960D01*
G01X7573Y13891D01*
G01X7573Y13787D01*
G01X7608Y13718D01*
G01X7677Y13649D01*
G01X7781Y13614D01*
G01X7850Y13614D01*
G01X7954Y13649D01*
G01X8024Y13718D01*
G01X8058Y13787D01*
G01X8058Y13891D01*
G01X8024Y13960D01*
G01X7954Y14030D01*
G01X7573Y13385D02*
G01X8058Y13385D01*
G01X7781Y13385D02*
G01X7677Y13351D01*
G01X7608Y13281D01*
G01X7573Y13212D01*
G01X7573Y13108D01*
G01X7781Y12880D02*
G01X7781Y12464D01*
G01X7712Y12464D01*
G01X7643Y12499D01*
G01X7608Y12533D01*
G01X7573Y12603D01*
G01X7573Y12706D01*
G01X7608Y12776D01*
G01X7677Y12845D01*
G01X7781Y12880D01*
G01X7850Y12880D01*
G01X7954Y12845D01*
G01X8024Y12776D01*
G01X8058Y12706D01*
G01X8058Y12603D01*
G01X8024Y12533D01*
G01X7954Y12464D01*
G01X7677Y11854D02*
G01X7608Y11889D01*
G01X7573Y11993D01*
G01X7573Y12097D01*
G01X7608Y12201D01*
G01X7677Y12235D01*
G01X7747Y12201D01*
G01X7781Y12131D01*
G01X7816Y11958D01*
G01X7850Y11889D01*
G01X7920Y11854D01*
G01X7954Y11854D01*
G01X8024Y11889D01*
G01X8058Y11993D01*
G01X8058Y12097D01*
G01X8024Y12201D01*
G01X7954Y12235D01*
G01X7677Y11245D02*
G01X7608Y11279D01*
G01X7573Y11383D01*
G01X7573Y11487D01*
G01X7608Y11591D01*
G01X7677Y11626D01*
G01X7747Y11591D01*
G01X7781Y11522D01*
G01X7816Y11349D01*
G01X7850Y11279D01*
G01X7920Y11245D01*
G01X7954Y11245D01*
G01X8024Y11279D01*
G01X8058Y11383D01*
G01X8058Y11487D01*
G01X8024Y11591D01*
G01X7954Y11626D01*
G01X7885Y10982D02*
G01X7920Y11016D01*
G01X7954Y10982D01*
G01X7920Y10947D01*
G01X7885Y10982D01*
G01X7677Y10303D02*
G01X7608Y10372D01*
G01X7573Y10441D01*
G01X7573Y10545D01*
G01X7608Y10614D01*
G01X7677Y10684D01*
G01X7781Y10718D01*
G01X7850Y10718D01*
G01X7954Y10684D01*
G01X8024Y10614D01*
G01X8058Y10545D01*
G01X8058Y10441D01*
G01X8024Y10372D01*
G01X7954Y10303D01*
G01X7573Y9901D02*
G01X7608Y9970D01*
G01X7677Y10039D01*
G01X7781Y10074D01*
G01X7850Y10074D01*
G01X7954Y10039D01*
G01X8024Y9970D01*
G01X8058Y9901D01*
G01X8058Y9797D01*
G01X8024Y9728D01*
G01X7954Y9658D01*
G01X7850Y9624D01*
G01X7781Y9624D01*
G01X7677Y9658D01*
G01X7608Y9728D01*
G01X7573Y9797D01*
G01X7573Y9901D01*
G01X7573Y9395D02*
G01X8058Y9395D01*
G01X7712Y9395D02*
G01X7608Y9291D01*
G01X7573Y9222D01*
G01X7573Y9118D01*
G01X7608Y9049D01*
G01X7712Y9014D01*
G01X8058Y9014D01*
G01X7712Y9014D02*
G01X7608Y8910D01*
G01X7573Y8841D01*
G01X7573Y8737D01*
G01X7608Y8668D01*
G01X7712Y8633D01*
G01X8058Y8633D01*
G54D29*
G01X17526Y19973D02*
G01X17526Y19246D01*
G01X17526Y19973D02*
G01X17214Y19973D01*
G01X17110Y19939D01*
G01X17075Y19904D01*
G01X17041Y19835D01*
G01X17041Y19765D01*
G01X17075Y19696D01*
G01X17110Y19661D01*
G01X17214Y19627D01*
G01X17526Y19627D01*
G01X17283Y19627D02*
G01X17041Y19246D01*
G01X16327Y19973D02*
G01X16673Y19246D01*
G01X16812Y19973D02*
G01X16327Y19973D01*
G01X15459Y14097D02*
G01X16186Y14097D01*
G01X15459Y14097D02*
G01X15459Y13785D01*
G01X15494Y13681D01*
G01X15528Y13646D01*
G01X15597Y13612D01*
G01X15667Y13612D01*
G01X15736Y13646D01*
G01X15771Y13681D01*
G01X15805Y13785D01*
G01X15805Y14097D01*
G01X15805Y13854D02*
G01X16186Y13612D01*
G01X15563Y12967D02*
G01X15494Y13002D01*
G01X15459Y13106D01*
G01X15459Y13175D01*
G01X15494Y13279D01*
G01X15597Y13348D01*
G01X15771Y13383D01*
G01X15944Y13383D01*
G01X16082Y13348D01*
G01X16152Y13279D01*
G01X16186Y13175D01*
G01X16186Y13141D01*
G01X16152Y13037D01*
G01X16082Y12967D01*
G01X15978Y12933D01*
G01X15944Y12933D01*
G01X15840Y12967D01*
G01X15771Y13037D01*
G01X15736Y13141D01*
G01X15736Y13175D01*
G01X15771Y13279D01*
G01X15840Y13348D01*
G01X15944Y13383D01*
G01X19142Y13970D02*
G01X19869Y13970D01*
G01X19142Y13970D02*
G01X19142Y13658D01*
G01X19177Y13554D01*
G01X19211Y13519D01*
G01X19280Y13485D01*
G01X19350Y13485D01*
G01X19419Y13519D01*
G01X19454Y13554D01*
G01X19488Y13658D01*
G01X19488Y13970D01*
G01X19488Y13727D02*
G01X19869Y13485D01*
G01X19384Y12806D02*
G01X19488Y12840D01*
G01X19558Y12910D01*
G01X19592Y13014D01*
G01X19592Y13048D01*
G01X19558Y13152D01*
G01X19488Y13221D01*
G01X19384Y13256D01*
G01X19350Y13256D01*
G01X19246Y13221D01*
G01X19177Y13152D01*
G01X19142Y13048D01*
G01X19142Y13014D01*
G01X19177Y12910D01*
G01X19246Y12840D01*
G01X19384Y12806D01*
G01X19558Y12806D01*
G01X19731Y12840D01*
G01X19835Y12910D01*
G01X19869Y13014D01*
G01X19869Y13083D01*
G01X19835Y13187D01*
G01X19765Y13221D01*
G01X21971Y19973D02*
G01X21971Y19246D01*
G01X21971Y19973D02*
G01X21659Y19973D01*
G01X21555Y19939D01*
G01X21520Y19904D01*
G01X21486Y19835D01*
G01X21486Y19765D01*
G01X21520Y19696D01*
G01X21555Y19661D01*
G01X21659Y19627D01*
G01X21971Y19627D01*
G01X21728Y19627D02*
G01X21486Y19246D01*
G01X21257Y19835D02*
G01X21188Y19869D01*
G01X21084Y19973D01*
G01X21084Y19246D01*
G01X20647Y19973D02*
G01X20751Y19939D01*
G01X20821Y19835D01*
G01X20855Y19661D01*
G01X20855Y19558D01*
G01X20821Y19384D01*
G01X20751Y19280D01*
G01X20647Y19246D01*
G01X20578Y19246D01*
G01X20474Y19280D01*
G01X20405Y19384D01*
G01X20370Y19558D01*
G01X20370Y19661D01*
G01X20405Y19835D01*
G01X20474Y19939D01*
G01X20578Y19973D01*
G01X20647Y19973D01*
G01X13081Y19973D02*
G01X13081Y19246D01*
G01X13081Y19973D02*
G01X12769Y19973D01*
G01X12665Y19939D01*
G01X12630Y19904D01*
G01X12596Y19835D01*
G01X12596Y19765D01*
G01X12630Y19696D01*
G01X12665Y19661D01*
G01X12769Y19627D01*
G01X13081Y19627D01*
G01X12838Y19627D02*
G01X12596Y19246D01*
G01X12194Y19973D02*
G01X12298Y19939D01*
G01X12332Y19869D01*
G01X12332Y19800D01*
G01X12298Y19731D01*
G01X12228Y19696D01*
G01X12090Y19661D01*
G01X11986Y19627D01*
G01X11917Y19558D01*
G01X11882Y19488D01*
G01X11882Y19384D01*
G01X11917Y19315D01*
G01X11951Y19280D01*
G01X12055Y19246D01*
G01X12194Y19246D01*
G01X12298Y19280D01*
G01X12332Y19315D01*
G01X12367Y19384D01*
G01X12367Y19488D01*
G01X12332Y19558D01*
G01X12263Y19627D01*
G01X12159Y19661D01*
G01X12021Y19696D01*
G01X11951Y19731D01*
G01X11917Y19800D01*
G01X11917Y19869D01*
G01X11951Y19939D01*
G01X12055Y19973D01*
G01X12194Y19973D01*
G01X11383Y13990D02*
G01X12111Y13990D01*
G01X11383Y13990D02*
G01X11383Y13678D01*
G01X11418Y13574D01*
G01X11453Y13540D01*
G01X11522Y13505D01*
G01X11591Y13505D01*
G01X11661Y13540D01*
G01X11695Y13574D01*
G01X11730Y13678D01*
G01X11730Y13990D01*
G01X11730Y13747D02*
G01X12111Y13505D01*
G01X11383Y12861D02*
G01X11383Y13207D01*
G01X11695Y13242D01*
G01X11661Y13207D01*
G01X11626Y13103D01*
G01X11626Y12999D01*
G01X11661Y12895D01*
G01X11730Y12826D01*
G01X11834Y12791D01*
G01X11903Y12791D01*
G01X12007Y12826D01*
G01X12076Y12895D01*
G01X12111Y12999D01*
G01X12111Y13103D01*
G01X12076Y13207D01*
G01X12042Y13242D01*
G01X11972Y13276D01*
G01X15401Y33467D02*
G01X15401Y32913D01*
G01X15436Y32809D01*
G01X15470Y32774D01*
G01X15540Y32740D01*
G01X15609Y32740D01*
G01X15678Y32774D01*
G01X15713Y32809D01*
G01X15748Y32913D01*
G01X15748Y32982D01*
G01X15173Y33467D02*
G01X15173Y32740D01*
G01X15173Y33467D02*
G01X14861Y33467D01*
G01X14757Y33432D01*
G01X14722Y33398D01*
G01X14688Y33328D01*
G01X14688Y33224D01*
G01X14722Y33155D01*
G01X14757Y33121D01*
G01X14861Y33086D01*
G01X15173Y33086D01*
G01X14424Y33294D02*
G01X14424Y33328D01*
G01X14390Y33398D01*
G01X14355Y33432D01*
G01X14286Y33467D01*
G01X14147Y33467D01*
G01X14078Y33432D01*
G01X14043Y33398D01*
G01X14009Y33328D01*
G01X14009Y33259D01*
G01X14043Y33190D01*
G01X14113Y33086D01*
G01X14459Y32740D01*
G01X13974Y32740D01*
G01X21146Y6603D02*
G01X21146Y6049D01*
G01X21181Y5945D01*
G01X21215Y5911D01*
G01X21285Y5876D01*
G01X21354Y5876D01*
G01X21423Y5911D01*
G01X21458Y5945D01*
G01X21492Y6049D01*
G01X21492Y6119D01*
G01X20918Y6603D02*
G01X20918Y5876D01*
G01X20918Y6603D02*
G01X20606Y6603D01*
G01X20502Y6569D01*
G01X20467Y6534D01*
G01X20433Y6465D01*
G01X20433Y6361D01*
G01X20467Y6292D01*
G01X20502Y6257D01*
G01X20606Y6222D01*
G01X20918Y6222D01*
G01X19858Y6603D02*
G01X20204Y6119D01*
G01X19684Y6119D01*
G01X19858Y6603D02*
G01X19858Y5876D01*
G01X3971Y33467D02*
G01X3971Y32913D01*
G01X4006Y32809D01*
G01X4040Y32774D01*
G01X4110Y32740D01*
G01X4179Y32740D01*
G01X4248Y32774D01*
G01X4283Y32809D01*
G01X4318Y32913D01*
G01X4318Y32982D01*
G01X3743Y33467D02*
G01X3743Y32740D01*
G01X3743Y33467D02*
G01X3431Y33467D01*
G01X3327Y33432D01*
G01X3292Y33398D01*
G01X3258Y33328D01*
G01X3258Y33224D01*
G01X3292Y33155D01*
G01X3327Y33121D01*
G01X3431Y33086D01*
G01X3743Y33086D01*
G01X2960Y33467D02*
G01X2579Y33467D01*
G01X2787Y33190D01*
G01X2683Y33190D01*
G01X2613Y33155D01*
G01X2579Y33121D01*
G01X2544Y33017D01*
G01X2544Y32947D01*
G01X2579Y32843D01*
G01X2648Y32774D01*
G01X2752Y32740D01*
G01X2856Y32740D01*
G01X2960Y32774D01*
G01X2994Y32809D01*
G01X3029Y32878D01*
G01X21116Y33467D02*
G01X21116Y32913D01*
G01X21151Y32809D01*
G01X21185Y32774D01*
G01X21255Y32740D01*
G01X21324Y32740D01*
G01X21393Y32774D01*
G01X21428Y32809D01*
G01X21463Y32913D01*
G01X21463Y32982D01*
G01X20888Y33467D02*
G01X20888Y32740D01*
G01X20888Y33467D02*
G01X20576Y33467D01*
G01X20472Y33432D01*
G01X20437Y33398D01*
G01X20403Y33328D01*
G01X20403Y33224D01*
G01X20437Y33155D01*
G01X20472Y33121D01*
G01X20576Y33086D01*
G01X20888Y33086D01*
G01X20174Y33328D02*
G01X20105Y33363D01*
G01X20001Y33467D01*
G01X20001Y32740D01*
G01X11776Y24811D02*
G01X11811Y24880D01*
G01X11880Y24949D01*
G01X11949Y24984D01*
G01X12053Y25019D01*
G01X12226Y25019D01*
G01X12330Y24984D01*
G01X12399Y24949D01*
G01X12469Y24880D01*
G01X12503Y24811D01*
G01X12503Y24672D01*
G01X12469Y24603D01*
G01X12399Y24534D01*
G01X12330Y24499D01*
G01X12226Y24464D01*
G01X12053Y24464D01*
G01X11949Y24499D01*
G01X11880Y24534D01*
G01X11811Y24603D01*
G01X11776Y24672D01*
G01X11776Y24811D01*
G01X12365Y24707D02*
G01X12573Y24499D01*
G01X11914Y24236D02*
G01X11880Y24166D01*
G01X11776Y24063D01*
G01X12503Y24063D01*
G01X15459Y24938D02*
G01X15494Y25007D01*
G01X15563Y25076D01*
G01X15632Y25111D01*
G01X15736Y25146D01*
G01X15909Y25146D01*
G01X16013Y25111D01*
G01X16082Y25076D01*
G01X16152Y25007D01*
G01X16186Y24938D01*
G01X16186Y24799D01*
G01X16152Y24730D01*
G01X16082Y24661D01*
G01X16013Y24626D01*
G01X15909Y24591D01*
G01X15736Y24591D01*
G01X15632Y24626D01*
G01X15563Y24661D01*
G01X15494Y24730D01*
G01X15459Y24799D01*
G01X15459Y24938D01*
G01X16048Y24834D02*
G01X16256Y24626D01*
G01X15632Y24328D02*
G01X15597Y24328D01*
G01X15528Y24293D01*
G01X15494Y24259D01*
G01X15459Y24190D01*
G01X15459Y24051D01*
G01X15494Y23982D01*
G01X15528Y23947D01*
G01X15597Y23912D01*
G01X15667Y23912D01*
G01X15736Y23947D01*
G01X15840Y24016D01*
G01X16186Y24363D01*
G01X16186Y23878D01*
G01X19269Y24938D02*
G01X19304Y25007D01*
G01X19373Y25076D01*
G01X19442Y25111D01*
G01X19546Y25146D01*
G01X19719Y25146D01*
G01X19823Y25111D01*
G01X19892Y25076D01*
G01X19962Y25007D01*
G01X19996Y24938D01*
G01X19996Y24799D01*
G01X19962Y24730D01*
G01X19892Y24661D01*
G01X19823Y24626D01*
G01X19719Y24591D01*
G01X19546Y24591D01*
G01X19442Y24626D01*
G01X19373Y24661D01*
G01X19304Y24730D01*
G01X19269Y24799D01*
G01X19269Y24938D01*
G01X19858Y24834D02*
G01X20066Y24626D01*
G01X19269Y24293D02*
G01X19269Y23912D01*
G01X19546Y24120D01*
G01X19546Y24016D01*
G01X19581Y23947D01*
G01X19615Y23912D01*
G01X19719Y23878D01*
G01X19788Y23878D01*
G01X19892Y23912D01*
G01X19962Y23982D01*
G01X19996Y24086D01*
G01X19996Y24190D01*
G01X19962Y24293D01*
G01X19927Y24328D01*
G01X19858Y24363D01*
G01X10949Y33702D02*
G01X10949Y33148D01*
G01X10983Y33044D01*
G01X11018Y33009D01*
G01X11087Y32974D01*
G01X11156Y32974D01*
G01X11226Y33009D01*
G01X11260Y33044D01*
G01X11295Y33148D01*
G01X11295Y33217D01*
G01X10720Y33702D02*
G01X10720Y32974D01*
G01X10720Y33702D02*
G01X10408Y33702D01*
G01X10304Y33667D01*
G01X10270Y33633D01*
G01X10235Y33563D01*
G01X10235Y33459D01*
G01X10270Y33390D01*
G01X10304Y33355D01*
G01X10408Y33321D01*
G01X10720Y33321D01*
G01X9591Y33702D02*
G01X9937Y33702D01*
G01X9972Y33390D01*
G01X9937Y33425D01*
G01X9833Y33459D01*
G01X9729Y33459D01*
G01X9625Y33425D01*
G01X9556Y33355D01*
G01X9522Y33252D01*
G01X9522Y33182D01*
G01X9556Y33078D01*
G01X9625Y33009D01*
G01X9729Y32974D01*
G01X9833Y32974D01*
G01X9937Y33009D01*
G01X9972Y33044D01*
G01X10006Y33113D01*
G01X18084Y6604D02*
G01X18084Y5876D01*
G01X18084Y5876D02*
G01X17669Y5876D01*
G01X17440Y6604D02*
G01X17440Y5876D01*
G01X17440Y6604D02*
G01X16990Y6604D01*
G01X17440Y6257D02*
G01X17163Y6257D01*
G01X17440Y5876D02*
G01X16990Y5876D01*
G01X16761Y6604D02*
G01X16761Y5876D01*
G01X16761Y6604D02*
G01X16519Y6604D01*
G01X16415Y6569D01*
G01X16346Y6500D01*
G01X16311Y6430D01*
G01X16276Y6326D01*
G01X16276Y6153D01*
G01X16311Y6049D01*
G01X16346Y5980D01*
G01X16415Y5911D01*
G01X16519Y5876D01*
G01X16761Y5876D01*
G01X16048Y6465D02*
G01X15978Y6500D01*
G01X15875Y6604D01*
G01X15875Y5876D01*
G54D10*
G75*
G01X17248Y2794D02*
G03X17248Y2794I-1500J0D01*
G01*
M00*
M02*
