G04 Layer: BottomSolderMaskLayer*
G04 EasyEDA v6.1.52, Mon, 29 Jul 2019 07:14:48 GMT*
G04 763c4d154c644d5a9bd2c91acdf97d9b,a2ddd735335a41bd89ccdca2c933086a,10*
G04 Gerber Generator version 0.2*
G04 Scale: 100 percent, Rotated: No, Reflected: No *
G04 Dimensions in millimeters *
G04 leading zeros omitted , absolute positions ,3 integer and 3 decimal *
%FSLAX33Y33*%
%MOMM*%
G90*
G71D02*

%ADD32C,2.032203*%
%ADD36R,1.363218X1.653210*%
%ADD40C,2.032000*%
%ADD41R,1.016000X1.422400*%

%LPD*%
G54D36*
G01X17526Y17526D03*
G01X15494Y17526D03*
G36*
G01X16827Y13416D02*
G01X16827Y14777D01*
G01X18478Y14777D01*
G01X18478Y13416D01*
G01X16827Y13416D01*
G37*
G36*
G01X16827Y11384D02*
G01X16827Y12745D01*
G01X18478Y12745D01*
G01X18478Y11384D01*
G01X16827Y11384D01*
G37*
G36*
G01X20510Y13416D02*
G01X20510Y14777D01*
G01X22161Y14777D01*
G01X22161Y13416D01*
G01X20510Y13416D01*
G37*
G36*
G01X20510Y11384D02*
G01X20510Y12745D01*
G01X22161Y12745D01*
G01X22161Y11384D01*
G01X20510Y11384D01*
G37*
G01X21590Y17526D03*
G01X19558Y17526D03*
G36*
G01X10749Y16700D02*
G01X10749Y18351D01*
G01X12110Y18351D01*
G01X12110Y16700D01*
G01X10749Y16700D01*
G37*
G36*
G01X12781Y16700D02*
G01X12781Y18351D01*
G01X14142Y18351D01*
G01X14142Y16700D01*
G01X12781Y16700D01*
G37*
G36*
G01X12890Y13416D02*
G01X12890Y14777D01*
G01X14541Y14777D01*
G01X14541Y13416D01*
G01X12890Y13416D01*
G37*
G36*
G01X12890Y11384D02*
G01X12890Y12745D01*
G01X14541Y12745D01*
G01X14541Y11384D01*
G01X12890Y11384D01*
G37*
G54D32*
G01X17018Y31623D03*
G01X14478Y31623D03*
G01X22606Y1524D03*
G01X22606Y4064D03*
G01X5588Y31623D03*
G01X3048Y31623D03*
G01X22733Y31623D03*
G01X20193Y31623D03*
G54D41*
G01X14554Y21285D03*
G01X12623Y21285D03*
G01X13589Y23926D03*
G01X18110Y21285D03*
G01X16179Y21285D03*
G01X17145Y23926D03*
G01X21920Y21285D03*
G01X19989Y21285D03*
G01X20955Y23926D03*
G54D32*
G01X11303Y31623D03*
G01X8763Y31623D03*
G36*
G01X12397Y693D02*
G01X12397Y1894D01*
G01X14099Y1894D01*
G01X14099Y693D01*
G01X12397Y693D01*
G37*
G36*
G01X12397Y3693D02*
G01X12397Y4894D01*
G01X14099Y4894D01*
G01X14099Y3693D01*
G01X12397Y3693D01*
G37*
G36*
G01X17396Y3693D02*
G01X17396Y4894D01*
G01X19100Y4894D01*
G01X19100Y3693D01*
G01X17396Y3693D01*
G37*
G36*
G01X17396Y693D02*
G01X17396Y1894D01*
G01X19100Y1894D01*
G01X19100Y693D01*
G01X17396Y693D01*
G37*
G54D40*
G01X1397Y26670D03*
G01X24257Y8890D03*
G01X24257Y11430D03*
G01X24257Y13970D03*
G01X24257Y16510D03*
G01X24257Y19050D03*
G01X24257Y21590D03*
G01X24257Y24130D03*
G54D32*
G01X24257Y26670D03*
G54D40*
G01X1397Y8890D03*
G01X1397Y11430D03*
G01X1397Y13970D03*
G01X1397Y16510D03*
G01X1397Y19050D03*
G01X1397Y21590D03*
G01X1397Y24130D03*
M00*
M02*
