;Layer: Drill PTH
;EasyEDA v6.1.52, Mon, 29 Jul 2019 07:14:48 GMT
;763c4d154c644d5a9bd2c91acdf97d9b,a2ddd735335a41bd89ccdca2c933086a,10
;Gerber Generator version 0.2
M48
METRIC,LZ,000.000
;Holesize 1 = 0.310 METRIC
T01C0.310
;Holesize 2 = 1.016 METRIC
T02C1.016
%
G05
G90
T01
X+020794Y+019146
X+005588Y+021493
X+002875Y+011577
X+007520Y+019425
X+006527Y+013304
X+016309Y+014442
X+004165Y+023164
X+004165Y+006979
X+014973Y+002006
X+007607Y+016532
X+005148Y+013606
X+004569Y+007838
X+001346Y+004904
X+010152Y+022397
X+010152Y+019344
X+019728Y+015671
X+019728Y+022463
T02
X+017018Y+031623
X+014478Y+031623
X+022606Y+001524
X+022606Y+004064
X+005588Y+031623
X+003048Y+031623
X+022733Y+031623
X+020193Y+031623
X+011303Y+031623
X+008763Y+031623
X+001397Y+026670
X+024257Y+008890
X+024257Y+011430
X+024257Y+013970
X+024257Y+016510
X+024257Y+019050
X+024257Y+021590
X+024257Y+024130
X+024257Y+026670
X+001397Y+008890
X+001397Y+011430
X+001397Y+013970
X+001397Y+016510
X+001397Y+019050
X+001397Y+021590
X+001397Y+024130
M30
