G04 Layer: TopPasteMaskLayer*
G04 EasyEDA v6.1.52, Mon, 29 Jul 2019 07:14:48 GMT*
G04 763c4d154c644d5a9bd2c91acdf97d9b,a2ddd735335a41bd89ccdca2c933086a,10*
G04 Gerber Generator version 0.2*
G04 Scale: 100 percent, Rotated: No, Reflected: No *
G04 Dimensions in millimeters *
G04 leading zeros omitted , absolute positions ,3 integer and 3 decimal *
%FSLAX33Y33*%
%MOMM*%
G90*
G71D02*

%ADD14C,0.599999*%
%ADD18R,1.160018X1.469898*%
%ADD19R,1.160018X1.450010*%

%LPD*%
G54D14*
G01X13801Y11811D02*
G01X15001Y11811D01*
G01X13801Y13081D02*
G01X15001Y13081D01*
G01X13801Y14351D02*
G01X15001Y14351D01*
G01X13801Y15621D02*
G01X15001Y15621D01*
G01X7858Y11811D02*
G01X9058Y11811D01*
G01X7858Y13081D02*
G01X9058Y13081D01*
G01X7858Y14351D02*
G01X9058Y14351D01*
G01X7858Y15621D02*
G01X9058Y15621D01*
G36*
G01X9930Y11716D02*
G01X9930Y15715D01*
G01X12929Y15715D01*
G01X12929Y11716D01*
G01X9930Y11716D01*
G37*
G36*
G01X6703Y17978D02*
G01X6703Y16818D01*
G01X5233Y16818D01*
G01X5233Y17978D01*
G01X6703Y17978D01*
G37*
G36*
G01X6703Y15946D02*
G01X6703Y14786D01*
G01X5233Y14786D01*
G01X5233Y15946D01*
G01X6703Y15946D01*
G37*
G54D18*
G01X7874Y8381D03*
G01X9906Y8381D03*
G54D19*
G01X17526Y11938D03*
G01X19558Y11938D03*
G36*
G01X2385Y2230D02*
G01X2385Y1070D01*
G01X915Y1070D01*
G01X915Y2230D01*
G01X2385Y2230D01*
G37*
G36*
G01X2385Y4262D02*
G01X2385Y3102D01*
G01X915Y3102D01*
G01X915Y4262D01*
G01X2385Y4262D01*
G37*
G36*
G01X14388Y7293D02*
G01X14388Y8454D01*
G01X15837Y8454D01*
G01X15837Y7293D01*
G01X14388Y7293D01*
G37*
G36*
G01X14388Y9325D02*
G01X14388Y10486D01*
G01X15837Y10486D01*
G01X15837Y9325D01*
G01X14388Y9325D01*
G37*
G01X17526Y14351D03*
G01X19558Y14351D03*
G36*
G01X20137Y8790D02*
G01X18977Y8790D01*
G01X18977Y10260D01*
G01X20137Y10260D01*
G01X20137Y8790D01*
G37*
G36*
G01X18105Y8790D02*
G01X16945Y8790D01*
G01X16945Y10260D01*
G01X18105Y10260D01*
G01X18105Y8790D01*
G37*
G36*
G01X15785Y16564D02*
G01X15785Y17725D01*
G01X17234Y17725D01*
G01X17234Y16564D01*
G01X15785Y16564D01*
G37*
G36*
G01X15785Y18596D02*
G01X15785Y19757D01*
G01X17234Y19757D01*
G01X17234Y18596D01*
G01X15785Y18596D01*
G37*
G01X5588Y27432D03*
G01X7620Y27432D03*
G36*
G01X8200Y24040D02*
G01X7039Y24040D01*
G01X7039Y25489D01*
G01X8200Y25489D01*
G01X8200Y24040D01*
G37*
G36*
G01X6168Y24040D02*
G01X5007Y24040D01*
G01X5007Y25489D01*
G01X6168Y25489D01*
G01X6168Y24040D01*
G37*
G01X14478Y29083D03*
G01X16510Y29083D03*
G36*
G01X11921Y1933D02*
G01X9571Y1933D01*
G01X9571Y5433D01*
G01X11921Y5433D01*
G01X11921Y1933D01*
G37*
G36*
G01X5922Y1933D02*
G01X3572Y1933D01*
G01X3572Y5433D01*
G01X5922Y5433D01*
G01X5922Y1933D01*
G37*
G36*
G01X13551Y10463D02*
G01X13551Y9303D01*
G01X12102Y9303D01*
G01X12102Y10463D01*
G01X13551Y10463D01*
G37*
G36*
G01X13551Y8431D02*
G01X13551Y7271D01*
G01X12102Y7271D01*
G01X12102Y8431D01*
G01X13551Y8431D01*
G37*
G36*
G01X18135Y1369D02*
G01X18135Y459D01*
G01X16916Y459D01*
G01X16916Y1369D01*
G01X18135Y1369D01*
G37*
G36*
G01X18135Y4620D02*
G01X18135Y3710D01*
G01X16916Y3710D01*
G01X16916Y4620D01*
G01X18135Y4620D01*
G37*
G36*
G01X15595Y1369D02*
G01X15595Y459D01*
G01X14376Y459D01*
G01X14376Y1369D01*
G01X15595Y1369D01*
G37*
G36*
G01X15595Y4620D02*
G01X15595Y3710D01*
G01X14376Y3710D01*
G01X14376Y4620D01*
G01X15595Y4620D01*
G37*
M00*
M02*
