G04 Layer: BottomLayer*
G04 EasyEDA v6.1.52, Mon, 29 Jul 2019 07:14:48 GMT*
G04 763c4d154c644d5a9bd2c91acdf97d9b,a2ddd735335a41bd89ccdca2c933086a,10*
G04 Gerber Generator version 0.2*
G04 Scale: 100 percent, Rotated: No, Reflected: No *
G04 Dimensions in millimeters *
G04 leading zeros omitted , absolute positions ,3 integer and 3 decimal *
%FSLAX33Y33*%
%MOMM*%
G90*
G71D02*

%ADD11C,0.499999*%
%ADD12C,1.129995*%
%ADD13C,0.999998*%
%ADD15C,0.610006*%
%ADD19R,1.160018X1.450010*%
%ADD23C,1.829003*%
%ADD24C,1.828800*%
%ADD25R,0.812800X1.219200*%

%LPD*%
G36*
G01X25410Y34020D02*
G01X370Y34020D01*
G01X356Y34019D01*
G01X342Y34016D01*
G01X328Y34011D01*
G01X315Y34004D01*
G01X304Y33995D01*
G01X294Y33985D01*
G01X285Y33974D01*
G01X278Y33961D01*
G01X273Y33947D01*
G01X270Y33933D01*
G01X269Y33919D01*
G01X269Y27422D01*
G01X270Y27408D01*
G01X273Y27393D01*
G01X278Y27380D01*
G01X285Y27367D01*
G01X294Y27356D01*
G01X304Y27345D01*
G01X315Y27337D01*
G01X328Y27330D01*
G01X342Y27325D01*
G01X356Y27321D01*
G01X370Y27320D01*
G01X386Y27322D01*
G01X402Y27325D01*
G01X416Y27331D01*
G01X430Y27340D01*
G01X442Y27350D01*
G01X452Y27362D01*
G01X483Y27402D01*
G01X515Y27440D01*
G01X548Y27477D01*
G01X583Y27512D01*
G01X620Y27546D01*
G01X658Y27578D01*
G01X698Y27609D01*
G01X738Y27638D01*
G01X780Y27665D01*
G01X823Y27690D01*
G01X867Y27714D01*
G01X912Y27736D01*
G01X958Y27755D01*
G01X1005Y27773D01*
G01X1052Y27789D01*
G01X1100Y27802D01*
G01X1149Y27814D01*
G01X1198Y27823D01*
G01X1247Y27831D01*
G01X1297Y27836D01*
G01X1347Y27839D01*
G01X1397Y27840D01*
G01X1446Y27839D01*
G01X1496Y27836D01*
G01X1545Y27831D01*
G01X1594Y27824D01*
G01X1643Y27814D01*
G01X1692Y27803D01*
G01X1739Y27789D01*
G01X1787Y27774D01*
G01X1833Y27756D01*
G01X1879Y27736D01*
G01X1924Y27715D01*
G01X1968Y27692D01*
G01X2010Y27667D01*
G01X2052Y27640D01*
G01X2093Y27611D01*
G01X2132Y27581D01*
G01X2170Y27548D01*
G01X2207Y27515D01*
G01X2242Y27480D01*
G01X2275Y27443D01*
G01X2308Y27405D01*
G01X2338Y27366D01*
G01X2367Y27325D01*
G01X2394Y27283D01*
G01X2419Y27241D01*
G01X2442Y27197D01*
G01X2463Y27152D01*
G01X2483Y27106D01*
G01X2501Y27060D01*
G01X2516Y27012D01*
G01X2530Y26965D01*
G01X2541Y26916D01*
G01X2551Y26867D01*
G01X2558Y26818D01*
G01X2563Y26769D01*
G01X2566Y26719D01*
G01X2567Y26670D01*
G01X2566Y26620D01*
G01X2563Y26572D01*
G01X2558Y26523D01*
G01X2551Y26474D01*
G01X2542Y26426D01*
G01X2531Y26378D01*
G01X2517Y26331D01*
G01X2502Y26285D01*
G01X2485Y26239D01*
G01X2466Y26193D01*
G01X2445Y26149D01*
G01X2423Y26106D01*
G01X2398Y26063D01*
G01X2372Y26022D01*
G01X2344Y25981D01*
G01X2314Y25942D01*
G01X2283Y25905D01*
G01X2250Y25868D01*
G01X2216Y25833D01*
G01X2180Y25799D01*
G01X2143Y25767D01*
G01X2105Y25737D01*
G01X2065Y25708D01*
G01X2024Y25681D01*
G01X1982Y25656D01*
G01X1939Y25632D01*
G01X1895Y25610D01*
G01X1851Y25590D01*
G01X1805Y25572D01*
G01X1759Y25556D01*
G01X1712Y25542D01*
G01X1664Y25530D01*
G01X1616Y25519D01*
G01X1568Y25511D01*
G01X1519Y25505D01*
G01X1470Y25501D01*
G01X1456Y25499D01*
G01X1442Y25495D01*
G01X1429Y25489D01*
G01X1417Y25482D01*
G01X1406Y25472D01*
G01X1397Y25462D01*
G01X1387Y25472D01*
G01X1376Y25482D01*
G01X1364Y25489D01*
G01X1351Y25495D01*
G01X1337Y25499D01*
G01X1323Y25501D01*
G01X1274Y25505D01*
G01X1226Y25511D01*
G01X1177Y25519D01*
G01X1130Y25529D01*
G01X1082Y25541D01*
G01X990Y25571D01*
G01X944Y25589D01*
G01X900Y25609D01*
G01X856Y25631D01*
G01X813Y25654D01*
G01X771Y25679D01*
G01X731Y25706D01*
G01X691Y25735D01*
G01X653Y25765D01*
G01X616Y25797D01*
G01X580Y25830D01*
G01X546Y25865D01*
G01X513Y25901D01*
G01X482Y25938D01*
G01X452Y25977D01*
G01X442Y25989D01*
G01X430Y25999D01*
G01X416Y26008D01*
G01X402Y26014D01*
G01X386Y26017D01*
G01X370Y26019D01*
G01X356Y26018D01*
G01X342Y26014D01*
G01X328Y26009D01*
G01X315Y26002D01*
G01X304Y25994D01*
G01X294Y25983D01*
G01X285Y25972D01*
G01X278Y25959D01*
G01X273Y25946D01*
G01X270Y25931D01*
G01X269Y25917D01*
G01X269Y24882D01*
G01X270Y24868D01*
G01X273Y24853D01*
G01X278Y24840D01*
G01X285Y24827D01*
G01X294Y24816D01*
G01X304Y24805D01*
G01X315Y24797D01*
G01X328Y24790D01*
G01X342Y24785D01*
G01X356Y24781D01*
G01X370Y24780D01*
G01X386Y24782D01*
G01X402Y24785D01*
G01X416Y24791D01*
G01X430Y24800D01*
G01X442Y24810D01*
G01X452Y24822D01*
G01X482Y24861D01*
G01X513Y24898D01*
G01X546Y24934D01*
G01X580Y24969D01*
G01X616Y25002D01*
G01X653Y25034D01*
G01X691Y25064D01*
G01X731Y25093D01*
G01X771Y25120D01*
G01X813Y25145D01*
G01X856Y25168D01*
G01X900Y25190D01*
G01X944Y25210D01*
G01X990Y25228D01*
G01X1082Y25258D01*
G01X1130Y25270D01*
G01X1177Y25280D01*
G01X1226Y25288D01*
G01X1274Y25294D01*
G01X1323Y25298D01*
G01X1337Y25300D01*
G01X1351Y25304D01*
G01X1364Y25310D01*
G01X1376Y25317D01*
G01X1387Y25327D01*
G01X1397Y25337D01*
G01X1406Y25327D01*
G01X1417Y25317D01*
G01X1429Y25310D01*
G01X1442Y25304D01*
G01X1456Y25300D01*
G01X1470Y25298D01*
G01X1519Y25294D01*
G01X1568Y25288D01*
G01X1616Y25280D01*
G01X1664Y25269D01*
G01X1712Y25257D01*
G01X1759Y25243D01*
G01X1805Y25227D01*
G01X1851Y25209D01*
G01X1895Y25189D01*
G01X1939Y25167D01*
G01X1982Y25143D01*
G01X2024Y25118D01*
G01X2065Y25091D01*
G01X2105Y25062D01*
G01X2143Y25032D01*
G01X2180Y25000D01*
G01X2216Y24966D01*
G01X2250Y24931D01*
G01X2283Y24894D01*
G01X2314Y24857D01*
G01X2344Y24818D01*
G01X2372Y24777D01*
G01X2398Y24736D01*
G01X2423Y24693D01*
G01X2445Y24650D01*
G01X2466Y24606D01*
G01X2485Y24560D01*
G01X2502Y24514D01*
G01X2517Y24468D01*
G01X2531Y24421D01*
G01X2542Y24373D01*
G01X2551Y24325D01*
G01X2558Y24276D01*
G01X2563Y24227D01*
G01X2566Y24179D01*
G01X2567Y24130D01*
G01X2566Y24073D01*
G01X2562Y24018D01*
G01X2555Y23962D01*
G01X2546Y23907D01*
G01X2534Y23852D01*
G01X2519Y23798D01*
G01X2516Y23784D01*
G01X2515Y23769D01*
G01X2517Y23753D01*
G01X2520Y23738D01*
G01X2526Y23723D01*
G01X2535Y23709D01*
G01X2545Y23697D01*
G01X6281Y19962D01*
G01X6293Y19951D01*
G01X6306Y19943D01*
G01X6321Y19937D01*
G01X6337Y19933D01*
G01X6352Y19932D01*
G01X7256Y19932D01*
G01X7277Y19934D01*
G01X7297Y19940D01*
G01X7332Y19954D01*
G01X7369Y19966D01*
G01X7406Y19975D01*
G01X7444Y19982D01*
G01X7482Y19986D01*
G01X7520Y19987D01*
G01X7554Y19986D01*
G01X7588Y19983D01*
G01X7622Y19978D01*
G01X7655Y19971D01*
G01X7688Y19962D01*
G01X7720Y19950D01*
G01X7751Y19937D01*
G01X7781Y19923D01*
G01X7811Y19906D01*
G01X7839Y19888D01*
G01X7867Y19867D01*
G01X7893Y19846D01*
G01X7918Y19822D01*
G01X7941Y19798D01*
G01X7962Y19772D01*
G01X7983Y19744D01*
G01X8001Y19716D01*
G01X8018Y19686D01*
G01X8033Y19656D01*
G01X8045Y19625D01*
G01X8057Y19592D01*
G01X8066Y19560D01*
G01X8073Y19527D01*
G01X8078Y19493D01*
G01X8081Y19459D01*
G01X8082Y19425D01*
G01X8081Y19391D01*
G01X8078Y19357D01*
G01X8073Y19324D01*
G01X8066Y19291D01*
G01X8056Y19258D01*
G01X8045Y19226D01*
G01X8032Y19194D01*
G01X8017Y19164D01*
G01X8000Y19134D01*
G01X7982Y19105D01*
G01X7962Y19078D01*
G01X7940Y19052D01*
G01X7916Y19027D01*
G01X7892Y19004D01*
G01X7865Y18982D01*
G01X7838Y18962D01*
G01X7809Y18944D01*
G01X7779Y18927D01*
G01X7749Y18912D01*
G01X7736Y18906D01*
G01X7724Y18897D01*
G01X7714Y18887D01*
G01X7705Y18875D01*
G01X7698Y18862D01*
G01X7693Y18848D01*
G01X7690Y18834D01*
G01X7689Y18820D01*
G01X7690Y18805D01*
G01X7693Y18790D01*
G01X7698Y18776D01*
G01X7706Y18763D01*
G01X7715Y18751D01*
G01X7726Y18741D01*
G01X7739Y18732D01*
G01X7766Y18715D01*
G01X7792Y18696D01*
G01X7817Y18675D01*
G01X7840Y18653D01*
G01X12561Y13935D01*
G01X12573Y13925D01*
G01X12586Y13917D01*
G01X12601Y13910D01*
G01X12616Y13907D01*
G01X12632Y13905D01*
G01X12647Y13906D01*
G01X12661Y13910D01*
G01X12675Y13915D01*
G01X12687Y13922D01*
G01X12699Y13930D01*
G01X12709Y13941D01*
G01X12718Y13952D01*
G01X12725Y13965D01*
G01X12730Y13978D01*
G01X12733Y13993D01*
G01X12734Y14007D01*
G01X12734Y14677D01*
G01X12735Y14700D01*
G01X12738Y14724D01*
G01X12744Y14747D01*
G01X12751Y14769D01*
G01X12761Y14791D01*
G01X12772Y14812D01*
G01X12786Y14831D01*
G01X12801Y14849D01*
G01X12818Y14866D01*
G01X12836Y14881D01*
G01X12855Y14895D01*
G01X12876Y14906D01*
G01X12898Y14916D01*
G01X12920Y14923D01*
G01X12943Y14929D01*
G01X12967Y14932D01*
G01X12991Y14933D01*
G01X12999Y14933D01*
G01X13014Y14934D01*
G01X13028Y14937D01*
G01X13042Y14942D01*
G01X13054Y14949D01*
G01X13066Y14958D01*
G01X13076Y14968D01*
G01X13085Y14980D01*
G01X13092Y14992D01*
G01X13097Y15006D01*
G01X13100Y15020D01*
G01X13101Y15035D01*
G01X13100Y15051D01*
G01X13096Y15066D01*
G01X13090Y15081D01*
G01X13082Y15094D01*
G01X13071Y15106D01*
G01X12415Y15762D01*
G01X12403Y15773D01*
G01X12390Y15781D01*
G01X12375Y15787D01*
G01X12359Y15791D01*
G01X12343Y15792D01*
G01X11430Y15792D01*
G01X11396Y15793D01*
G01X11363Y15796D01*
G01X11331Y15802D01*
G01X11298Y15809D01*
G01X11267Y15819D01*
G01X11236Y15831D01*
G01X11205Y15844D01*
G01X11176Y15860D01*
G01X11148Y15878D01*
G01X11121Y15897D01*
G01X11096Y15918D01*
G01X11071Y15941D01*
G01X11049Y15965D01*
G01X11028Y15990D01*
G01X11008Y16017D01*
G01X10991Y16045D01*
G01X10975Y16075D01*
G01X10962Y16105D01*
G01X10950Y16136D01*
G01X10940Y16168D01*
G01X10933Y16200D01*
G01X10927Y16233D01*
G01X10924Y16266D01*
G01X10923Y16299D01*
G01X10923Y16443D01*
G01X10922Y16459D01*
G01X10918Y16473D01*
G01X10913Y16487D01*
G01X10905Y16501D01*
G01X10896Y16512D01*
G01X10885Y16523D01*
G01X10872Y16531D01*
G01X10859Y16538D01*
G01X10844Y16542D01*
G01X10829Y16545D01*
G01X10806Y16548D01*
G01X10782Y16553D01*
G01X10760Y16560D01*
G01X10738Y16570D01*
G01X10717Y16581D01*
G01X10697Y16594D01*
G01X10678Y16610D01*
G01X10661Y16626D01*
G01X10646Y16645D01*
G01X10632Y16664D01*
G01X10620Y16685D01*
G01X10611Y16707D01*
G01X10603Y16730D01*
G01X10597Y16753D01*
G01X10594Y16777D01*
G01X10593Y16801D01*
G01X10593Y18198D01*
G01X10592Y18212D01*
G01X10589Y18227D01*
G01X10584Y18240D01*
G01X10577Y18253D01*
G01X10568Y18265D01*
G01X10558Y18275D01*
G01X10546Y18284D01*
G01X10533Y18290D01*
G01X10500Y18307D01*
G01X10468Y18326D01*
G01X10438Y18347D01*
G01X10409Y18370D01*
G01X10382Y18395D01*
G01X9980Y18799D01*
G01X9963Y18813D01*
G01X9945Y18822D01*
G01X9913Y18836D01*
G01X9881Y18852D01*
G01X9851Y18870D01*
G01X9822Y18890D01*
G01X9794Y18912D01*
G01X9767Y18935D01*
G01X9742Y18960D01*
G01X9719Y18986D01*
G01X9698Y19014D01*
G01X9678Y19043D01*
G01X9660Y19074D01*
G01X9644Y19105D01*
G01X9630Y19137D01*
G01X9618Y19171D01*
G01X9608Y19205D01*
G01X9600Y19239D01*
G01X9595Y19274D01*
G01X9591Y19309D01*
G01X9590Y19344D01*
G01X9591Y19378D01*
G01X9594Y19412D01*
G01X9600Y19445D01*
G01X9607Y19479D01*
G01X9616Y19511D01*
G01X9627Y19543D01*
G01X9640Y19575D01*
G01X9655Y19605D01*
G01X9671Y19635D01*
G01X9690Y19663D01*
G01X9710Y19690D01*
G01X9732Y19717D01*
G01X9755Y19741D01*
G01X9780Y19764D01*
G01X9806Y19786D01*
G01X9833Y19806D01*
G01X9861Y19825D01*
G01X9891Y19841D01*
G01X9921Y19856D01*
G01X9953Y19869D01*
G01X9985Y19880D01*
G01X10017Y19889D01*
G01X10051Y19896D01*
G01X10084Y19902D01*
G01X10118Y19905D01*
G01X10152Y19906D01*
G01X10187Y19905D01*
G01X10222Y19901D01*
G01X10257Y19896D01*
G01X10292Y19888D01*
G01X10326Y19878D01*
G01X10359Y19866D01*
G01X10392Y19852D01*
G01X10423Y19836D01*
G01X10454Y19818D01*
G01X10483Y19798D01*
G01X10511Y19776D01*
G01X10537Y19753D01*
G01X10562Y19727D01*
G01X10586Y19701D01*
G01X10607Y19673D01*
G01X10627Y19643D01*
G01X10645Y19613D01*
G01X10661Y19581D01*
G01X10675Y19549D01*
G01X10684Y19530D01*
G01X10697Y19514D01*
G01X10922Y19289D01*
G01X10934Y19278D01*
G01X10948Y19270D01*
G01X10962Y19264D01*
G01X10978Y19260D01*
G01X10994Y19259D01*
G01X11429Y19259D01*
G01X11463Y19258D01*
G01X11496Y19255D01*
G01X11528Y19249D01*
G01X11561Y19242D01*
G01X11592Y19232D01*
G01X11623Y19220D01*
G01X11654Y19207D01*
G01X11683Y19191D01*
G01X11711Y19173D01*
G01X11738Y19154D01*
G01X11763Y19133D01*
G01X11788Y19110D01*
G01X11810Y19086D01*
G01X11831Y19061D01*
G01X11851Y19034D01*
G01X11868Y19006D01*
G01X11884Y18976D01*
G01X11897Y18946D01*
G01X11909Y18915D01*
G01X11919Y18883D01*
G01X11926Y18851D01*
G01X11932Y18818D01*
G01X11935Y18785D01*
G01X11936Y18752D01*
G01X11936Y18608D01*
G01X11937Y18592D01*
G01X11941Y18578D01*
G01X11946Y18564D01*
G01X11954Y18550D01*
G01X11963Y18539D01*
G01X11974Y18528D01*
G01X11987Y18520D01*
G01X12000Y18513D01*
G01X12015Y18509D01*
G01X12030Y18506D01*
G01X12053Y18503D01*
G01X12077Y18498D01*
G01X12099Y18491D01*
G01X12121Y18481D01*
G01X12142Y18470D01*
G01X12162Y18457D01*
G01X12181Y18441D01*
G01X12198Y18425D01*
G01X12213Y18406D01*
G01X12227Y18387D01*
G01X12239Y18366D01*
G01X12248Y18344D01*
G01X12256Y18321D01*
G01X12262Y18298D01*
G01X12265Y18274D01*
G01X12266Y18250D01*
G01X12266Y16907D01*
G01X12267Y16892D01*
G01X12270Y16878D01*
G01X12275Y16865D01*
G01X12282Y16852D01*
G01X12291Y16840D01*
G01X12301Y16830D01*
G01X12313Y16821D01*
G01X12325Y16814D01*
G01X12339Y16809D01*
G01X12353Y16806D01*
G01X12368Y16805D01*
G01X12523Y16805D01*
G01X12538Y16806D01*
G01X12552Y16809D01*
G01X12566Y16814D01*
G01X12578Y16821D01*
G01X12590Y16830D01*
G01X12600Y16840D01*
G01X12609Y16852D01*
G01X12616Y16865D01*
G01X12621Y16878D01*
G01X12624Y16892D01*
G01X12625Y16907D01*
G01X12625Y17100D01*
G01X13108Y17100D01*
G01X13108Y16544D01*
G01X13109Y16529D01*
G01X13113Y16513D01*
G01X13119Y16498D01*
G01X13127Y16485D01*
G01X13138Y16473D01*
G01X14074Y15537D01*
G01X14096Y15513D01*
G01X14117Y15487D01*
G01X14137Y15460D01*
G01X14154Y15432D01*
G01X14170Y15403D01*
G01X14183Y15372D01*
G01X14195Y15341D01*
G01X14205Y15310D01*
G01X14212Y15277D01*
G01X14218Y15245D01*
G01X14221Y15212D01*
G01X14222Y15179D01*
G01X14222Y15035D01*
G01X14223Y15020D01*
G01X14226Y15006D01*
G01X14231Y14992D01*
G01X14238Y14980D01*
G01X14247Y14968D01*
G01X14257Y14958D01*
G01X14269Y14949D01*
G01X14281Y14942D01*
G01X14295Y14937D01*
G01X14309Y14934D01*
G01X14324Y14933D01*
G01X14440Y14933D01*
G01X14464Y14932D01*
G01X14488Y14929D01*
G01X14511Y14923D01*
G01X14533Y14916D01*
G01X14555Y14906D01*
G01X14576Y14895D01*
G01X14595Y14881D01*
G01X14613Y14866D01*
G01X14630Y14849D01*
G01X14645Y14831D01*
G01X14659Y14812D01*
G01X14670Y14791D01*
G01X14680Y14769D01*
G01X14687Y14747D01*
G01X14693Y14724D01*
G01X14696Y14700D01*
G01X14697Y14677D01*
G01X14697Y13516D01*
G01X14696Y13493D01*
G01X14693Y13469D01*
G01X14687Y13446D01*
G01X14680Y13424D01*
G01X14670Y13402D01*
G01X14659Y13381D01*
G01X14645Y13362D01*
G01X14630Y13344D01*
G01X14613Y13327D01*
G01X14595Y13312D01*
G01X14576Y13298D01*
G01X14555Y13287D01*
G01X14533Y13277D01*
G01X14511Y13270D01*
G01X14488Y13264D01*
G01X14464Y13261D01*
G01X14440Y13260D01*
G01X13481Y13260D01*
G01X13467Y13259D01*
G01X13453Y13256D01*
G01X13439Y13251D01*
G01X13426Y13244D01*
G01X13415Y13235D01*
G01X13405Y13225D01*
G01X13396Y13213D01*
G01X13389Y13201D01*
G01X13384Y13187D01*
G01X13381Y13173D01*
G01X13380Y13158D01*
G01X13381Y13142D01*
G01X13385Y13127D01*
G01X13391Y13112D01*
G01X13399Y13099D01*
G01X13410Y13086D01*
G01X13565Y12931D01*
G01X13577Y12920D01*
G01X13591Y12912D01*
G01X13606Y12906D01*
G01X13621Y12902D01*
G01X13637Y12901D01*
G01X14440Y12901D01*
G01X14464Y12900D01*
G01X14488Y12897D01*
G01X14511Y12891D01*
G01X14533Y12884D01*
G01X14555Y12874D01*
G01X14576Y12863D01*
G01X14595Y12849D01*
G01X14613Y12834D01*
G01X14630Y12817D01*
G01X14645Y12799D01*
G01X14659Y12780D01*
G01X14670Y12759D01*
G01X14680Y12737D01*
G01X14687Y12715D01*
G01X14693Y12692D01*
G01X14696Y12668D01*
G01X14697Y12645D01*
G01X14697Y11760D01*
G01X14698Y11745D01*
G01X14701Y11731D01*
G01X14706Y11718D01*
G01X14713Y11705D01*
G01X14722Y11693D01*
G01X14732Y11683D01*
G01X14744Y11674D01*
G01X14756Y11667D01*
G01X14770Y11662D01*
G01X14784Y11659D01*
G01X14799Y11658D01*
G01X14815Y11659D01*
G01X14830Y11663D01*
G01X14845Y11669D01*
G01X14858Y11678D01*
G01X14870Y11688D01*
G01X15773Y12590D01*
G01X15783Y12602D01*
G01X15791Y12616D01*
G01X15797Y12630D01*
G01X15801Y12646D01*
G01X15802Y12662D01*
G01X15802Y14178D01*
G01X15800Y14198D01*
G01X15794Y14218D01*
G01X15780Y14254D01*
G01X15768Y14290D01*
G01X15759Y14328D01*
G01X15753Y14365D01*
G01X15749Y14404D01*
G01X15747Y14442D01*
G01X15748Y14476D01*
G01X15751Y14510D01*
G01X15756Y14543D01*
G01X15764Y14576D01*
G01X15773Y14609D01*
G01X15784Y14641D01*
G01X15797Y14672D01*
G01X15812Y14703D01*
G01X15828Y14732D01*
G01X15847Y14761D01*
G01X15867Y14788D01*
G01X15889Y14814D01*
G01X15912Y14839D01*
G01X15936Y14862D01*
G01X15963Y14884D01*
G01X15990Y14904D01*
G01X16018Y14922D01*
G01X16048Y14939D01*
G01X16078Y14954D01*
G01X16110Y14967D01*
G01X16142Y14978D01*
G01X16174Y14987D01*
G01X16208Y14994D01*
G01X16241Y14999D01*
G01X16275Y15002D01*
G01X16309Y15003D01*
G01X16346Y15002D01*
G01X16383Y14999D01*
G01X16419Y14992D01*
G01X16456Y14984D01*
G01X16491Y14973D01*
G01X16526Y14960D01*
G01X16559Y14944D01*
G01X16592Y14927D01*
G01X16624Y14907D01*
G01X16654Y14885D01*
G01X16668Y14876D01*
G01X16683Y14869D01*
G01X16699Y14865D01*
G01X16716Y14864D01*
G01X16732Y14865D01*
G01X16747Y14869D01*
G01X16762Y14875D01*
G01X16776Y14883D01*
G01X16795Y14896D01*
G01X16816Y14907D01*
G01X16837Y14916D01*
G01X16859Y14924D01*
G01X16881Y14929D01*
G01X16904Y14932D01*
G01X16928Y14933D01*
G01X17044Y14933D01*
G01X17059Y14934D01*
G01X17073Y14937D01*
G01X17087Y14942D01*
G01X17099Y14949D01*
G01X17111Y14958D01*
G01X17121Y14968D01*
G01X17130Y14980D01*
G01X17137Y14992D01*
G01X17142Y15006D01*
G01X17145Y15020D01*
G01X17146Y15035D01*
G01X17146Y15927D01*
G01X17145Y15943D01*
G01X17141Y15960D01*
G01X17134Y15975D01*
G01X17125Y15989D01*
G01X17105Y16016D01*
G01X17088Y16044D01*
G01X17072Y16074D01*
G01X17058Y16104D01*
G01X17046Y16135D01*
G01X17036Y16167D01*
G01X17029Y16199D01*
G01X17023Y16232D01*
G01X17020Y16265D01*
G01X17019Y16299D01*
G01X17019Y16443D01*
G01X17018Y16459D01*
G01X17014Y16473D01*
G01X17009Y16487D01*
G01X17001Y16501D01*
G01X16992Y16512D01*
G01X16981Y16523D01*
G01X16968Y16531D01*
G01X16955Y16538D01*
G01X16940Y16542D01*
G01X16925Y16545D01*
G01X16902Y16548D01*
G01X16878Y16553D01*
G01X16856Y16560D01*
G01X16834Y16570D01*
G01X16813Y16581D01*
G01X16793Y16594D01*
G01X16774Y16610D01*
G01X16757Y16626D01*
G01X16742Y16645D01*
G01X16728Y16664D01*
G01X16716Y16685D01*
G01X16707Y16707D01*
G01X16699Y16730D01*
G01X16693Y16753D01*
G01X16690Y16777D01*
G01X16689Y16801D01*
G01X16689Y18250D01*
G01X16690Y18274D01*
G01X16693Y18298D01*
G01X16699Y18321D01*
G01X16706Y18343D01*
G01X16716Y18365D01*
G01X16727Y18386D01*
G01X16741Y18405D01*
G01X16756Y18423D01*
G01X16773Y18440D01*
G01X16791Y18455D01*
G01X16810Y18469D01*
G01X16831Y18480D01*
G01X16853Y18490D01*
G01X16875Y18497D01*
G01X16898Y18503D01*
G01X16922Y18506D01*
G01X16945Y18507D01*
G01X18106Y18507D01*
G01X18129Y18506D01*
G01X18153Y18503D01*
G01X18176Y18497D01*
G01X18198Y18490D01*
G01X18220Y18480D01*
G01X18241Y18469D01*
G01X18260Y18455D01*
G01X18278Y18440D01*
G01X18295Y18423D01*
G01X18310Y18405D01*
G01X18324Y18386D01*
G01X18335Y18365D01*
G01X18345Y18343D01*
G01X18352Y18321D01*
G01X18358Y18298D01*
G01X18361Y18274D01*
G01X18362Y18250D01*
G01X18362Y16801D01*
G01X18361Y16776D01*
G01X18357Y16752D01*
G01X18352Y16729D01*
G01X18344Y16706D01*
G01X18334Y16683D01*
G01X18322Y16662D01*
G01X18308Y16642D01*
G01X18292Y16624D01*
G01X18274Y16607D01*
G01X18255Y16592D01*
G01X18235Y16579D01*
G01X18213Y16568D01*
G01X18191Y16558D01*
G01X18167Y16552D01*
G01X18153Y16547D01*
G01X18140Y16540D01*
G01X18127Y16532D01*
G01X18117Y16521D01*
G01X18107Y16509D01*
G01X18100Y16496D01*
G01X18095Y16482D01*
G01X18091Y16468D01*
G01X18090Y16453D01*
G01X18091Y16437D01*
G01X18095Y16421D01*
G01X18102Y16406D01*
G01X18118Y16371D01*
G01X18132Y16336D01*
G01X18143Y16299D01*
G01X18151Y16261D01*
G01X18155Y16246D01*
G01X18161Y16232D01*
G01X18170Y16219D01*
G01X18180Y16207D01*
G01X18192Y16197D01*
G01X18206Y16189D01*
G01X18220Y16183D01*
G01X18235Y16179D01*
G01X18251Y16178D01*
G01X19463Y16178D01*
G01X19484Y16180D01*
G01X19504Y16186D01*
G01X19539Y16200D01*
G01X19576Y16212D01*
G01X19613Y16221D01*
G01X19651Y16228D01*
G01X19689Y16232D01*
G01X19728Y16233D01*
G01X19762Y16232D01*
G01X19795Y16229D01*
G01X19829Y16224D01*
G01X19862Y16217D01*
G01X19895Y16207D01*
G01X19927Y16196D01*
G01X19958Y16183D01*
G01X19989Y16169D01*
G01X20018Y16152D01*
G01X20047Y16133D01*
G01X20074Y16113D01*
G01X20100Y16092D01*
G01X20125Y16068D01*
G01X20148Y16044D01*
G01X20170Y16018D01*
G01X20190Y15990D01*
G01X20208Y15962D01*
G01X20225Y15932D01*
G01X20240Y15902D01*
G01X20253Y15870D01*
G01X20264Y15838D01*
G01X20273Y15806D01*
G01X20280Y15773D01*
G01X20285Y15739D01*
G01X20288Y15705D01*
G01X20289Y15671D01*
G01X20288Y15637D01*
G01X20285Y15604D01*
G01X20280Y15570D01*
G01X20273Y15537D01*
G01X20264Y15504D01*
G01X20253Y15472D01*
G01X20240Y15441D01*
G01X20225Y15410D01*
G01X20208Y15381D01*
G01X20190Y15352D01*
G01X20170Y15325D01*
G01X20148Y15299D01*
G01X20125Y15274D01*
G01X20100Y15251D01*
G01X20074Y15229D01*
G01X20047Y15209D01*
G01X20018Y15191D01*
G01X19989Y15174D01*
G01X19958Y15159D01*
G01X19927Y15146D01*
G01X19895Y15135D01*
G01X19862Y15126D01*
G01X19829Y15119D01*
G01X19795Y15114D01*
G01X19762Y15111D01*
G01X19728Y15110D01*
G01X19689Y15111D01*
G01X19651Y15115D01*
G01X19613Y15122D01*
G01X19576Y15131D01*
G01X19539Y15142D01*
G01X19504Y15156D01*
G01X19484Y15163D01*
G01X19463Y15165D01*
G01X18261Y15165D01*
G01X18246Y15164D01*
G01X18232Y15161D01*
G01X18218Y15156D01*
G01X18206Y15149D01*
G01X18194Y15140D01*
G01X18184Y15130D01*
G01X18175Y15118D01*
G01X18168Y15105D01*
G01X18163Y15092D01*
G01X18160Y15078D01*
G01X18159Y15063D01*
G01X18159Y15035D01*
G01X18160Y15020D01*
G01X18163Y15006D01*
G01X18168Y14992D01*
G01X18175Y14980D01*
G01X18184Y14968D01*
G01X18194Y14958D01*
G01X18206Y14949D01*
G01X18218Y14942D01*
G01X18232Y14937D01*
G01X18246Y14934D01*
G01X18261Y14933D01*
G01X18377Y14933D01*
G01X18401Y14932D01*
G01X18425Y14929D01*
G01X18448Y14923D01*
G01X18470Y14916D01*
G01X18492Y14906D01*
G01X18513Y14895D01*
G01X18532Y14881D01*
G01X18550Y14866D01*
G01X18567Y14849D01*
G01X18582Y14831D01*
G01X18596Y14812D01*
G01X18607Y14791D01*
G01X18617Y14769D01*
G01X18624Y14747D01*
G01X18630Y14724D01*
G01X18633Y14700D01*
G01X18634Y14677D01*
G01X18634Y13516D01*
G01X18633Y13493D01*
G01X18630Y13469D01*
G01X18624Y13446D01*
G01X18617Y13424D01*
G01X18607Y13402D01*
G01X18596Y13381D01*
G01X18582Y13362D01*
G01X18567Y13344D01*
G01X18550Y13327D01*
G01X18532Y13312D01*
G01X18513Y13298D01*
G01X18492Y13287D01*
G01X18470Y13277D01*
G01X18448Y13270D01*
G01X18425Y13264D01*
G01X18401Y13261D01*
G01X18377Y13260D01*
G01X16917Y13260D01*
G01X16903Y13259D01*
G01X16888Y13256D01*
G01X16875Y13251D01*
G01X16862Y13244D01*
G01X16850Y13235D01*
G01X16840Y13225D01*
G01X16832Y13213D01*
G01X16825Y13201D01*
G01X16819Y13187D01*
G01X16816Y13173D01*
G01X16815Y13159D01*
G01X16815Y13002D01*
G01X16816Y12988D01*
G01X16819Y12974D01*
G01X16825Y12960D01*
G01X16832Y12948D01*
G01X16840Y12936D01*
G01X16850Y12926D01*
G01X16862Y12917D01*
G01X16875Y12910D01*
G01X16888Y12905D01*
G01X16903Y12902D01*
G01X16917Y12901D01*
G01X18377Y12901D01*
G01X18401Y12900D01*
G01X18425Y12897D01*
G01X18448Y12891D01*
G01X18470Y12884D01*
G01X18492Y12874D01*
G01X18513Y12863D01*
G01X18532Y12849D01*
G01X18550Y12834D01*
G01X18567Y12817D01*
G01X18582Y12799D01*
G01X18596Y12780D01*
G01X18607Y12759D01*
G01X18617Y12737D01*
G01X18624Y12715D01*
G01X18630Y12692D01*
G01X18633Y12668D01*
G01X18634Y12645D01*
G01X18634Y11484D01*
G01X18633Y11461D01*
G01X18630Y11437D01*
G01X18624Y11414D01*
G01X18617Y11392D01*
G01X18607Y11370D01*
G01X18596Y11349D01*
G01X18582Y11330D01*
G01X18567Y11312D01*
G01X18550Y11295D01*
G01X18532Y11280D01*
G01X18513Y11266D01*
G01X18492Y11255D01*
G01X18470Y11245D01*
G01X18448Y11238D01*
G01X18425Y11232D01*
G01X18401Y11229D01*
G01X18377Y11228D01*
G01X18261Y11228D01*
G01X18246Y11227D01*
G01X18232Y11224D01*
G01X18218Y11219D01*
G01X18206Y11212D01*
G01X18194Y11203D01*
G01X18184Y11193D01*
G01X18175Y11181D01*
G01X18168Y11169D01*
G01X18163Y11155D01*
G01X18160Y11141D01*
G01X18159Y11126D01*
G01X18159Y10982D01*
G01X18158Y10949D01*
G01X18155Y10916D01*
G01X18149Y10884D01*
G01X18142Y10851D01*
G01X18132Y10820D01*
G01X18120Y10789D01*
G01X18107Y10758D01*
G01X18091Y10729D01*
G01X18074Y10701D01*
G01X18054Y10674D01*
G01X18033Y10648D01*
G01X18011Y10624D01*
G01X17332Y9945D01*
G01X17321Y9933D01*
G01X17313Y9920D01*
G01X17307Y9905D01*
G01X17303Y9889D01*
G01X17302Y9874D01*
G01X17303Y9859D01*
G01X17306Y9845D01*
G01X17311Y9831D01*
G01X17318Y9819D01*
G01X17327Y9807D01*
G01X17337Y9797D01*
G01X17349Y9788D01*
G01X17361Y9781D01*
G01X17375Y9776D01*
G01X17389Y9773D01*
G01X17404Y9772D01*
G01X19367Y9772D01*
G01X19382Y9773D01*
G01X19398Y9777D01*
G01X19413Y9783D01*
G01X19426Y9791D01*
G01X19438Y9802D01*
G01X20691Y11055D01*
G01X20702Y11067D01*
G01X20710Y11080D01*
G01X20716Y11095D01*
G01X20720Y11110D01*
G01X20721Y11126D01*
G01X20720Y11141D01*
G01X20717Y11155D01*
G01X20712Y11169D01*
G01X20705Y11181D01*
G01X20696Y11193D01*
G01X20686Y11203D01*
G01X20674Y11212D01*
G01X20662Y11219D01*
G01X20648Y11224D01*
G01X20634Y11227D01*
G01X20619Y11228D01*
G01X20611Y11228D01*
G01X20587Y11229D01*
G01X20563Y11232D01*
G01X20540Y11238D01*
G01X20518Y11245D01*
G01X20496Y11255D01*
G01X20475Y11266D01*
G01X20456Y11280D01*
G01X20438Y11295D01*
G01X20421Y11312D01*
G01X20406Y11330D01*
G01X20392Y11349D01*
G01X20381Y11370D01*
G01X20371Y11392D01*
G01X20364Y11414D01*
G01X20358Y11437D01*
G01X20355Y11461D01*
G01X20354Y11484D01*
G01X20354Y12645D01*
G01X20355Y12668D01*
G01X20358Y12692D01*
G01X20364Y12715D01*
G01X20371Y12737D01*
G01X20381Y12759D01*
G01X20392Y12780D01*
G01X20406Y12799D01*
G01X20421Y12817D01*
G01X20438Y12834D01*
G01X20456Y12849D01*
G01X20475Y12863D01*
G01X20496Y12874D01*
G01X20518Y12884D01*
G01X20540Y12891D01*
G01X20563Y12897D01*
G01X20587Y12900D01*
G01X20611Y12901D01*
G01X22060Y12901D01*
G01X22084Y12900D01*
G01X22108Y12897D01*
G01X22131Y12891D01*
G01X22153Y12884D01*
G01X22175Y12874D01*
G01X22196Y12863D01*
G01X22215Y12849D01*
G01X22233Y12834D01*
G01X22250Y12817D01*
G01X22265Y12799D01*
G01X22279Y12780D01*
G01X22290Y12759D01*
G01X22300Y12737D01*
G01X22307Y12715D01*
G01X22313Y12692D01*
G01X22316Y12668D01*
G01X22317Y12645D01*
G01X22317Y11484D01*
G01X22316Y11461D01*
G01X22313Y11437D01*
G01X22307Y11414D01*
G01X22300Y11392D01*
G01X22290Y11370D01*
G01X22279Y11349D01*
G01X22265Y11330D01*
G01X22250Y11312D01*
G01X22233Y11295D01*
G01X22215Y11280D01*
G01X22196Y11266D01*
G01X22175Y11255D01*
G01X22153Y11245D01*
G01X22131Y11238D01*
G01X22108Y11232D01*
G01X22084Y11229D01*
G01X22060Y11228D01*
G01X21944Y11228D01*
G01X21929Y11227D01*
G01X21915Y11224D01*
G01X21901Y11219D01*
G01X21889Y11212D01*
G01X21877Y11203D01*
G01X21867Y11193D01*
G01X21858Y11181D01*
G01X21851Y11169D01*
G01X21846Y11155D01*
G01X21843Y11141D01*
G01X21842Y11126D01*
G01X21842Y10982D01*
G01X21841Y10949D01*
G01X21838Y10916D01*
G01X21832Y10884D01*
G01X21825Y10851D01*
G01X21815Y10820D01*
G01X21803Y10789D01*
G01X21790Y10758D01*
G01X21774Y10729D01*
G01X21757Y10701D01*
G01X21737Y10674D01*
G01X21716Y10648D01*
G01X21694Y10624D01*
G01X19977Y8907D01*
G01X19952Y8885D01*
G01X19927Y8864D01*
G01X19900Y8844D01*
G01X19872Y8827D01*
G01X19842Y8811D01*
G01X19812Y8797D01*
G01X19781Y8786D01*
G01X19750Y8776D01*
G01X19717Y8769D01*
G01X19685Y8763D01*
G01X19652Y8760D01*
G01X19618Y8759D01*
G01X7165Y8759D01*
G01X7132Y8760D01*
G01X7099Y8763D01*
G01X7066Y8769D01*
G01X7034Y8776D01*
G01X7002Y8786D01*
G01X6971Y8797D01*
G01X6941Y8811D01*
G01X6912Y8827D01*
G01X6883Y8844D01*
G01X6856Y8864D01*
G01X6831Y8885D01*
G01X6807Y8907D01*
G01X2464Y13249D01*
G01X2452Y13260D01*
G01X2439Y13268D01*
G01X2424Y13274D01*
G01X2409Y13278D01*
G01X2393Y13279D01*
G01X2377Y13278D01*
G01X2363Y13275D01*
G01X2348Y13269D01*
G01X2335Y13261D01*
G01X2323Y13252D01*
G01X2313Y13241D01*
G01X2282Y13203D01*
G01X2249Y13167D01*
G01X2215Y13132D01*
G01X2179Y13098D01*
G01X2142Y13067D01*
G01X2104Y13036D01*
G01X2064Y13007D01*
G01X2023Y12980D01*
G01X1981Y12955D01*
G01X1938Y12932D01*
G01X1895Y12910D01*
G01X1850Y12890D01*
G01X1804Y12872D01*
G01X1758Y12856D01*
G01X1711Y12842D01*
G01X1664Y12829D01*
G01X1616Y12819D01*
G01X1568Y12811D01*
G01X1519Y12805D01*
G01X1470Y12801D01*
G01X1456Y12799D01*
G01X1442Y12795D01*
G01X1429Y12789D01*
G01X1417Y12782D01*
G01X1406Y12772D01*
G01X1397Y12762D01*
G01X1387Y12772D01*
G01X1376Y12782D01*
G01X1364Y12789D01*
G01X1351Y12795D01*
G01X1337Y12799D01*
G01X1323Y12801D01*
G01X1274Y12805D01*
G01X1226Y12811D01*
G01X1177Y12819D01*
G01X1130Y12829D01*
G01X1082Y12841D01*
G01X990Y12871D01*
G01X944Y12889D01*
G01X900Y12909D01*
G01X856Y12931D01*
G01X813Y12954D01*
G01X771Y12979D01*
G01X731Y13006D01*
G01X691Y13035D01*
G01X653Y13065D01*
G01X616Y13097D01*
G01X580Y13130D01*
G01X546Y13165D01*
G01X513Y13201D01*
G01X482Y13238D01*
G01X452Y13277D01*
G01X442Y13289D01*
G01X430Y13299D01*
G01X416Y13308D01*
G01X402Y13314D01*
G01X386Y13317D01*
G01X370Y13319D01*
G01X356Y13318D01*
G01X342Y13314D01*
G01X328Y13309D01*
G01X315Y13302D01*
G01X304Y13294D01*
G01X294Y13283D01*
G01X285Y13272D01*
G01X278Y13259D01*
G01X273Y13246D01*
G01X270Y13231D01*
G01X269Y13217D01*
G01X269Y12182D01*
G01X270Y12168D01*
G01X273Y12153D01*
G01X278Y12140D01*
G01X285Y12127D01*
G01X294Y12116D01*
G01X304Y12105D01*
G01X315Y12097D01*
G01X328Y12090D01*
G01X342Y12085D01*
G01X356Y12081D01*
G01X370Y12080D01*
G01X386Y12082D01*
G01X402Y12085D01*
G01X416Y12091D01*
G01X430Y12100D01*
G01X442Y12110D01*
G01X452Y12122D01*
G01X482Y12161D01*
G01X513Y12198D01*
G01X546Y12234D01*
G01X580Y12269D01*
G01X616Y12302D01*
G01X653Y12334D01*
G01X691Y12364D01*
G01X731Y12393D01*
G01X771Y12420D01*
G01X813Y12445D01*
G01X856Y12468D01*
G01X900Y12490D01*
G01X944Y12510D01*
G01X990Y12528D01*
G01X1082Y12558D01*
G01X1130Y12570D01*
G01X1177Y12580D01*
G01X1226Y12588D01*
G01X1274Y12594D01*
G01X1323Y12598D01*
G01X1337Y12600D01*
G01X1351Y12604D01*
G01X1364Y12610D01*
G01X1376Y12617D01*
G01X1387Y12627D01*
G01X1397Y12637D01*
G01X1406Y12627D01*
G01X1417Y12617D01*
G01X1429Y12610D01*
G01X1442Y12604D01*
G01X1456Y12600D01*
G01X1470Y12598D01*
G01X1521Y12594D01*
G01X1571Y12587D01*
G01X1620Y12579D01*
G01X1670Y12568D01*
G01X1718Y12555D01*
G01X1767Y12540D01*
G01X1814Y12523D01*
G01X1861Y12504D01*
G01X1907Y12483D01*
G01X1952Y12461D01*
G01X1995Y12436D01*
G01X2038Y12409D01*
G01X2080Y12380D01*
G01X2120Y12350D01*
G01X2159Y12318D01*
G01X2197Y12284D01*
G01X2233Y12249D01*
G01X2267Y12212D01*
G01X2300Y12174D01*
G01X2331Y12135D01*
G01X2361Y12094D01*
G01X2397Y12040D01*
G01X2407Y12029D01*
G01X2419Y12020D01*
G01X2432Y12013D01*
G01X2446Y12008D01*
G01X2460Y12005D01*
G01X2475Y12004D01*
G01X2491Y12005D01*
G01X2507Y12009D01*
G01X2522Y12016D01*
G01X2536Y12025D01*
G01X2566Y12046D01*
G01X2597Y12065D01*
G01X2629Y12082D01*
G01X2662Y12096D01*
G01X2696Y12109D01*
G01X2731Y12120D01*
G01X2766Y12128D01*
G01X2802Y12134D01*
G01X2838Y12137D01*
G01X2875Y12138D01*
G01X2910Y12137D01*
G01X2945Y12134D01*
G01X2980Y12128D01*
G01X3015Y12121D01*
G01X3049Y12111D01*
G01X3082Y12099D01*
G01X3114Y12085D01*
G01X3146Y12069D01*
G01X3176Y12051D01*
G01X3205Y12031D01*
G01X3233Y12009D01*
G01X3260Y11986D01*
G01X3285Y11961D01*
G01X3308Y11934D01*
G01X3330Y11906D01*
G01X3349Y11877D01*
G01X3367Y11847D01*
G01X3383Y11815D01*
G01X3397Y11783D01*
G01X3407Y11764D01*
G01X3420Y11748D01*
G01X6898Y8270D01*
G01X6910Y8260D01*
G01X6924Y8251D01*
G01X6938Y8245D01*
G01X6954Y8242D01*
G01X6970Y8240D01*
G01X11808Y8240D01*
G01X11841Y8239D01*
G01X11874Y8236D01*
G01X11907Y8231D01*
G01X11939Y8223D01*
G01X11971Y8213D01*
G01X12002Y8202D01*
G01X12032Y8188D01*
G01X12061Y8172D01*
G01X12089Y8155D01*
G01X12116Y8136D01*
G01X12142Y8115D01*
G01X12166Y8092D01*
G01X17353Y2905D01*
G01X17375Y2881D01*
G01X17397Y2855D01*
G01X17416Y2829D01*
G01X17433Y2800D01*
G01X17449Y2771D01*
G01X17463Y2741D01*
G01X17474Y2710D01*
G01X17484Y2678D01*
G01X17491Y2646D01*
G01X17497Y2613D01*
G01X17500Y2580D01*
G01X17501Y2547D01*
G01X17501Y2151D01*
G01X17502Y2136D01*
G01X17505Y2122D01*
G01X17510Y2109D01*
G01X17517Y2096D01*
G01X17526Y2084D01*
G01X17536Y2074D01*
G01X17548Y2065D01*
G01X17561Y2058D01*
G01X17574Y2053D01*
G01X17588Y2050D01*
G01X17603Y2049D01*
G01X18998Y2049D01*
G01X19022Y2048D01*
G01X19045Y2045D01*
G01X19068Y2039D01*
G01X19091Y2032D01*
G01X19112Y2022D01*
G01X19133Y2011D01*
G01X19153Y1997D01*
G01X19171Y1982D01*
G01X19188Y1966D01*
G01X19203Y1947D01*
G01X19216Y1928D01*
G01X19228Y1907D01*
G01X19237Y1885D01*
G01X19245Y1863D01*
G01X19250Y1840D01*
G01X19254Y1816D01*
G01X19255Y1793D01*
G01X19255Y795D01*
G01X19254Y771D01*
G01X19250Y747D01*
G01X19245Y724D01*
G01X19237Y702D01*
G01X19228Y680D01*
G01X19216Y659D01*
G01X19203Y640D01*
G01X19188Y622D01*
G01X19171Y605D01*
G01X19153Y590D01*
G01X19133Y576D01*
G01X19112Y565D01*
G01X19091Y555D01*
G01X19068Y548D01*
G01X19045Y542D01*
G01X19022Y539D01*
G01X18998Y538D01*
G01X17497Y538D01*
G01X17474Y539D01*
G01X17451Y542D01*
G01X17429Y547D01*
G01X17407Y554D01*
G01X17386Y563D01*
G01X17365Y574D01*
G01X17346Y587D01*
G01X17328Y601D01*
G01X17311Y617D01*
G01X17296Y635D01*
G01X17283Y653D01*
G01X17271Y673D01*
G01X17261Y694D01*
G01X17253Y716D01*
G01X17247Y730D01*
G01X17238Y744D01*
G01X17228Y756D01*
G01X17216Y766D01*
G01X17202Y775D01*
G01X17188Y781D01*
G01X17172Y785D01*
G01X17156Y786D01*
G01X16995Y786D01*
G01X16962Y787D01*
G01X16929Y790D01*
G01X16896Y796D01*
G01X16864Y803D01*
G01X16832Y813D01*
G01X16801Y824D01*
G01X16771Y838D01*
G01X16741Y854D01*
G01X16713Y871D01*
G01X16686Y890D01*
G01X16636Y934D01*
G01X16614Y958D01*
G01X16593Y984D01*
G01X16573Y1011D01*
G01X16556Y1039D01*
G01X16540Y1068D01*
G01X16527Y1099D01*
G01X16515Y1130D01*
G01X16505Y1161D01*
G01X16498Y1194D01*
G01X16492Y1226D01*
G01X16489Y1259D01*
G01X16488Y1292D01*
G01X16488Y2295D01*
G01X16487Y2311D01*
G01X16483Y2327D01*
G01X16477Y2341D01*
G01X16469Y2355D01*
G01X16458Y2367D01*
G01X14427Y4399D01*
G01X14415Y4409D01*
G01X14401Y4417D01*
G01X14386Y4423D01*
G01X14371Y4427D01*
G01X14355Y4428D01*
G01X14340Y4427D01*
G01X14326Y4424D01*
G01X14313Y4419D01*
G01X14300Y4412D01*
G01X14288Y4404D01*
G01X14278Y4393D01*
G01X14269Y4382D01*
G01X14263Y4369D01*
G01X14257Y4355D01*
G01X14254Y4341D01*
G01X14253Y4327D01*
G01X14253Y3794D01*
G01X14252Y3771D01*
G01X14249Y3747D01*
G01X14244Y3724D01*
G01X14236Y3702D01*
G01X14226Y3680D01*
G01X14215Y3659D01*
G01X14202Y3640D01*
G01X14186Y3621D01*
G01X14170Y3605D01*
G01X14151Y3590D01*
G01X14132Y3576D01*
G01X14111Y3565D01*
G01X14089Y3555D01*
G01X14067Y3548D01*
G01X14044Y3542D01*
G01X14020Y3539D01*
G01X13997Y3538D01*
G01X12498Y3538D01*
G01X12475Y3539D01*
G01X12452Y3542D01*
G01X12430Y3547D01*
G01X12408Y3554D01*
G01X12387Y3563D01*
G01X12367Y3574D01*
G01X12347Y3587D01*
G01X12329Y3601D01*
G01X12313Y3617D01*
G01X12298Y3634D01*
G01X12284Y3653D01*
G01X12272Y3673D01*
G01X12262Y3694D01*
G01X12254Y3715D01*
G01X12248Y3730D01*
G01X12240Y3744D01*
G01X12229Y3756D01*
G01X12217Y3766D01*
G01X12204Y3774D01*
G01X12189Y3781D01*
G01X12173Y3784D01*
G01X12157Y3786D01*
G01X11996Y3786D01*
G01X11963Y3787D01*
G01X11930Y3790D01*
G01X11897Y3795D01*
G01X11865Y3803D01*
G01X11833Y3812D01*
G01X11802Y3824D01*
G01X11772Y3838D01*
G01X11743Y3853D01*
G01X11715Y3871D01*
G01X11688Y3890D01*
G01X11662Y3911D01*
G01X11638Y3934D01*
G01X9129Y6443D01*
G01X9116Y6453D01*
G01X9103Y6462D01*
G01X9088Y6468D01*
G01X9073Y6472D01*
G01X9057Y6473D01*
G01X4430Y6473D01*
G01X4409Y6471D01*
G01X4389Y6464D01*
G01X4353Y6450D01*
G01X4317Y6439D01*
G01X4279Y6430D01*
G01X4242Y6423D01*
G01X4203Y6419D01*
G01X4165Y6418D01*
G01X4131Y6419D01*
G01X4097Y6422D01*
G01X4063Y6427D01*
G01X4029Y6435D01*
G01X3996Y6444D01*
G01X3963Y6455D01*
G01X3932Y6469D01*
G01X3901Y6484D01*
G01X3871Y6501D01*
G01X3842Y6520D01*
G01X3815Y6540D01*
G01X3789Y6563D01*
G01X3764Y6586D01*
G01X3741Y6612D01*
G01X3719Y6638D01*
G01X3699Y6666D01*
G01X3681Y6695D01*
G01X3664Y6726D01*
G01X3650Y6757D01*
G01X3637Y6789D01*
G01X3626Y6821D01*
G01X3618Y6855D01*
G01X3611Y6888D01*
G01X3606Y6922D01*
G01X3604Y6937D01*
G01X3599Y6951D01*
G01X3592Y6964D01*
G01X3584Y6977D01*
G01X3562Y6997D01*
G01X3549Y7004D01*
G01X3535Y7009D01*
G01X3520Y7012D01*
G01X3505Y7014D01*
G01X3489Y7012D01*
G01X3474Y7009D01*
G01X3459Y7002D01*
G01X3446Y6994D01*
G01X3434Y6984D01*
G01X1882Y5430D01*
G01X1872Y5418D01*
G01X1863Y5405D01*
G01X1857Y5390D01*
G01X1853Y5375D01*
G01X1852Y5359D01*
G01X1852Y5169D01*
G01X1854Y5148D01*
G01X1861Y5128D01*
G01X1875Y5092D01*
G01X1886Y5056D01*
G01X1895Y5019D01*
G01X1902Y4981D01*
G01X1906Y4943D01*
G01X1907Y4904D01*
G01X1906Y4870D01*
G01X1903Y4837D01*
G01X1898Y4803D01*
G01X1891Y4770D01*
G01X1882Y4737D01*
G01X1871Y4705D01*
G01X1858Y4674D01*
G01X1843Y4643D01*
G01X1826Y4614D01*
G01X1808Y4585D01*
G01X1788Y4558D01*
G01X1766Y4532D01*
G01X1743Y4507D01*
G01X1718Y4484D01*
G01X1692Y4462D01*
G01X1665Y4442D01*
G01X1636Y4424D01*
G01X1607Y4407D01*
G01X1576Y4392D01*
G01X1545Y4379D01*
G01X1513Y4368D01*
G01X1480Y4359D01*
G01X1447Y4352D01*
G01X1413Y4347D01*
G01X1380Y4344D01*
G01X1346Y4343D01*
G01X1312Y4344D01*
G01X1278Y4347D01*
G01X1244Y4352D01*
G01X1211Y4359D01*
G01X1179Y4368D01*
G01X1147Y4379D01*
G01X1115Y4392D01*
G01X1085Y4407D01*
G01X1055Y4424D01*
G01X1027Y4442D01*
G01X999Y4462D01*
G01X973Y4484D01*
G01X949Y4507D01*
G01X925Y4532D01*
G01X904Y4558D01*
G01X884Y4585D01*
G01X865Y4614D01*
G01X848Y4643D01*
G01X834Y4674D01*
G01X821Y4705D01*
G01X810Y4737D01*
G01X800Y4770D01*
G01X793Y4803D01*
G01X788Y4837D01*
G01X785Y4870D01*
G01X784Y4904D01*
G01X785Y4943D01*
G01X789Y4981D01*
G01X796Y5019D01*
G01X805Y5056D01*
G01X817Y5092D01*
G01X831Y5128D01*
G01X837Y5148D01*
G01X839Y5169D01*
G01X839Y5610D01*
G01X840Y5643D01*
G01X843Y5676D01*
G01X849Y5709D01*
G01X856Y5741D01*
G01X866Y5773D01*
G01X878Y5804D01*
G01X891Y5834D01*
G01X907Y5863D01*
G01X924Y5892D01*
G01X944Y5919D01*
G01X965Y5944D01*
G01X987Y5968D01*
G01X3212Y8196D01*
G01X3237Y8219D01*
G01X3262Y8240D01*
G01X3289Y8259D01*
G01X3317Y8277D01*
G01X3347Y8292D01*
G01X3377Y8306D01*
G01X3408Y8318D01*
G01X3440Y8327D01*
G01X3472Y8335D01*
G01X3505Y8340D01*
G01X3538Y8343D01*
G01X3571Y8344D01*
G01X4305Y8344D01*
G01X4325Y8347D01*
G01X4345Y8353D01*
G01X4381Y8367D01*
G01X4417Y8379D01*
G01X4455Y8388D01*
G01X4492Y8394D01*
G01X4531Y8398D01*
G01X4569Y8399D01*
G01X4603Y8398D01*
G01X4637Y8395D01*
G01X4670Y8390D01*
G01X4703Y8383D01*
G01X4736Y8374D01*
G01X4768Y8363D01*
G01X4799Y8350D01*
G01X4830Y8335D01*
G01X4859Y8318D01*
G01X4888Y8300D01*
G01X4915Y8280D01*
G01X4941Y8258D01*
G01X4966Y8235D01*
G01X4989Y8210D01*
G01X5011Y8184D01*
G01X5031Y8157D01*
G01X5050Y8128D01*
G01X5066Y8099D01*
G01X5081Y8068D01*
G01X5094Y8037D01*
G01X5105Y8005D01*
G01X5114Y7972D01*
G01X5121Y7939D01*
G01X5126Y7906D01*
G01X5129Y7872D01*
G01X5131Y7838D01*
G01X5129Y7802D01*
G01X5126Y7766D01*
G01X5120Y7730D01*
G01X5112Y7695D01*
G01X5102Y7660D01*
G01X5089Y7626D01*
G01X5083Y7607D01*
G01X5081Y7588D01*
G01X5082Y7573D01*
G01X5086Y7559D01*
G01X5091Y7545D01*
G01X5098Y7533D01*
G01X5106Y7521D01*
G01X5116Y7511D01*
G01X5128Y7502D01*
G01X5141Y7495D01*
G01X5154Y7490D01*
G01X5169Y7487D01*
G01X5183Y7486D01*
G01X6004Y7486D01*
G01X6018Y7487D01*
G01X6033Y7490D01*
G01X6046Y7495D01*
G01X6059Y7502D01*
G01X6071Y7511D01*
G01X6081Y7521D01*
G01X6089Y7533D01*
G01X6096Y7545D01*
G01X6101Y7559D01*
G01X6105Y7573D01*
G01X6106Y7588D01*
G01X6104Y7603D01*
G01X6101Y7619D01*
G01X6095Y7634D01*
G01X6086Y7647D01*
G01X6076Y7659D01*
G01X2704Y11032D01*
G01X2687Y11045D01*
G01X2669Y11054D01*
G01X2631Y11071D01*
G01X2617Y11077D01*
G01X2602Y11080D01*
G01X2587Y11081D01*
G01X2572Y11080D01*
G01X2557Y11076D01*
G01X2542Y11071D01*
G01X2529Y11063D01*
G01X2517Y11053D01*
G01X2507Y11042D01*
G01X2498Y11029D01*
G01X2492Y11015D01*
G01X2473Y10969D01*
G01X2453Y10924D01*
G01X2430Y10880D01*
G01X2406Y10836D01*
G01X2380Y10794D01*
G01X2352Y10753D01*
G01X2323Y10713D01*
G01X2291Y10674D01*
G01X2258Y10637D01*
G01X2224Y10601D01*
G01X2188Y10567D01*
G01X2151Y10534D01*
G01X2112Y10503D01*
G01X2072Y10473D01*
G01X2031Y10445D01*
G01X1989Y10419D01*
G01X1945Y10395D01*
G01X1901Y10373D01*
G01X1855Y10352D01*
G01X1809Y10334D01*
G01X1762Y10317D01*
G01X1715Y10303D01*
G01X1667Y10290D01*
G01X1618Y10280D01*
G01X1569Y10271D01*
G01X1520Y10265D01*
G01X1470Y10261D01*
G01X1456Y10259D01*
G01X1442Y10255D01*
G01X1429Y10249D01*
G01X1417Y10242D01*
G01X1406Y10232D01*
G01X1397Y10222D01*
G01X1387Y10232D01*
G01X1376Y10242D01*
G01X1364Y10249D01*
G01X1351Y10255D01*
G01X1337Y10259D01*
G01X1323Y10261D01*
G01X1274Y10265D01*
G01X1226Y10271D01*
G01X1177Y10279D01*
G01X1130Y10289D01*
G01X1082Y10301D01*
G01X990Y10331D01*
G01X944Y10349D01*
G01X900Y10369D01*
G01X856Y10391D01*
G01X813Y10414D01*
G01X771Y10439D01*
G01X731Y10466D01*
G01X691Y10495D01*
G01X653Y10525D01*
G01X616Y10557D01*
G01X580Y10590D01*
G01X546Y10625D01*
G01X513Y10661D01*
G01X482Y10698D01*
G01X452Y10737D01*
G01X442Y10749D01*
G01X430Y10759D01*
G01X416Y10768D01*
G01X402Y10774D01*
G01X386Y10777D01*
G01X370Y10779D01*
G01X356Y10778D01*
G01X342Y10774D01*
G01X328Y10769D01*
G01X315Y10762D01*
G01X304Y10754D01*
G01X294Y10743D01*
G01X285Y10732D01*
G01X278Y10719D01*
G01X273Y10706D01*
G01X270Y10691D01*
G01X269Y10677D01*
G01X269Y9642D01*
G01X270Y9628D01*
G01X273Y9613D01*
G01X278Y9600D01*
G01X285Y9587D01*
G01X294Y9576D01*
G01X304Y9565D01*
G01X315Y9557D01*
G01X328Y9550D01*
G01X342Y9545D01*
G01X356Y9541D01*
G01X370Y9540D01*
G01X386Y9542D01*
G01X402Y9545D01*
G01X416Y9551D01*
G01X430Y9560D01*
G01X442Y9570D01*
G01X452Y9582D01*
G01X482Y9621D01*
G01X513Y9658D01*
G01X546Y9694D01*
G01X580Y9729D01*
G01X616Y9762D01*
G01X653Y9794D01*
G01X691Y9824D01*
G01X731Y9853D01*
G01X771Y9880D01*
G01X813Y9905D01*
G01X856Y9928D01*
G01X900Y9950D01*
G01X944Y9970D01*
G01X990Y9988D01*
G01X1082Y10018D01*
G01X1130Y10030D01*
G01X1177Y10040D01*
G01X1226Y10048D01*
G01X1274Y10054D01*
G01X1323Y10058D01*
G01X1337Y10060D01*
G01X1351Y10064D01*
G01X1364Y10070D01*
G01X1376Y10077D01*
G01X1387Y10087D01*
G01X1397Y10097D01*
G01X1406Y10087D01*
G01X1417Y10077D01*
G01X1429Y10070D01*
G01X1442Y10064D01*
G01X1456Y10060D01*
G01X1470Y10058D01*
G01X1519Y10054D01*
G01X1568Y10048D01*
G01X1616Y10040D01*
G01X1664Y10029D01*
G01X1712Y10017D01*
G01X1759Y10003D01*
G01X1805Y9987D01*
G01X1851Y9969D01*
G01X1895Y9949D01*
G01X1939Y9927D01*
G01X1982Y9903D01*
G01X2024Y9878D01*
G01X2065Y9851D01*
G01X2105Y9822D01*
G01X2143Y9792D01*
G01X2180Y9760D01*
G01X2216Y9726D01*
G01X2250Y9691D01*
G01X2283Y9654D01*
G01X2314Y9617D01*
G01X2344Y9578D01*
G01X2372Y9537D01*
G01X2398Y9496D01*
G01X2423Y9453D01*
G01X2445Y9410D01*
G01X2466Y9366D01*
G01X2485Y9320D01*
G01X2502Y9274D01*
G01X2517Y9228D01*
G01X2531Y9181D01*
G01X2542Y9133D01*
G01X2551Y9085D01*
G01X2558Y9036D01*
G01X2563Y8987D01*
G01X2566Y8939D01*
G01X2567Y8890D01*
G01X2566Y8840D01*
G01X2563Y8790D01*
G01X2558Y8741D01*
G01X2551Y8692D01*
G01X2541Y8643D01*
G01X2530Y8594D01*
G01X2516Y8547D01*
G01X2501Y8499D01*
G01X2483Y8453D01*
G01X2463Y8407D01*
G01X2442Y8362D01*
G01X2419Y8318D01*
G01X2394Y8276D01*
G01X2367Y8234D01*
G01X2338Y8193D01*
G01X2308Y8154D01*
G01X2275Y8116D01*
G01X2242Y8079D01*
G01X2207Y8044D01*
G01X2170Y8011D01*
G01X2132Y7978D01*
G01X2093Y7948D01*
G01X2052Y7919D01*
G01X2010Y7892D01*
G01X1968Y7867D01*
G01X1924Y7844D01*
G01X1879Y7823D01*
G01X1833Y7803D01*
G01X1787Y7785D01*
G01X1739Y7770D01*
G01X1692Y7756D01*
G01X1643Y7745D01*
G01X1594Y7735D01*
G01X1545Y7728D01*
G01X1496Y7723D01*
G01X1446Y7720D01*
G01X1397Y7719D01*
G01X1347Y7720D01*
G01X1297Y7723D01*
G01X1247Y7728D01*
G01X1198Y7736D01*
G01X1149Y7745D01*
G01X1100Y7757D01*
G01X1052Y7770D01*
G01X1005Y7786D01*
G01X958Y7804D01*
G01X912Y7823D01*
G01X867Y7845D01*
G01X823Y7869D01*
G01X780Y7894D01*
G01X738Y7921D01*
G01X698Y7950D01*
G01X658Y7981D01*
G01X620Y8013D01*
G01X583Y8047D01*
G01X548Y8082D01*
G01X515Y8119D01*
G01X483Y8157D01*
G01X452Y8197D01*
G01X442Y8209D01*
G01X430Y8219D01*
G01X416Y8228D01*
G01X402Y8234D01*
G01X386Y8237D01*
G01X370Y8239D01*
G01X356Y8238D01*
G01X342Y8234D01*
G01X328Y8229D01*
G01X315Y8222D01*
G01X304Y8214D01*
G01X294Y8203D01*
G01X285Y8192D01*
G01X278Y8179D01*
G01X273Y8166D01*
G01X270Y8151D01*
G01X269Y8137D01*
G01X269Y370D01*
G01X270Y356D01*
G01X273Y342D01*
G01X278Y328D01*
G01X285Y315D01*
G01X294Y304D01*
G01X304Y294D01*
G01X315Y285D01*
G01X328Y278D01*
G01X342Y273D01*
G01X356Y270D01*
G01X370Y269D01*
G01X22067Y269D01*
G01X22083Y270D01*
G01X22098Y274D01*
G01X22113Y280D01*
G01X22127Y288D01*
G01X22140Y280D01*
G01X22155Y274D01*
G01X22170Y270D01*
G01X22186Y269D01*
G01X23025Y269D01*
G01X23041Y270D01*
G01X23056Y274D01*
G01X23071Y280D01*
G01X23084Y288D01*
G01X23098Y280D01*
G01X23113Y274D01*
G01X23128Y270D01*
G01X23144Y269D01*
G01X25410Y269D01*
G01X25424Y270D01*
G01X25438Y273D01*
G01X25452Y278D01*
G01X25465Y285D01*
G01X25476Y294D01*
G01X25486Y304D01*
G01X25495Y315D01*
G01X25502Y328D01*
G01X25507Y342D01*
G01X25510Y356D01*
G01X25511Y370D01*
G01X25511Y8351D01*
G01X25510Y8366D01*
G01X25507Y8380D01*
G01X25502Y8394D01*
G01X25495Y8406D01*
G01X25486Y8418D01*
G01X25476Y8428D01*
G01X25465Y8437D01*
G01X25452Y8444D01*
G01X25438Y8449D01*
G01X25424Y8452D01*
G01X25410Y8453D01*
G01X25395Y8452D01*
G01X25381Y8449D01*
G01X25368Y8444D01*
G01X25355Y8437D01*
G01X25344Y8428D01*
G01X25333Y8418D01*
G01X25325Y8407D01*
G01X25318Y8394D01*
G01X25296Y8350D01*
G01X25272Y8307D01*
G01X25247Y8265D01*
G01X25220Y8224D01*
G01X25191Y8184D01*
G01X25161Y8145D01*
G01X25129Y8108D01*
G01X25095Y8072D01*
G01X25060Y8038D01*
G01X25023Y8005D01*
G01X24986Y7973D01*
G01X24946Y7943D01*
G01X24906Y7915D01*
G01X24865Y7889D01*
G01X24822Y7864D01*
G01X24779Y7841D01*
G01X24734Y7820D01*
G01X24689Y7801D01*
G01X24643Y7784D01*
G01X24596Y7769D01*
G01X24549Y7756D01*
G01X24501Y7744D01*
G01X24452Y7735D01*
G01X24404Y7728D01*
G01X24355Y7723D01*
G01X24306Y7720D01*
G01X24257Y7719D01*
G01X24207Y7720D01*
G01X24157Y7723D01*
G01X24108Y7728D01*
G01X24059Y7735D01*
G01X24010Y7745D01*
G01X23961Y7756D01*
G01X23914Y7770D01*
G01X23866Y7785D01*
G01X23820Y7803D01*
G01X23774Y7823D01*
G01X23729Y7844D01*
G01X23685Y7867D01*
G01X23643Y7892D01*
G01X23601Y7919D01*
G01X23560Y7948D01*
G01X23521Y7978D01*
G01X23483Y8011D01*
G01X23446Y8044D01*
G01X23411Y8079D01*
G01X23378Y8116D01*
G01X23345Y8154D01*
G01X23315Y8193D01*
G01X23286Y8234D01*
G01X23259Y8276D01*
G01X23234Y8318D01*
G01X23211Y8362D01*
G01X23190Y8407D01*
G01X23170Y8453D01*
G01X23152Y8499D01*
G01X23137Y8547D01*
G01X23123Y8594D01*
G01X23112Y8643D01*
G01X23102Y8692D01*
G01X23095Y8741D01*
G01X23090Y8790D01*
G01X23087Y8840D01*
G01X23086Y8889D01*
G01X23087Y8939D01*
G01X23090Y8987D01*
G01X23095Y9036D01*
G01X23102Y9085D01*
G01X23111Y9133D01*
G01X23122Y9181D01*
G01X23136Y9228D01*
G01X23151Y9274D01*
G01X23168Y9320D01*
G01X23187Y9366D01*
G01X23208Y9410D01*
G01X23230Y9453D01*
G01X23255Y9496D01*
G01X23281Y9537D01*
G01X23309Y9578D01*
G01X23339Y9617D01*
G01X23370Y9654D01*
G01X23403Y9691D01*
G01X23437Y9726D01*
G01X23473Y9760D01*
G01X23510Y9792D01*
G01X23548Y9822D01*
G01X23588Y9851D01*
G01X23629Y9878D01*
G01X23671Y9903D01*
G01X23714Y9927D01*
G01X23758Y9949D01*
G01X23802Y9969D01*
G01X23848Y9987D01*
G01X23894Y10003D01*
G01X23941Y10017D01*
G01X23989Y10029D01*
G01X24037Y10040D01*
G01X24085Y10048D01*
G01X24134Y10054D01*
G01X24183Y10058D01*
G01X24257Y10060D01*
G01X24330Y10058D01*
G01X24380Y10054D01*
G01X24430Y10047D01*
G01X24480Y10039D01*
G01X24529Y10028D01*
G01X24577Y10016D01*
G01X24625Y10001D01*
G01X24672Y9984D01*
G01X24719Y9965D01*
G01X24764Y9945D01*
G01X24809Y9922D01*
G01X24853Y9897D01*
G01X24896Y9871D01*
G01X24937Y9842D01*
G01X24977Y9812D01*
G01X25016Y9781D01*
G01X25053Y9747D01*
G01X25089Y9712D01*
G01X25124Y9676D01*
G01X25157Y9638D01*
G01X25188Y9599D01*
G01X25218Y9558D01*
G01X25245Y9517D01*
G01X25271Y9474D01*
G01X25295Y9430D01*
G01X25318Y9385D01*
G01X25325Y9372D01*
G01X25333Y9361D01*
G01X25344Y9351D01*
G01X25355Y9342D01*
G01X25368Y9335D01*
G01X25381Y9330D01*
G01X25395Y9327D01*
G01X25410Y9326D01*
G01X25424Y9327D01*
G01X25438Y9330D01*
G01X25452Y9335D01*
G01X25465Y9342D01*
G01X25476Y9351D01*
G01X25486Y9361D01*
G01X25495Y9373D01*
G01X25502Y9385D01*
G01X25507Y9399D01*
G01X25510Y9413D01*
G01X25511Y9428D01*
G01X25511Y10891D01*
G01X25510Y10907D01*
G01X25506Y10923D01*
G01X25500Y10937D01*
G01X25492Y10951D01*
G01X25500Y10964D01*
G01X25506Y10979D01*
G01X25510Y10995D01*
G01X25511Y11010D01*
G01X25511Y11849D01*
G01X25510Y11864D01*
G01X25506Y11880D01*
G01X25500Y11895D01*
G01X25492Y11908D01*
G01X25500Y11922D01*
G01X25506Y11936D01*
G01X25510Y11952D01*
G01X25511Y11968D01*
G01X25511Y13431D01*
G01X25510Y13446D01*
G01X25507Y13460D01*
G01X25502Y13474D01*
G01X25495Y13486D01*
G01X25486Y13498D01*
G01X25476Y13508D01*
G01X25465Y13517D01*
G01X25452Y13524D01*
G01X25438Y13529D01*
G01X25424Y13532D01*
G01X25410Y13533D01*
G01X25395Y13532D01*
G01X25381Y13529D01*
G01X25368Y13524D01*
G01X25355Y13517D01*
G01X25344Y13508D01*
G01X25333Y13498D01*
G01X25325Y13487D01*
G01X25318Y13474D01*
G01X25295Y13429D01*
G01X25271Y13385D01*
G01X25245Y13342D01*
G01X25218Y13301D01*
G01X25188Y13260D01*
G01X25157Y13221D01*
G01X25124Y13183D01*
G01X25089Y13147D01*
G01X25053Y13112D01*
G01X25016Y13078D01*
G01X24977Y13047D01*
G01X24937Y13017D01*
G01X24896Y12988D01*
G01X24853Y12962D01*
G01X24809Y12937D01*
G01X24764Y12914D01*
G01X24719Y12894D01*
G01X24672Y12875D01*
G01X24625Y12858D01*
G01X24577Y12843D01*
G01X24529Y12831D01*
G01X24480Y12820D01*
G01X24430Y12812D01*
G01X24380Y12805D01*
G01X24330Y12801D01*
G01X24257Y12799D01*
G01X24183Y12801D01*
G01X24134Y12805D01*
G01X24085Y12811D01*
G01X24037Y12819D01*
G01X23989Y12830D01*
G01X23941Y12842D01*
G01X23894Y12856D01*
G01X23848Y12872D01*
G01X23802Y12890D01*
G01X23758Y12910D01*
G01X23714Y12932D01*
G01X23671Y12956D01*
G01X23629Y12981D01*
G01X23588Y13008D01*
G01X23548Y13037D01*
G01X23510Y13067D01*
G01X23473Y13099D01*
G01X23437Y13133D01*
G01X23403Y13168D01*
G01X23370Y13205D01*
G01X23339Y13242D01*
G01X23309Y13281D01*
G01X23281Y13322D01*
G01X23255Y13363D01*
G01X23230Y13406D01*
G01X23208Y13449D01*
G01X23187Y13493D01*
G01X23168Y13539D01*
G01X23151Y13585D01*
G01X23136Y13631D01*
G01X23122Y13678D01*
G01X23111Y13726D01*
G01X23102Y13774D01*
G01X23095Y13823D01*
G01X23090Y13872D01*
G01X23087Y13920D01*
G01X23086Y13969D01*
G01X23087Y14019D01*
G01X23090Y14067D01*
G01X23095Y14116D01*
G01X23102Y14165D01*
G01X23111Y14213D01*
G01X23122Y14261D01*
G01X23136Y14308D01*
G01X23151Y14354D01*
G01X23168Y14400D01*
G01X23187Y14446D01*
G01X23208Y14490D01*
G01X23230Y14533D01*
G01X23255Y14576D01*
G01X23281Y14617D01*
G01X23309Y14658D01*
G01X23339Y14697D01*
G01X23370Y14734D01*
G01X23403Y14771D01*
G01X23437Y14806D01*
G01X23473Y14840D01*
G01X23510Y14872D01*
G01X23548Y14902D01*
G01X23588Y14931D01*
G01X23629Y14958D01*
G01X23671Y14983D01*
G01X23714Y15007D01*
G01X23758Y15029D01*
G01X23802Y15049D01*
G01X23848Y15067D01*
G01X23894Y15083D01*
G01X23941Y15097D01*
G01X23989Y15109D01*
G01X24037Y15120D01*
G01X24085Y15128D01*
G01X24134Y15134D01*
G01X24183Y15138D01*
G01X24197Y15140D01*
G01X24211Y15144D01*
G01X24224Y15150D01*
G01X24236Y15157D01*
G01X24247Y15167D01*
G01X24257Y15177D01*
G01X24266Y15167D01*
G01X24277Y15157D01*
G01X24289Y15150D01*
G01X24302Y15144D01*
G01X24316Y15140D01*
G01X24330Y15138D01*
G01X24380Y15134D01*
G01X24430Y15127D01*
G01X24480Y15119D01*
G01X24529Y15108D01*
G01X24577Y15096D01*
G01X24625Y15081D01*
G01X24672Y15064D01*
G01X24719Y15045D01*
G01X24764Y15025D01*
G01X24809Y15002D01*
G01X24853Y14977D01*
G01X24896Y14951D01*
G01X24937Y14922D01*
G01X24977Y14892D01*
G01X25016Y14861D01*
G01X25053Y14827D01*
G01X25089Y14792D01*
G01X25124Y14756D01*
G01X25157Y14718D01*
G01X25188Y14679D01*
G01X25218Y14638D01*
G01X25245Y14597D01*
G01X25271Y14554D01*
G01X25295Y14510D01*
G01X25318Y14465D01*
G01X25325Y14452D01*
G01X25333Y14441D01*
G01X25344Y14431D01*
G01X25355Y14422D01*
G01X25368Y14415D01*
G01X25381Y14410D01*
G01X25395Y14407D01*
G01X25410Y14406D01*
G01X25424Y14407D01*
G01X25438Y14410D01*
G01X25452Y14415D01*
G01X25465Y14422D01*
G01X25476Y14431D01*
G01X25486Y14441D01*
G01X25495Y14453D01*
G01X25502Y14465D01*
G01X25507Y14479D01*
G01X25510Y14493D01*
G01X25511Y14508D01*
G01X25511Y15971D01*
G01X25510Y15986D01*
G01X25507Y16000D01*
G01X25502Y16014D01*
G01X25495Y16026D01*
G01X25486Y16038D01*
G01X25476Y16048D01*
G01X25465Y16057D01*
G01X25452Y16064D01*
G01X25438Y16069D01*
G01X25424Y16072D01*
G01X25410Y16073D01*
G01X25395Y16072D01*
G01X25381Y16069D01*
G01X25368Y16064D01*
G01X25355Y16057D01*
G01X25344Y16048D01*
G01X25333Y16038D01*
G01X25325Y16027D01*
G01X25318Y16014D01*
G01X25295Y15969D01*
G01X25271Y15925D01*
G01X25245Y15882D01*
G01X25218Y15841D01*
G01X25188Y15800D01*
G01X25157Y15761D01*
G01X25124Y15723D01*
G01X25089Y15687D01*
G01X25053Y15652D01*
G01X25016Y15618D01*
G01X24977Y15587D01*
G01X24937Y15557D01*
G01X24896Y15528D01*
G01X24853Y15502D01*
G01X24809Y15477D01*
G01X24764Y15454D01*
G01X24719Y15434D01*
G01X24672Y15415D01*
G01X24625Y15398D01*
G01X24577Y15383D01*
G01X24529Y15371D01*
G01X24480Y15360D01*
G01X24430Y15352D01*
G01X24380Y15345D01*
G01X24330Y15341D01*
G01X24316Y15339D01*
G01X24302Y15335D01*
G01X24289Y15329D01*
G01X24277Y15322D01*
G01X24266Y15312D01*
G01X24257Y15302D01*
G01X24247Y15312D01*
G01X24236Y15322D01*
G01X24224Y15329D01*
G01X24211Y15335D01*
G01X24197Y15339D01*
G01X24183Y15341D01*
G01X24134Y15345D01*
G01X24085Y15351D01*
G01X24037Y15359D01*
G01X23989Y15370D01*
G01X23941Y15382D01*
G01X23894Y15396D01*
G01X23848Y15412D01*
G01X23802Y15430D01*
G01X23758Y15450D01*
G01X23714Y15472D01*
G01X23671Y15496D01*
G01X23629Y15521D01*
G01X23588Y15548D01*
G01X23548Y15577D01*
G01X23510Y15607D01*
G01X23473Y15639D01*
G01X23437Y15673D01*
G01X23403Y15708D01*
G01X23370Y15745D01*
G01X23339Y15782D01*
G01X23309Y15821D01*
G01X23281Y15862D01*
G01X23255Y15903D01*
G01X23230Y15946D01*
G01X23208Y15989D01*
G01X23187Y16033D01*
G01X23168Y16079D01*
G01X23151Y16125D01*
G01X23136Y16171D01*
G01X23122Y16218D01*
G01X23111Y16266D01*
G01X23102Y16314D01*
G01X23095Y16363D01*
G01X23090Y16412D01*
G01X23087Y16460D01*
G01X23086Y16509D01*
G01X23087Y16559D01*
G01X23090Y16607D01*
G01X23095Y16656D01*
G01X23102Y16705D01*
G01X23111Y16753D01*
G01X23122Y16801D01*
G01X23136Y16848D01*
G01X23151Y16894D01*
G01X23168Y16940D01*
G01X23187Y16986D01*
G01X23208Y17030D01*
G01X23230Y17073D01*
G01X23255Y17116D01*
G01X23281Y17157D01*
G01X23309Y17198D01*
G01X23339Y17237D01*
G01X23370Y17274D01*
G01X23403Y17311D01*
G01X23437Y17346D01*
G01X23473Y17380D01*
G01X23510Y17412D01*
G01X23548Y17442D01*
G01X23588Y17471D01*
G01X23629Y17498D01*
G01X23671Y17523D01*
G01X23714Y17547D01*
G01X23758Y17569D01*
G01X23802Y17589D01*
G01X23848Y17607D01*
G01X23894Y17623D01*
G01X23941Y17637D01*
G01X23989Y17649D01*
G01X24037Y17660D01*
G01X24085Y17668D01*
G01X24134Y17674D01*
G01X24183Y17678D01*
G01X24197Y17680D01*
G01X24211Y17684D01*
G01X24224Y17690D01*
G01X24236Y17697D01*
G01X24247Y17707D01*
G01X24257Y17717D01*
G01X24266Y17707D01*
G01X24277Y17697D01*
G01X24289Y17690D01*
G01X24302Y17684D01*
G01X24316Y17680D01*
G01X24330Y17678D01*
G01X24380Y17674D01*
G01X24430Y17667D01*
G01X24480Y17659D01*
G01X24529Y17648D01*
G01X24577Y17636D01*
G01X24625Y17621D01*
G01X24672Y17604D01*
G01X24719Y17585D01*
G01X24764Y17565D01*
G01X24809Y17542D01*
G01X24853Y17517D01*
G01X24896Y17491D01*
G01X24937Y17462D01*
G01X24977Y17432D01*
G01X25016Y17401D01*
G01X25053Y17367D01*
G01X25089Y17332D01*
G01X25124Y17296D01*
G01X25157Y17258D01*
G01X25188Y17219D01*
G01X25218Y17178D01*
G01X25245Y17137D01*
G01X25271Y17094D01*
G01X25295Y17050D01*
G01X25318Y17005D01*
G01X25325Y16992D01*
G01X25333Y16981D01*
G01X25344Y16971D01*
G01X25355Y16962D01*
G01X25368Y16955D01*
G01X25381Y16950D01*
G01X25395Y16947D01*
G01X25410Y16946D01*
G01X25424Y16947D01*
G01X25438Y16950D01*
G01X25452Y16955D01*
G01X25465Y16962D01*
G01X25476Y16971D01*
G01X25486Y16981D01*
G01X25495Y16993D01*
G01X25502Y17005D01*
G01X25507Y17019D01*
G01X25510Y17033D01*
G01X25511Y17048D01*
G01X25511Y18511D01*
G01X25510Y18526D01*
G01X25507Y18540D01*
G01X25502Y18554D01*
G01X25495Y18566D01*
G01X25486Y18578D01*
G01X25476Y18588D01*
G01X25465Y18597D01*
G01X25452Y18604D01*
G01X25438Y18609D01*
G01X25424Y18612D01*
G01X25410Y18613D01*
G01X25395Y18612D01*
G01X25381Y18609D01*
G01X25368Y18604D01*
G01X25355Y18597D01*
G01X25344Y18588D01*
G01X25333Y18578D01*
G01X25325Y18567D01*
G01X25318Y18554D01*
G01X25295Y18509D01*
G01X25271Y18465D01*
G01X25245Y18422D01*
G01X25218Y18381D01*
G01X25188Y18340D01*
G01X25157Y18301D01*
G01X25124Y18263D01*
G01X25089Y18227D01*
G01X25053Y18192D01*
G01X25016Y18158D01*
G01X24977Y18127D01*
G01X24937Y18097D01*
G01X24896Y18068D01*
G01X24853Y18042D01*
G01X24809Y18017D01*
G01X24764Y17994D01*
G01X24719Y17974D01*
G01X24672Y17955D01*
G01X24625Y17938D01*
G01X24577Y17923D01*
G01X24529Y17911D01*
G01X24480Y17900D01*
G01X24430Y17892D01*
G01X24380Y17885D01*
G01X24330Y17881D01*
G01X24316Y17879D01*
G01X24302Y17875D01*
G01X24289Y17869D01*
G01X24277Y17862D01*
G01X24266Y17852D01*
G01X24257Y17842D01*
G01X24247Y17852D01*
G01X24236Y17862D01*
G01X24224Y17869D01*
G01X24211Y17875D01*
G01X24197Y17879D01*
G01X24183Y17881D01*
G01X24134Y17885D01*
G01X24085Y17891D01*
G01X24037Y17899D01*
G01X23989Y17910D01*
G01X23941Y17922D01*
G01X23894Y17936D01*
G01X23848Y17952D01*
G01X23802Y17970D01*
G01X23758Y17990D01*
G01X23714Y18012D01*
G01X23671Y18036D01*
G01X23629Y18061D01*
G01X23588Y18088D01*
G01X23548Y18117D01*
G01X23510Y18147D01*
G01X23473Y18179D01*
G01X23437Y18213D01*
G01X23403Y18248D01*
G01X23370Y18285D01*
G01X23339Y18322D01*
G01X23309Y18361D01*
G01X23281Y18402D01*
G01X23255Y18443D01*
G01X23230Y18486D01*
G01X23208Y18529D01*
G01X23187Y18573D01*
G01X23168Y18619D01*
G01X23151Y18665D01*
G01X23136Y18711D01*
G01X23122Y18758D01*
G01X23111Y18806D01*
G01X23102Y18854D01*
G01X23095Y18903D01*
G01X23090Y18952D01*
G01X23087Y19000D01*
G01X23086Y19049D01*
G01X23087Y19099D01*
G01X23090Y19147D01*
G01X23095Y19196D01*
G01X23102Y19245D01*
G01X23111Y19293D01*
G01X23122Y19341D01*
G01X23136Y19388D01*
G01X23151Y19434D01*
G01X23168Y19480D01*
G01X23187Y19526D01*
G01X23208Y19570D01*
G01X23230Y19613D01*
G01X23255Y19656D01*
G01X23281Y19697D01*
G01X23309Y19738D01*
G01X23339Y19777D01*
G01X23370Y19814D01*
G01X23403Y19851D01*
G01X23437Y19886D01*
G01X23473Y19920D01*
G01X23510Y19952D01*
G01X23548Y19982D01*
G01X23588Y20011D01*
G01X23629Y20038D01*
G01X23671Y20063D01*
G01X23714Y20087D01*
G01X23758Y20109D01*
G01X23802Y20129D01*
G01X23848Y20147D01*
G01X23894Y20163D01*
G01X23941Y20177D01*
G01X23989Y20189D01*
G01X24037Y20200D01*
G01X24085Y20208D01*
G01X24134Y20214D01*
G01X24183Y20218D01*
G01X24197Y20220D01*
G01X24211Y20224D01*
G01X24224Y20230D01*
G01X24236Y20237D01*
G01X24247Y20247D01*
G01X24257Y20257D01*
G01X24266Y20247D01*
G01X24277Y20237D01*
G01X24289Y20230D01*
G01X24302Y20224D01*
G01X24316Y20220D01*
G01X24330Y20218D01*
G01X24380Y20214D01*
G01X24430Y20207D01*
G01X24480Y20199D01*
G01X24529Y20188D01*
G01X24577Y20176D01*
G01X24625Y20161D01*
G01X24672Y20144D01*
G01X24719Y20125D01*
G01X24764Y20105D01*
G01X24809Y20082D01*
G01X24853Y20057D01*
G01X24896Y20031D01*
G01X24937Y20002D01*
G01X24977Y19972D01*
G01X25016Y19941D01*
G01X25053Y19907D01*
G01X25089Y19872D01*
G01X25124Y19836D01*
G01X25157Y19798D01*
G01X25188Y19759D01*
G01X25218Y19718D01*
G01X25245Y19677D01*
G01X25271Y19634D01*
G01X25295Y19590D01*
G01X25318Y19545D01*
G01X25325Y19532D01*
G01X25333Y19521D01*
G01X25344Y19511D01*
G01X25355Y19502D01*
G01X25368Y19495D01*
G01X25381Y19490D01*
G01X25395Y19487D01*
G01X25410Y19486D01*
G01X25424Y19487D01*
G01X25438Y19490D01*
G01X25452Y19495D01*
G01X25465Y19502D01*
G01X25476Y19511D01*
G01X25486Y19521D01*
G01X25495Y19533D01*
G01X25502Y19545D01*
G01X25507Y19559D01*
G01X25510Y19573D01*
G01X25511Y19588D01*
G01X25511Y21051D01*
G01X25510Y21066D01*
G01X25507Y21080D01*
G01X25502Y21094D01*
G01X25495Y21106D01*
G01X25486Y21118D01*
G01X25476Y21128D01*
G01X25465Y21137D01*
G01X25452Y21144D01*
G01X25438Y21149D01*
G01X25424Y21152D01*
G01X25410Y21153D01*
G01X25395Y21152D01*
G01X25381Y21149D01*
G01X25368Y21144D01*
G01X25355Y21137D01*
G01X25344Y21128D01*
G01X25333Y21118D01*
G01X25325Y21107D01*
G01X25318Y21094D01*
G01X25295Y21049D01*
G01X25271Y21005D01*
G01X25245Y20962D01*
G01X25218Y20921D01*
G01X25188Y20880D01*
G01X25157Y20841D01*
G01X25124Y20803D01*
G01X25089Y20767D01*
G01X25053Y20732D01*
G01X25016Y20698D01*
G01X24977Y20667D01*
G01X24937Y20637D01*
G01X24896Y20608D01*
G01X24853Y20582D01*
G01X24809Y20557D01*
G01X24764Y20534D01*
G01X24719Y20514D01*
G01X24672Y20495D01*
G01X24625Y20478D01*
G01X24577Y20463D01*
G01X24529Y20451D01*
G01X24480Y20440D01*
G01X24430Y20432D01*
G01X24380Y20425D01*
G01X24330Y20421D01*
G01X24316Y20419D01*
G01X24302Y20415D01*
G01X24289Y20409D01*
G01X24277Y20402D01*
G01X24266Y20392D01*
G01X24257Y20382D01*
G01X24247Y20392D01*
G01X24236Y20402D01*
G01X24224Y20409D01*
G01X24211Y20415D01*
G01X24197Y20419D01*
G01X24183Y20421D01*
G01X24134Y20425D01*
G01X24085Y20431D01*
G01X24037Y20439D01*
G01X23989Y20450D01*
G01X23941Y20462D01*
G01X23894Y20476D01*
G01X23848Y20492D01*
G01X23802Y20510D01*
G01X23758Y20530D01*
G01X23714Y20552D01*
G01X23671Y20576D01*
G01X23629Y20601D01*
G01X23588Y20628D01*
G01X23548Y20657D01*
G01X23510Y20687D01*
G01X23473Y20719D01*
G01X23437Y20753D01*
G01X23403Y20788D01*
G01X23370Y20825D01*
G01X23339Y20862D01*
G01X23309Y20901D01*
G01X23281Y20942D01*
G01X23255Y20983D01*
G01X23230Y21026D01*
G01X23208Y21069D01*
G01X23187Y21113D01*
G01X23168Y21159D01*
G01X23151Y21205D01*
G01X23136Y21251D01*
G01X23122Y21298D01*
G01X23111Y21346D01*
G01X23102Y21394D01*
G01X23095Y21443D01*
G01X23090Y21492D01*
G01X23087Y21540D01*
G01X23086Y21589D01*
G01X23087Y21639D01*
G01X23090Y21687D01*
G01X23095Y21736D01*
G01X23102Y21785D01*
G01X23111Y21833D01*
G01X23122Y21881D01*
G01X23136Y21928D01*
G01X23151Y21974D01*
G01X23168Y22020D01*
G01X23187Y22066D01*
G01X23208Y22110D01*
G01X23230Y22153D01*
G01X23255Y22196D01*
G01X23281Y22237D01*
G01X23309Y22278D01*
G01X23339Y22317D01*
G01X23370Y22354D01*
G01X23403Y22391D01*
G01X23437Y22426D01*
G01X23473Y22460D01*
G01X23510Y22492D01*
G01X23548Y22522D01*
G01X23588Y22551D01*
G01X23629Y22578D01*
G01X23671Y22603D01*
G01X23714Y22627D01*
G01X23758Y22649D01*
G01X23802Y22669D01*
G01X23848Y22687D01*
G01X23894Y22703D01*
G01X23941Y22717D01*
G01X23989Y22729D01*
G01X24037Y22740D01*
G01X24085Y22748D01*
G01X24134Y22754D01*
G01X24183Y22758D01*
G01X24197Y22760D01*
G01X24211Y22764D01*
G01X24224Y22770D01*
G01X24236Y22777D01*
G01X24247Y22787D01*
G01X24257Y22797D01*
G01X24266Y22787D01*
G01X24277Y22777D01*
G01X24289Y22770D01*
G01X24302Y22764D01*
G01X24316Y22760D01*
G01X24330Y22758D01*
G01X24380Y22754D01*
G01X24430Y22747D01*
G01X24480Y22739D01*
G01X24529Y22728D01*
G01X24577Y22716D01*
G01X24625Y22701D01*
G01X24672Y22684D01*
G01X24719Y22665D01*
G01X24764Y22645D01*
G01X24809Y22622D01*
G01X24853Y22597D01*
G01X24896Y22571D01*
G01X24937Y22542D01*
G01X24977Y22512D01*
G01X25016Y22481D01*
G01X25053Y22447D01*
G01X25089Y22412D01*
G01X25124Y22376D01*
G01X25157Y22338D01*
G01X25188Y22299D01*
G01X25218Y22258D01*
G01X25245Y22217D01*
G01X25271Y22174D01*
G01X25295Y22130D01*
G01X25318Y22085D01*
G01X25325Y22072D01*
G01X25333Y22061D01*
G01X25344Y22051D01*
G01X25355Y22042D01*
G01X25368Y22035D01*
G01X25381Y22030D01*
G01X25395Y22027D01*
G01X25410Y22026D01*
G01X25424Y22027D01*
G01X25438Y22030D01*
G01X25452Y22035D01*
G01X25465Y22042D01*
G01X25476Y22051D01*
G01X25486Y22061D01*
G01X25495Y22073D01*
G01X25502Y22085D01*
G01X25507Y22099D01*
G01X25510Y22113D01*
G01X25511Y22128D01*
G01X25511Y23591D01*
G01X25510Y23606D01*
G01X25507Y23620D01*
G01X25502Y23634D01*
G01X25495Y23646D01*
G01X25486Y23658D01*
G01X25476Y23668D01*
G01X25465Y23677D01*
G01X25452Y23684D01*
G01X25438Y23689D01*
G01X25424Y23692D01*
G01X25410Y23693D01*
G01X25395Y23692D01*
G01X25381Y23689D01*
G01X25368Y23684D01*
G01X25355Y23677D01*
G01X25344Y23668D01*
G01X25333Y23658D01*
G01X25325Y23647D01*
G01X25318Y23634D01*
G01X25295Y23589D01*
G01X25271Y23545D01*
G01X25245Y23502D01*
G01X25218Y23461D01*
G01X25188Y23420D01*
G01X25157Y23381D01*
G01X25124Y23343D01*
G01X25089Y23307D01*
G01X25053Y23272D01*
G01X25016Y23238D01*
G01X24977Y23207D01*
G01X24937Y23177D01*
G01X24896Y23148D01*
G01X24853Y23122D01*
G01X24809Y23097D01*
G01X24764Y23074D01*
G01X24719Y23054D01*
G01X24672Y23035D01*
G01X24625Y23018D01*
G01X24577Y23003D01*
G01X24529Y22991D01*
G01X24480Y22980D01*
G01X24430Y22972D01*
G01X24380Y22965D01*
G01X24330Y22961D01*
G01X24316Y22959D01*
G01X24302Y22955D01*
G01X24289Y22949D01*
G01X24277Y22942D01*
G01X24266Y22932D01*
G01X24257Y22922D01*
G01X24247Y22932D01*
G01X24236Y22942D01*
G01X24224Y22949D01*
G01X24211Y22955D01*
G01X24197Y22959D01*
G01X24183Y22961D01*
G01X24134Y22965D01*
G01X24085Y22971D01*
G01X24037Y22979D01*
G01X23989Y22990D01*
G01X23941Y23002D01*
G01X23894Y23016D01*
G01X23848Y23032D01*
G01X23802Y23050D01*
G01X23758Y23070D01*
G01X23714Y23092D01*
G01X23671Y23116D01*
G01X23629Y23141D01*
G01X23588Y23168D01*
G01X23548Y23197D01*
G01X23510Y23227D01*
G01X23473Y23259D01*
G01X23437Y23293D01*
G01X23403Y23328D01*
G01X23370Y23365D01*
G01X23339Y23402D01*
G01X23309Y23441D01*
G01X23281Y23482D01*
G01X23255Y23523D01*
G01X23230Y23566D01*
G01X23208Y23609D01*
G01X23187Y23653D01*
G01X23168Y23699D01*
G01X23151Y23745D01*
G01X23136Y23791D01*
G01X23122Y23838D01*
G01X23111Y23886D01*
G01X23102Y23934D01*
G01X23095Y23983D01*
G01X23090Y24032D01*
G01X23087Y24080D01*
G01X23086Y24129D01*
G01X23087Y24179D01*
G01X23090Y24227D01*
G01X23095Y24276D01*
G01X23102Y24325D01*
G01X23111Y24373D01*
G01X23122Y24421D01*
G01X23135Y24468D01*
G01X23151Y24514D01*
G01X23168Y24560D01*
G01X23187Y24605D01*
G01X23208Y24650D01*
G01X23230Y24693D01*
G01X23255Y24736D01*
G01X23281Y24777D01*
G01X23309Y24817D01*
G01X23339Y24856D01*
G01X23370Y24894D01*
G01X23403Y24931D01*
G01X23437Y24966D01*
G01X23473Y24999D01*
G01X23510Y25031D01*
G01X23548Y25062D01*
G01X23588Y25091D01*
G01X23628Y25118D01*
G01X23670Y25143D01*
G01X23713Y25167D01*
G01X23757Y25189D01*
G01X23802Y25209D01*
G01X23847Y25227D01*
G01X23894Y25243D01*
G01X23941Y25257D01*
G01X23988Y25269D01*
G01X24036Y25279D01*
G01X24084Y25288D01*
G01X24133Y25294D01*
G01X24182Y25298D01*
G01X24196Y25300D01*
G01X24210Y25304D01*
G01X24224Y25310D01*
G01X24236Y25318D01*
G01X24247Y25327D01*
G01X24256Y25338D01*
G01X24266Y25327D01*
G01X24277Y25318D01*
G01X24289Y25310D01*
G01X24303Y25304D01*
G01X24317Y25300D01*
G01X24331Y25298D01*
G01X24381Y25294D01*
G01X24431Y25287D01*
G01X24480Y25279D01*
G01X24529Y25268D01*
G01X24578Y25256D01*
G01X24626Y25241D01*
G01X24673Y25224D01*
G01X24719Y25205D01*
G01X24765Y25184D01*
G01X24810Y25162D01*
G01X24853Y25137D01*
G01X24896Y25110D01*
G01X24937Y25082D01*
G01X24977Y25052D01*
G01X25016Y25021D01*
G01X25054Y24987D01*
G01X25090Y24952D01*
G01X25124Y24916D01*
G01X25157Y24878D01*
G01X25188Y24839D01*
G01X25218Y24798D01*
G01X25245Y24756D01*
G01X25271Y24714D01*
G01X25295Y24670D01*
G01X25318Y24625D01*
G01X25325Y24612D01*
G01X25333Y24601D01*
G01X25344Y24591D01*
G01X25355Y24582D01*
G01X25368Y24575D01*
G01X25381Y24570D01*
G01X25395Y24567D01*
G01X25410Y24566D01*
G01X25424Y24567D01*
G01X25438Y24570D01*
G01X25452Y24575D01*
G01X25465Y24582D01*
G01X25476Y24591D01*
G01X25486Y24601D01*
G01X25495Y24613D01*
G01X25502Y24625D01*
G01X25507Y24639D01*
G01X25510Y24653D01*
G01X25511Y24668D01*
G01X25511Y26131D01*
G01X25510Y26146D01*
G01X25507Y26160D01*
G01X25502Y26173D01*
G01X25495Y26186D01*
G01X25486Y26198D01*
G01X25476Y26208D01*
G01X25465Y26217D01*
G01X25452Y26224D01*
G01X25438Y26229D01*
G01X25424Y26232D01*
G01X25410Y26233D01*
G01X25395Y26232D01*
G01X25381Y26229D01*
G01X25368Y26224D01*
G01X25355Y26217D01*
G01X25344Y26208D01*
G01X25333Y26198D01*
G01X25325Y26187D01*
G01X25318Y26174D01*
G01X25295Y26129D01*
G01X25271Y26085D01*
G01X25245Y26042D01*
G01X25218Y26001D01*
G01X25188Y25960D01*
G01X25157Y25921D01*
G01X25124Y25883D01*
G01X25090Y25847D01*
G01X25054Y25812D01*
G01X25016Y25778D01*
G01X24977Y25747D01*
G01X24937Y25717D01*
G01X24896Y25688D01*
G01X24853Y25662D01*
G01X24810Y25637D01*
G01X24765Y25615D01*
G01X24719Y25594D01*
G01X24673Y25575D01*
G01X24626Y25558D01*
G01X24578Y25543D01*
G01X24529Y25531D01*
G01X24480Y25520D01*
G01X24431Y25512D01*
G01X24381Y25505D01*
G01X24331Y25501D01*
G01X24317Y25499D01*
G01X24303Y25495D01*
G01X24289Y25489D01*
G01X24277Y25481D01*
G01X24266Y25472D01*
G01X24257Y25461D01*
G01X24256Y25461D01*
G01X24247Y25472D01*
G01X24236Y25481D01*
G01X24224Y25489D01*
G01X24210Y25495D01*
G01X24196Y25499D01*
G01X24182Y25501D01*
G01X24133Y25505D01*
G01X24084Y25511D01*
G01X24036Y25519D01*
G01X23988Y25530D01*
G01X23941Y25542D01*
G01X23894Y25556D01*
G01X23847Y25572D01*
G01X23802Y25590D01*
G01X23757Y25610D01*
G01X23713Y25632D01*
G01X23670Y25656D01*
G01X23628Y25681D01*
G01X23588Y25708D01*
G01X23548Y25737D01*
G01X23510Y25768D01*
G01X23472Y25800D01*
G01X23437Y25833D01*
G01X23402Y25868D01*
G01X23370Y25905D01*
G01X23338Y25943D01*
G01X23309Y25982D01*
G01X23281Y26022D01*
G01X23255Y26063D01*
G01X23230Y26106D01*
G01X23207Y26149D01*
G01X23187Y26193D01*
G01X23168Y26239D01*
G01X23151Y26285D01*
G01X23135Y26331D01*
G01X23122Y26378D01*
G01X23111Y26426D01*
G01X23102Y26474D01*
G01X23095Y26523D01*
G01X23090Y26572D01*
G01X23086Y26620D01*
G01X23085Y26670D01*
G01X23087Y26719D01*
G01X23090Y26769D01*
G01X23095Y26818D01*
G01X23102Y26867D01*
G01X23112Y26916D01*
G01X23123Y26965D01*
G01X23137Y27012D01*
G01X23152Y27060D01*
G01X23170Y27106D01*
G01X23189Y27152D01*
G01X23211Y27197D01*
G01X23234Y27241D01*
G01X23259Y27283D01*
G01X23286Y27325D01*
G01X23315Y27366D01*
G01X23345Y27405D01*
G01X23377Y27443D01*
G01X23411Y27480D01*
G01X23446Y27515D01*
G01X23483Y27549D01*
G01X23521Y27581D01*
G01X23560Y27611D01*
G01X23601Y27640D01*
G01X23643Y27667D01*
G01X23685Y27692D01*
G01X23729Y27715D01*
G01X23774Y27737D01*
G01X23820Y27756D01*
G01X23866Y27774D01*
G01X23914Y27789D01*
G01X23961Y27803D01*
G01X24010Y27814D01*
G01X24059Y27824D01*
G01X24108Y27831D01*
G01X24157Y27836D01*
G01X24207Y27839D01*
G01X24257Y27841D01*
G01X24306Y27840D01*
G01X24355Y27836D01*
G01X24404Y27831D01*
G01X24452Y27824D01*
G01X24501Y27815D01*
G01X24548Y27804D01*
G01X24596Y27790D01*
G01X24643Y27775D01*
G01X24689Y27758D01*
G01X24734Y27739D01*
G01X24778Y27718D01*
G01X24822Y27695D01*
G01X24865Y27670D01*
G01X24906Y27644D01*
G01X24946Y27616D01*
G01X24986Y27586D01*
G01X25023Y27555D01*
G01X25060Y27522D01*
G01X25095Y27487D01*
G01X25129Y27451D01*
G01X25161Y27414D01*
G01X25191Y27375D01*
G01X25220Y27335D01*
G01X25247Y27294D01*
G01X25272Y27252D01*
G01X25296Y27209D01*
G01X25318Y27165D01*
G01X25325Y27152D01*
G01X25333Y27141D01*
G01X25344Y27131D01*
G01X25355Y27122D01*
G01X25368Y27115D01*
G01X25381Y27110D01*
G01X25395Y27107D01*
G01X25410Y27106D01*
G01X25424Y27107D01*
G01X25438Y27110D01*
G01X25452Y27115D01*
G01X25465Y27122D01*
G01X25476Y27131D01*
G01X25486Y27141D01*
G01X25495Y27153D01*
G01X25502Y27166D01*
G01X25507Y27179D01*
G01X25510Y27193D01*
G01X25511Y27208D01*
G01X25511Y33919D01*
G01X25510Y33933D01*
G01X25507Y33947D01*
G01X25502Y33961D01*
G01X25495Y33974D01*
G01X25486Y33985D01*
G01X25476Y33995D01*
G01X25465Y34004D01*
G01X25452Y34011D01*
G01X25438Y34016D01*
G01X25424Y34019D01*
G01X25410Y34020D01*
G37*

%LPC*%
G36*
G01X14526Y32793D02*
G01X14478Y32794D01*
G01X14428Y32792D01*
G01X14378Y32789D01*
G01X14329Y32784D01*
G01X14280Y32777D01*
G01X14231Y32767D01*
G01X14182Y32756D01*
G01X14135Y32742D01*
G01X14087Y32727D01*
G01X14041Y32709D01*
G01X13995Y32690D01*
G01X13950Y32668D01*
G01X13906Y32645D01*
G01X13864Y32620D01*
G01X13822Y32593D01*
G01X13781Y32564D01*
G01X13742Y32534D01*
G01X13704Y32502D01*
G01X13667Y32468D01*
G01X13632Y32433D01*
G01X13598Y32396D01*
G01X13566Y32358D01*
G01X13536Y32319D01*
G01X13507Y32278D01*
G01X13480Y32236D01*
G01X13455Y32194D01*
G01X13432Y32150D01*
G01X13410Y32105D01*
G01X13391Y32059D01*
G01X13373Y32013D01*
G01X13358Y31965D01*
G01X13344Y31918D01*
G01X13333Y31869D01*
G01X13323Y31820D01*
G01X13316Y31771D01*
G01X13311Y31722D01*
G01X13308Y31672D01*
G01X13306Y31623D01*
G01X13308Y31573D01*
G01X13311Y31523D01*
G01X13316Y31474D01*
G01X13323Y31425D01*
G01X13333Y31376D01*
G01X13344Y31327D01*
G01X13358Y31280D01*
G01X13373Y31232D01*
G01X13391Y31186D01*
G01X13410Y31140D01*
G01X13432Y31095D01*
G01X13455Y31051D01*
G01X13480Y31009D01*
G01X13507Y30967D01*
G01X13536Y30926D01*
G01X13566Y30887D01*
G01X13598Y30849D01*
G01X13632Y30812D01*
G01X13667Y30777D01*
G01X13704Y30743D01*
G01X13742Y30711D01*
G01X13781Y30681D01*
G01X13822Y30652D01*
G01X13864Y30625D01*
G01X13906Y30600D01*
G01X13950Y30577D01*
G01X13995Y30555D01*
G01X14041Y30536D01*
G01X14087Y30518D01*
G01X14135Y30503D01*
G01X14182Y30489D01*
G01X14231Y30478D01*
G01X14280Y30468D01*
G01X14329Y30461D01*
G01X14378Y30456D01*
G01X14428Y30453D01*
G01X14478Y30451D01*
G01X14528Y30453D01*
G01X14532Y30453D01*
G01X14547Y30452D01*
G01X14561Y30449D01*
G01X14575Y30443D01*
G01X14587Y30437D01*
G01X14599Y30428D01*
G01X14609Y30418D01*
G01X14618Y30406D01*
G01X14625Y30393D01*
G01X14630Y30380D01*
G01X14633Y30366D01*
G01X14634Y30351D01*
G01X14633Y30335D01*
G01X14629Y30320D01*
G01X14623Y30305D01*
G01X14615Y30291D01*
G01X14604Y30279D01*
G01X13054Y28728D01*
G01X13026Y28700D01*
G01X13001Y28670D01*
G01X12976Y28638D01*
G01X12954Y28606D01*
G01X12933Y28572D01*
G01X12914Y28537D01*
G01X12897Y28501D01*
G01X12882Y28465D01*
G01X12869Y28427D01*
G01X12858Y28389D01*
G01X12848Y28351D01*
G01X12841Y28312D01*
G01X12836Y28273D01*
G01X12833Y28233D01*
G01X12832Y28194D01*
G01X12832Y23926D01*
G01X12833Y23887D01*
G01X12836Y23847D01*
G01X12841Y23808D01*
G01X12849Y23769D01*
G01X12858Y23730D01*
G01X12869Y23692D01*
G01X12882Y23655D01*
G01X12897Y23618D01*
G01X12914Y23583D01*
G01X12921Y23568D01*
G01X12924Y23552D01*
G01X12926Y23537D01*
G01X12926Y23317D01*
G01X12927Y23292D01*
G01X12930Y23268D01*
G01X12936Y23244D01*
G01X12944Y23221D01*
G01X12954Y23198D01*
G01X12967Y23177D01*
G01X12981Y23157D01*
G01X12997Y23139D01*
G01X13015Y23122D01*
G01X13035Y23107D01*
G01X13055Y23094D01*
G01X13068Y23085D01*
G01X13079Y23075D01*
G01X13089Y23063D01*
G01X13097Y23050D01*
G01X13102Y23035D01*
G01X13106Y23021D01*
G01X13107Y23005D01*
G01X13106Y22991D01*
G01X13103Y22977D01*
G01X13098Y22963D01*
G01X13091Y22950D01*
G01X13082Y22939D01*
G01X13072Y22929D01*
G01X13060Y22920D01*
G01X13047Y22913D01*
G01X13034Y22908D01*
G01X13020Y22905D01*
G01X13005Y22904D01*
G01X10416Y22904D01*
G01X10396Y22906D01*
G01X10376Y22912D01*
G01X10340Y22926D01*
G01X10304Y22938D01*
G01X10266Y22947D01*
G01X10228Y22954D01*
G01X10190Y22957D01*
G01X10152Y22959D01*
G01X10118Y22958D01*
G01X10084Y22955D01*
G01X10051Y22950D01*
G01X10017Y22942D01*
G01X9985Y22933D01*
G01X9953Y22922D01*
G01X9921Y22909D01*
G01X9891Y22894D01*
G01X9861Y22878D01*
G01X9833Y22859D01*
G01X9806Y22839D01*
G01X9780Y22818D01*
G01X9755Y22794D01*
G01X9732Y22770D01*
G01X9710Y22744D01*
G01X9690Y22716D01*
G01X9671Y22688D01*
G01X9655Y22658D01*
G01X9640Y22628D01*
G01X9627Y22596D01*
G01X9616Y22564D01*
G01X9607Y22532D01*
G01X9600Y22498D01*
G01X9594Y22465D01*
G01X9591Y22431D01*
G01X9590Y22397D01*
G01X9591Y22363D01*
G01X9594Y22330D01*
G01X9600Y22296D01*
G01X9607Y22263D01*
G01X9616Y22230D01*
G01X9627Y22198D01*
G01X9640Y22167D01*
G01X9655Y22136D01*
G01X9671Y22107D01*
G01X9690Y22078D01*
G01X9710Y22051D01*
G01X9732Y22025D01*
G01X9755Y22000D01*
G01X9780Y21977D01*
G01X9806Y21955D01*
G01X9833Y21935D01*
G01X9861Y21917D01*
G01X9891Y21900D01*
G01X9921Y21885D01*
G01X9953Y21872D01*
G01X9985Y21861D01*
G01X10017Y21852D01*
G01X10051Y21845D01*
G01X10084Y21840D01*
G01X10118Y21837D01*
G01X10152Y21836D01*
G01X10190Y21837D01*
G01X10228Y21841D01*
G01X10266Y21847D01*
G01X10304Y21857D01*
G01X10340Y21868D01*
G01X10376Y21882D01*
G01X10396Y21889D01*
G01X10416Y21891D01*
G01X11859Y21891D01*
G01X11873Y21890D01*
G01X11887Y21887D01*
G01X11901Y21881D01*
G01X11914Y21875D01*
G01X11925Y21866D01*
G01X11936Y21856D01*
G01X11944Y21844D01*
G01X11951Y21831D01*
G01X11956Y21818D01*
G01X11959Y21804D01*
G01X11960Y21789D01*
G01X11960Y21653D01*
G01X12357Y21653D01*
G01X12357Y21789D01*
G01X12358Y21804D01*
G01X12361Y21818D01*
G01X12366Y21831D01*
G01X12373Y21844D01*
G01X12381Y21856D01*
G01X12392Y21866D01*
G01X12403Y21875D01*
G01X12416Y21881D01*
G01X12430Y21887D01*
G01X12444Y21890D01*
G01X12458Y21891D01*
G01X12788Y21891D01*
G01X12803Y21890D01*
G01X12817Y21887D01*
G01X12831Y21881D01*
G01X12843Y21875D01*
G01X12855Y21866D01*
G01X12865Y21856D01*
G01X12874Y21844D01*
G01X12881Y21831D01*
G01X12886Y21818D01*
G01X12889Y21804D01*
G01X12890Y21789D01*
G01X12890Y21653D01*
G01X13286Y21653D01*
G01X13286Y21789D01*
G01X13287Y21804D01*
G01X13290Y21818D01*
G01X13295Y21831D01*
G01X13302Y21844D01*
G01X13311Y21856D01*
G01X13321Y21866D01*
G01X13333Y21875D01*
G01X13359Y21887D01*
G01X13373Y21890D01*
G01X13388Y21891D01*
G01X13789Y21891D01*
G01X13804Y21890D01*
G01X13818Y21887D01*
G01X13844Y21875D01*
G01X13856Y21866D01*
G01X13866Y21856D01*
G01X13875Y21844D01*
G01X13882Y21831D01*
G01X13887Y21818D01*
G01X13890Y21804D01*
G01X13891Y21789D01*
G01X13891Y20675D01*
G01X13892Y20651D01*
G01X13895Y20628D01*
G01X13901Y20605D01*
G01X13908Y20582D01*
G01X13918Y20561D01*
G01X13929Y20540D01*
G01X13943Y20521D01*
G01X13958Y20502D01*
G01X13974Y20486D01*
G01X13993Y20470D01*
G01X14012Y20457D01*
G01X14033Y20445D01*
G01X14055Y20436D01*
G01X14077Y20428D01*
G01X14100Y20423D01*
G01X14124Y20420D01*
G01X14147Y20419D01*
G01X14960Y20419D01*
G01X14984Y20420D01*
G01X15007Y20423D01*
G01X15030Y20428D01*
G01X15053Y20436D01*
G01X15074Y20445D01*
G01X15095Y20457D01*
G01X15115Y20470D01*
G01X15133Y20486D01*
G01X15150Y20502D01*
G01X15165Y20521D01*
G01X15178Y20540D01*
G01X15190Y20561D01*
G01X15199Y20582D01*
G01X15207Y20605D01*
G01X15212Y20628D01*
G01X15216Y20651D01*
G01X15217Y20675D01*
G01X15217Y21894D01*
G01X15215Y21919D01*
G01X15212Y21944D01*
G01X15206Y21968D01*
G01X15197Y21992D01*
G01X15187Y22014D01*
G01X15174Y22036D01*
G01X15159Y22056D01*
G01X15143Y22074D01*
G01X15125Y22091D01*
G01X15105Y22106D01*
G01X15092Y22117D01*
G01X15081Y22129D01*
G01X15072Y22143D01*
G01X15066Y22158D01*
G01X15062Y22174D01*
G01X15060Y22190D01*
G01X15060Y22397D01*
G01X15059Y22430D01*
G01X15056Y22463D01*
G01X15051Y22496D01*
G01X15043Y22528D01*
G01X15033Y22560D01*
G01X15022Y22591D01*
G01X15008Y22621D01*
G01X14992Y22650D01*
G01X14975Y22679D01*
G01X14956Y22706D01*
G01X14935Y22731D01*
G01X14912Y22755D01*
G01X14888Y22778D01*
G01X14862Y22799D01*
G01X14835Y22818D01*
G01X14807Y22836D01*
G01X14778Y22852D01*
G01X14748Y22865D01*
G01X14717Y22877D01*
G01X14685Y22886D01*
G01X14653Y22894D01*
G01X14620Y22899D01*
G01X14587Y22903D01*
G01X14554Y22904D01*
G01X14172Y22904D01*
G01X14157Y22905D01*
G01X14143Y22908D01*
G01X14130Y22913D01*
G01X14117Y22920D01*
G01X14105Y22929D01*
G01X14095Y22939D01*
G01X14086Y22950D01*
G01X14079Y22963D01*
G01X14074Y22977D01*
G01X14071Y22991D01*
G01X14070Y23005D01*
G01X14071Y23021D01*
G01X14075Y23035D01*
G01X14080Y23050D01*
G01X14088Y23063D01*
G01X14098Y23075D01*
G01X14109Y23085D01*
G01X14122Y23094D01*
G01X14142Y23107D01*
G01X14162Y23122D01*
G01X14180Y23139D01*
G01X14196Y23157D01*
G01X14210Y23177D01*
G01X14223Y23198D01*
G01X14233Y23221D01*
G01X14241Y23244D01*
G01X14247Y23268D01*
G01X14250Y23292D01*
G01X14251Y23317D01*
G01X14251Y23537D01*
G01X14253Y23552D01*
G01X14256Y23568D01*
G01X14263Y23583D01*
G01X14280Y23618D01*
G01X14295Y23655D01*
G01X14308Y23692D01*
G01X14319Y23730D01*
G01X14328Y23769D01*
G01X14336Y23808D01*
G01X14341Y23847D01*
G01X14344Y23887D01*
G01X14345Y23926D01*
G01X14345Y27838D01*
G01X14346Y27854D01*
G01X14350Y27869D01*
G01X14356Y27884D01*
G01X14364Y27898D01*
G01X14375Y27910D01*
G01X16888Y30423D01*
G01X16900Y30433D01*
G01X16914Y30442D01*
G01X16928Y30448D01*
G01X16944Y30452D01*
G01X16960Y30453D01*
G01X16964Y30453D01*
G01X17018Y30451D01*
G01X17067Y30453D01*
G01X17117Y30456D01*
G01X17166Y30461D01*
G01X17215Y30468D01*
G01X17264Y30478D01*
G01X17313Y30489D01*
G01X17360Y30503D01*
G01X17408Y30518D01*
G01X17454Y30536D01*
G01X17500Y30555D01*
G01X17545Y30577D01*
G01X17589Y30600D01*
G01X17631Y30625D01*
G01X17673Y30652D01*
G01X17714Y30681D01*
G01X17753Y30711D01*
G01X17791Y30743D01*
G01X17828Y30777D01*
G01X17863Y30812D01*
G01X17897Y30849D01*
G01X17929Y30887D01*
G01X17959Y30926D01*
G01X17988Y30967D01*
G01X18015Y31009D01*
G01X18040Y31051D01*
G01X18063Y31095D01*
G01X18085Y31140D01*
G01X18104Y31186D01*
G01X18122Y31232D01*
G01X18137Y31280D01*
G01X18151Y31327D01*
G01X18162Y31376D01*
G01X18172Y31425D01*
G01X18179Y31474D01*
G01X18184Y31523D01*
G01X18187Y31573D01*
G01X18189Y31623D01*
G01X18187Y31672D01*
G01X18184Y31722D01*
G01X18179Y31771D01*
G01X18172Y31820D01*
G01X18162Y31869D01*
G01X18151Y31918D01*
G01X18137Y31965D01*
G01X18122Y32013D01*
G01X18104Y32059D01*
G01X18085Y32105D01*
G01X18063Y32150D01*
G01X18040Y32194D01*
G01X18015Y32236D01*
G01X17988Y32278D01*
G01X17959Y32319D01*
G01X17929Y32358D01*
G01X17897Y32396D01*
G01X17863Y32433D01*
G01X17828Y32468D01*
G01X17791Y32502D01*
G01X17753Y32534D01*
G01X17714Y32564D01*
G01X17673Y32593D01*
G01X17631Y32620D01*
G01X17589Y32645D01*
G01X17545Y32668D01*
G01X17500Y32690D01*
G01X17454Y32709D01*
G01X17408Y32727D01*
G01X17360Y32742D01*
G01X17313Y32756D01*
G01X17264Y32767D01*
G01X17215Y32777D01*
G01X17166Y32784D01*
G01X17117Y32789D01*
G01X17067Y32792D01*
G01X17018Y32794D01*
G01X16969Y32793D01*
G01X16920Y32789D01*
G01X16871Y32784D01*
G01X16822Y32777D01*
G01X16774Y32768D01*
G01X16727Y32757D01*
G01X16679Y32744D01*
G01X16633Y32729D01*
G01X16587Y32711D01*
G01X16542Y32693D01*
G01X16497Y32672D01*
G01X16454Y32649D01*
G01X16411Y32625D01*
G01X16370Y32598D01*
G01X16330Y32570D01*
G01X16291Y32541D01*
G01X16253Y32510D01*
G01X16217Y32477D01*
G01X16182Y32443D01*
G01X16148Y32407D01*
G01X16116Y32370D01*
G01X16085Y32331D01*
G01X16057Y32292D01*
G01X16029Y32251D01*
G01X16004Y32209D01*
G01X15980Y32166D01*
G01X15959Y32122D01*
G01X15939Y32078D01*
G01X15920Y32032D01*
G01X15904Y31986D01*
G01X15890Y31939D01*
G01X15878Y31892D01*
G01X15868Y31844D01*
G01X15859Y31795D01*
G01X15853Y31747D01*
G01X15849Y31698D01*
G01X15847Y31683D01*
G01X15842Y31668D01*
G01X15836Y31654D01*
G01X15827Y31642D01*
G01X15817Y31630D01*
G01X15805Y31621D01*
G01X15792Y31613D01*
G01X15778Y31607D01*
G01X15763Y31604D01*
G01X15747Y31603D01*
G01X15732Y31604D01*
G01X15717Y31607D01*
G01X15703Y31613D01*
G01X15690Y31621D01*
G01X15678Y31630D01*
G01X15668Y31642D01*
G01X15659Y31654D01*
G01X15653Y31668D01*
G01X15648Y31683D01*
G01X15646Y31698D01*
G01X15642Y31747D01*
G01X15636Y31795D01*
G01X15627Y31844D01*
G01X15617Y31892D01*
G01X15605Y31939D01*
G01X15591Y31986D01*
G01X15575Y32032D01*
G01X15556Y32078D01*
G01X15536Y32122D01*
G01X15515Y32166D01*
G01X15491Y32209D01*
G01X15466Y32251D01*
G01X15438Y32292D01*
G01X15410Y32331D01*
G01X15379Y32370D01*
G01X15347Y32407D01*
G01X15313Y32443D01*
G01X15278Y32477D01*
G01X15242Y32510D01*
G01X15204Y32541D01*
G01X15165Y32570D01*
G01X15125Y32598D01*
G01X15084Y32625D01*
G01X15041Y32649D01*
G01X14998Y32672D01*
G01X14953Y32693D01*
G01X14908Y32711D01*
G01X14862Y32729D01*
G01X14816Y32744D01*
G01X14768Y32757D01*
G01X14721Y32768D01*
G01X14673Y32777D01*
G01X14624Y32784D01*
G01X14575Y32789D01*
G01X14526Y32793D01*
G37*
G36*
G01X11352Y32792D02*
G01X11303Y32794D01*
G01X11254Y32793D01*
G01X11205Y32789D01*
G01X11156Y32784D01*
G01X11107Y32777D01*
G01X11059Y32768D01*
G01X11012Y32757D01*
G01X10964Y32744D01*
G01X10918Y32729D01*
G01X10872Y32711D01*
G01X10827Y32693D01*
G01X10782Y32672D01*
G01X10739Y32649D01*
G01X10696Y32625D01*
G01X10655Y32598D01*
G01X10615Y32570D01*
G01X10576Y32541D01*
G01X10538Y32510D01*
G01X10502Y32477D01*
G01X10467Y32443D01*
G01X10433Y32407D01*
G01X10401Y32370D01*
G01X10370Y32331D01*
G01X10342Y32292D01*
G01X10314Y32251D01*
G01X10289Y32209D01*
G01X10265Y32166D01*
G01X10244Y32122D01*
G01X10224Y32078D01*
G01X10205Y32032D01*
G01X10189Y31986D01*
G01X10175Y31939D01*
G01X10163Y31892D01*
G01X10153Y31844D01*
G01X10144Y31795D01*
G01X10138Y31747D01*
G01X10134Y31698D01*
G01X10132Y31683D01*
G01X10128Y31669D01*
G01X10122Y31656D01*
G01X10114Y31643D01*
G01X10104Y31632D01*
G01X10093Y31623D01*
G01X10104Y31613D01*
G01X10114Y31602D01*
G01X10122Y31589D01*
G01X10128Y31576D01*
G01X10132Y31562D01*
G01X10134Y31547D01*
G01X10138Y31497D01*
G01X10145Y31448D01*
G01X10153Y31399D01*
G01X10164Y31350D01*
G01X10176Y31302D01*
G01X10191Y31254D01*
G01X10207Y31208D01*
G01X10226Y31161D01*
G01X10247Y31116D01*
G01X10269Y31072D01*
G01X10294Y31028D01*
G01X10320Y30986D01*
G01X10348Y30944D01*
G01X10377Y30905D01*
G01X10409Y30866D01*
G01X10442Y30828D01*
G01X10476Y30793D01*
G01X10512Y30758D01*
G01X10550Y30725D01*
G01X10589Y30694D01*
G01X10629Y30665D01*
G01X10670Y30637D01*
G01X10713Y30611D01*
G01X10725Y30602D01*
G01X10736Y30592D01*
G01X10746Y30580D01*
G01X10753Y30567D01*
G01X10759Y30553D01*
G01X10762Y30538D01*
G01X10763Y30523D01*
G01X10762Y30507D01*
G01X10758Y30492D01*
G01X10752Y30477D01*
G01X10744Y30463D01*
G01X10733Y30451D01*
G01X3994Y23709D01*
G01X3978Y23696D01*
G01X3959Y23687D01*
G01X3927Y23673D01*
G01X3895Y23657D01*
G01X3865Y23639D01*
G01X3836Y23619D01*
G01X3808Y23597D01*
G01X3781Y23574D01*
G01X3756Y23549D01*
G01X3733Y23523D01*
G01X3711Y23495D01*
G01X3691Y23466D01*
G01X3673Y23435D01*
G01X3657Y23404D01*
G01X3643Y23371D01*
G01X3631Y23338D01*
G01X3621Y23304D01*
G01X3614Y23270D01*
G01X3608Y23235D01*
G01X3605Y23200D01*
G01X3604Y23164D01*
G01X3605Y23130D01*
G01X3608Y23097D01*
G01X3613Y23063D01*
G01X3620Y23030D01*
G01X3629Y22997D01*
G01X3640Y22965D01*
G01X3653Y22934D01*
G01X3668Y22903D01*
G01X3685Y22874D01*
G01X3703Y22845D01*
G01X3723Y22818D01*
G01X3745Y22792D01*
G01X3768Y22767D01*
G01X3793Y22744D01*
G01X3819Y22722D01*
G01X3846Y22702D01*
G01X3875Y22684D01*
G01X3904Y22667D01*
G01X3935Y22652D01*
G01X3966Y22639D01*
G01X3998Y22628D01*
G01X4031Y22619D01*
G01X4064Y22612D01*
G01X4097Y22607D01*
G01X4131Y22604D01*
G01X4165Y22603D01*
G01X4200Y22604D01*
G01X4236Y22607D01*
G01X4270Y22613D01*
G01X4305Y22620D01*
G01X4339Y22630D01*
G01X4372Y22642D01*
G01X4405Y22656D01*
G01X4436Y22672D01*
G01X4466Y22690D01*
G01X4496Y22710D01*
G01X4524Y22732D01*
G01X4550Y22755D01*
G01X4575Y22780D01*
G01X4598Y22807D01*
G01X4620Y22835D01*
G01X4640Y22864D01*
G01X4658Y22895D01*
G01X4674Y22926D01*
G01X4688Y22959D01*
G01X4697Y22977D01*
G01X4710Y22993D01*
G01X11661Y29946D01*
G01X11683Y29970D01*
G01X11704Y29996D01*
G01X11724Y30023D01*
G01X11741Y30051D01*
G01X11757Y30080D01*
G01X11770Y30110D01*
G01X11782Y30141D01*
G01X11792Y30173D01*
G01X11799Y30205D01*
G01X11805Y30238D01*
G01X11808Y30271D01*
G01X11809Y30304D01*
G01X11809Y30505D01*
G01X11810Y30520D01*
G01X11814Y30535D01*
G01X11820Y30550D01*
G01X11828Y30563D01*
G01X11837Y30575D01*
G01X11849Y30585D01*
G01X11862Y30594D01*
G01X11906Y30619D01*
G01X11948Y30646D01*
G01X11989Y30674D01*
G01X12030Y30704D01*
G01X12106Y30770D01*
G01X12141Y30805D01*
G01X12176Y30842D01*
G01X12208Y30880D01*
G01X12239Y30920D01*
G01X12269Y30961D01*
G01X12296Y31003D01*
G01X12322Y31046D01*
G01X12346Y31090D01*
G01X12367Y31135D01*
G01X12387Y31181D01*
G01X12405Y31228D01*
G01X12421Y31276D01*
G01X12435Y31324D01*
G01X12447Y31373D01*
G01X12456Y31423D01*
G01X12464Y31472D01*
G01X12469Y31522D01*
G01X12472Y31572D01*
G01X12474Y31623D01*
G01X12472Y31672D01*
G01X12469Y31722D01*
G01X12464Y31771D01*
G01X12457Y31820D01*
G01X12447Y31869D01*
G01X12436Y31918D01*
G01X12422Y31965D01*
G01X12407Y32013D01*
G01X12389Y32059D01*
G01X12370Y32105D01*
G01X12348Y32150D01*
G01X12325Y32194D01*
G01X12300Y32236D01*
G01X12273Y32278D01*
G01X12244Y32319D01*
G01X12214Y32358D01*
G01X12182Y32396D01*
G01X12148Y32433D01*
G01X12113Y32468D01*
G01X12076Y32502D01*
G01X12038Y32534D01*
G01X11999Y32564D01*
G01X11958Y32593D01*
G01X11916Y32620D01*
G01X11874Y32645D01*
G01X11830Y32668D01*
G01X11785Y32690D01*
G01X11739Y32709D01*
G01X11693Y32727D01*
G01X11645Y32742D01*
G01X11598Y32756D01*
G01X11549Y32767D01*
G01X11500Y32777D01*
G01X11451Y32784D01*
G01X11402Y32789D01*
G01X11352Y32792D01*
G37*
G36*
G01X20241Y32793D02*
G01X20193Y32794D01*
G01X20143Y32792D01*
G01X20093Y32789D01*
G01X20044Y32784D01*
G01X19995Y32777D01*
G01X19946Y32767D01*
G01X19897Y32756D01*
G01X19850Y32742D01*
G01X19802Y32727D01*
G01X19756Y32709D01*
G01X19710Y32690D01*
G01X19665Y32668D01*
G01X19621Y32645D01*
G01X19579Y32620D01*
G01X19537Y32593D01*
G01X19496Y32564D01*
G01X19457Y32534D01*
G01X19419Y32502D01*
G01X19382Y32468D01*
G01X19347Y32433D01*
G01X19313Y32396D01*
G01X19281Y32358D01*
G01X19251Y32319D01*
G01X19222Y32278D01*
G01X19195Y32236D01*
G01X19170Y32194D01*
G01X19147Y32150D01*
G01X19125Y32105D01*
G01X19106Y32059D01*
G01X19088Y32013D01*
G01X19073Y31965D01*
G01X19059Y31918D01*
G01X19048Y31869D01*
G01X19038Y31820D01*
G01X19031Y31771D01*
G01X19026Y31722D01*
G01X19023Y31672D01*
G01X19021Y31623D01*
G01X19023Y31569D01*
G01X19023Y31565D01*
G01X19022Y31549D01*
G01X19018Y31533D01*
G01X19012Y31519D01*
G01X19003Y31505D01*
G01X18993Y31493D01*
G01X16610Y29109D01*
G01X16582Y29081D01*
G01X16557Y29051D01*
G01X16532Y29019D01*
G01X16510Y28987D01*
G01X16489Y28953D01*
G01X16470Y28918D01*
G01X16453Y28882D01*
G01X16438Y28846D01*
G01X16425Y28808D01*
G01X16414Y28770D01*
G01X16404Y28732D01*
G01X16397Y28693D01*
G01X16392Y28654D01*
G01X16389Y28614D01*
G01X16388Y28575D01*
G01X16388Y23926D01*
G01X16389Y23887D01*
G01X16392Y23847D01*
G01X16397Y23808D01*
G01X16405Y23769D01*
G01X16414Y23730D01*
G01X16425Y23692D01*
G01X16438Y23655D01*
G01X16453Y23618D01*
G01X16470Y23583D01*
G01X16477Y23568D01*
G01X16480Y23552D01*
G01X16482Y23537D01*
G01X16482Y23317D01*
G01X16483Y23293D01*
G01X16486Y23270D01*
G01X16491Y23246D01*
G01X16499Y23224D01*
G01X16508Y23202D01*
G01X16520Y23182D01*
G01X16533Y23162D01*
G01X16549Y23144D01*
G01X16565Y23127D01*
G01X16584Y23112D01*
G01X16603Y23099D01*
G01X16624Y23087D01*
G01X16645Y23077D01*
G01X16668Y23070D01*
G01X16691Y23065D01*
G01X16714Y23061D01*
G01X16738Y23060D01*
G01X17551Y23060D01*
G01X17575Y23061D01*
G01X17598Y23065D01*
G01X17621Y23070D01*
G01X17644Y23077D01*
G01X17665Y23087D01*
G01X17686Y23099D01*
G01X17705Y23112D01*
G01X17724Y23127D01*
G01X17740Y23144D01*
G01X17756Y23162D01*
G01X17769Y23182D01*
G01X17781Y23202D01*
G01X17790Y23224D01*
G01X17798Y23246D01*
G01X17803Y23270D01*
G01X17806Y23293D01*
G01X17807Y23317D01*
G01X17807Y23537D01*
G01X17809Y23552D01*
G01X17812Y23568D01*
G01X17819Y23583D01*
G01X17836Y23618D01*
G01X17851Y23655D01*
G01X17864Y23692D01*
G01X17875Y23730D01*
G01X17884Y23769D01*
G01X17892Y23808D01*
G01X17897Y23847D01*
G01X17900Y23887D01*
G01X17901Y23926D01*
G01X17901Y28219D01*
G01X17902Y28235D01*
G01X17906Y28250D01*
G01X17912Y28265D01*
G01X17920Y28279D01*
G01X17931Y28291D01*
G01X20063Y30423D01*
G01X20075Y30433D01*
G01X20089Y30442D01*
G01X20103Y30448D01*
G01X20119Y30452D01*
G01X20135Y30453D01*
G01X20139Y30453D01*
G01X20193Y30451D01*
G01X20257Y30453D01*
G01X20262Y30453D01*
G01X20277Y30452D01*
G01X20291Y30449D01*
G01X20305Y30444D01*
G01X20317Y30437D01*
G01X20329Y30429D01*
G01X20339Y30418D01*
G01X20348Y30407D01*
G01X20355Y30394D01*
G01X20360Y30380D01*
G01X20363Y30366D01*
G01X20364Y30352D01*
G01X20363Y30336D01*
G01X20359Y30320D01*
G01X20353Y30305D01*
G01X20344Y30292D01*
G01X20322Y30259D01*
G01X20301Y30225D01*
G01X20281Y30190D01*
G01X20264Y30154D01*
G01X20249Y30117D01*
G01X20235Y30080D01*
G01X20224Y30042D01*
G01X20215Y30003D01*
G01X20207Y29964D01*
G01X20202Y29924D01*
G01X20199Y29884D01*
G01X20198Y29845D01*
G01X20198Y23926D01*
G01X20199Y23887D01*
G01X20202Y23847D01*
G01X20207Y23808D01*
G01X20215Y23769D01*
G01X20224Y23730D01*
G01X20235Y23692D01*
G01X20248Y23655D01*
G01X20263Y23618D01*
G01X20280Y23583D01*
G01X20287Y23568D01*
G01X20290Y23552D01*
G01X20292Y23537D01*
G01X20292Y23317D01*
G01X20293Y23293D01*
G01X20296Y23270D01*
G01X20301Y23246D01*
G01X20309Y23224D01*
G01X20318Y23202D01*
G01X20330Y23182D01*
G01X20343Y23162D01*
G01X20359Y23144D01*
G01X20375Y23127D01*
G01X20394Y23112D01*
G01X20413Y23099D01*
G01X20434Y23087D01*
G01X20455Y23077D01*
G01X20478Y23070D01*
G01X20501Y23065D01*
G01X20524Y23061D01*
G01X20548Y23060D01*
G01X21361Y23060D01*
G01X21385Y23061D01*
G01X21408Y23065D01*
G01X21431Y23070D01*
G01X21454Y23077D01*
G01X21475Y23087D01*
G01X21496Y23099D01*
G01X21515Y23112D01*
G01X21534Y23127D01*
G01X21550Y23144D01*
G01X21566Y23162D01*
G01X21579Y23182D01*
G01X21591Y23202D01*
G01X21600Y23224D01*
G01X21608Y23246D01*
G01X21613Y23270D01*
G01X21616Y23293D01*
G01X21617Y23317D01*
G01X21617Y23537D01*
G01X21619Y23552D01*
G01X21622Y23568D01*
G01X21629Y23583D01*
G01X21646Y23618D01*
G01X21661Y23655D01*
G01X21674Y23692D01*
G01X21685Y23730D01*
G01X21694Y23769D01*
G01X21702Y23808D01*
G01X21707Y23847D01*
G01X21710Y23887D01*
G01X21711Y23926D01*
G01X21711Y29489D01*
G01X21712Y29505D01*
G01X21716Y29520D01*
G01X21722Y29535D01*
G01X21730Y29549D01*
G01X21741Y29561D01*
G01X22603Y30423D01*
G01X22615Y30433D01*
G01X22629Y30442D01*
G01X22643Y30448D01*
G01X22659Y30452D01*
G01X22675Y30453D01*
G01X22679Y30453D01*
G01X22733Y30451D01*
G01X22782Y30453D01*
G01X22832Y30456D01*
G01X22881Y30461D01*
G01X22930Y30468D01*
G01X22979Y30478D01*
G01X23028Y30489D01*
G01X23075Y30503D01*
G01X23123Y30518D01*
G01X23169Y30536D01*
G01X23215Y30555D01*
G01X23260Y30577D01*
G01X23304Y30600D01*
G01X23346Y30625D01*
G01X23388Y30652D01*
G01X23429Y30681D01*
G01X23468Y30711D01*
G01X23506Y30743D01*
G01X23543Y30777D01*
G01X23578Y30812D01*
G01X23612Y30849D01*
G01X23644Y30887D01*
G01X23674Y30926D01*
G01X23703Y30967D01*
G01X23730Y31009D01*
G01X23755Y31051D01*
G01X23778Y31095D01*
G01X23800Y31140D01*
G01X23819Y31186D01*
G01X23837Y31232D01*
G01X23852Y31280D01*
G01X23866Y31327D01*
G01X23877Y31376D01*
G01X23887Y31425D01*
G01X23894Y31474D01*
G01X23899Y31523D01*
G01X23902Y31573D01*
G01X23904Y31623D01*
G01X23902Y31672D01*
G01X23899Y31722D01*
G01X23894Y31771D01*
G01X23887Y31820D01*
G01X23877Y31869D01*
G01X23866Y31918D01*
G01X23852Y31965D01*
G01X23837Y32013D01*
G01X23819Y32059D01*
G01X23800Y32105D01*
G01X23778Y32150D01*
G01X23755Y32194D01*
G01X23730Y32236D01*
G01X23703Y32278D01*
G01X23674Y32319D01*
G01X23644Y32358D01*
G01X23612Y32396D01*
G01X23578Y32433D01*
G01X23543Y32468D01*
G01X23506Y32502D01*
G01X23468Y32534D01*
G01X23429Y32564D01*
G01X23388Y32593D01*
G01X23346Y32620D01*
G01X23304Y32645D01*
G01X23260Y32668D01*
G01X23215Y32690D01*
G01X23169Y32709D01*
G01X23123Y32727D01*
G01X23075Y32742D01*
G01X23028Y32756D01*
G01X22979Y32767D01*
G01X22930Y32777D01*
G01X22881Y32784D01*
G01X22832Y32789D01*
G01X22782Y32792D01*
G01X22733Y32794D01*
G01X22684Y32793D01*
G01X22635Y32789D01*
G01X22586Y32784D01*
G01X22537Y32777D01*
G01X22489Y32768D01*
G01X22442Y32757D01*
G01X22394Y32744D01*
G01X22348Y32729D01*
G01X22302Y32711D01*
G01X22257Y32693D01*
G01X22212Y32672D01*
G01X22169Y32649D01*
G01X22126Y32625D01*
G01X22085Y32598D01*
G01X22045Y32570D01*
G01X22006Y32541D01*
G01X21968Y32510D01*
G01X21932Y32477D01*
G01X21897Y32443D01*
G01X21863Y32407D01*
G01X21831Y32370D01*
G01X21800Y32331D01*
G01X21772Y32292D01*
G01X21744Y32251D01*
G01X21719Y32209D01*
G01X21695Y32166D01*
G01X21674Y32122D01*
G01X21654Y32078D01*
G01X21635Y32032D01*
G01X21619Y31986D01*
G01X21605Y31939D01*
G01X21593Y31892D01*
G01X21583Y31844D01*
G01X21574Y31795D01*
G01X21568Y31747D01*
G01X21564Y31698D01*
G01X21562Y31683D01*
G01X21557Y31668D01*
G01X21551Y31654D01*
G01X21542Y31642D01*
G01X21532Y31630D01*
G01X21520Y31621D01*
G01X21507Y31613D01*
G01X21493Y31607D01*
G01X21478Y31604D01*
G01X21462Y31603D01*
G01X21447Y31604D01*
G01X21432Y31607D01*
G01X21418Y31613D01*
G01X21405Y31621D01*
G01X21393Y31630D01*
G01X21383Y31642D01*
G01X21374Y31654D01*
G01X21368Y31668D01*
G01X21363Y31683D01*
G01X21361Y31698D01*
G01X21357Y31747D01*
G01X21351Y31795D01*
G01X21342Y31844D01*
G01X21332Y31892D01*
G01X21320Y31939D01*
G01X21306Y31986D01*
G01X21290Y32032D01*
G01X21271Y32078D01*
G01X21251Y32122D01*
G01X21230Y32166D01*
G01X21206Y32209D01*
G01X21181Y32251D01*
G01X21153Y32292D01*
G01X21125Y32331D01*
G01X21094Y32370D01*
G01X21062Y32407D01*
G01X21028Y32443D01*
G01X20993Y32477D01*
G01X20957Y32510D01*
G01X20919Y32541D01*
G01X20880Y32570D01*
G01X20840Y32598D01*
G01X20799Y32625D01*
G01X20756Y32649D01*
G01X20713Y32672D01*
G01X20668Y32693D01*
G01X20623Y32711D01*
G01X20577Y32729D01*
G01X20531Y32744D01*
G01X20483Y32757D01*
G01X20436Y32768D01*
G01X20388Y32777D01*
G01X20339Y32784D01*
G01X20290Y32789D01*
G01X20241Y32793D01*
G37*
G36*
G01X22326Y22151D02*
G01X21513Y22151D01*
G01X21490Y22150D01*
G01X21466Y22146D01*
G01X21443Y22141D01*
G01X21421Y22134D01*
G01X21399Y22124D01*
G01X21378Y22112D01*
G01X21359Y22099D01*
G01X21340Y22084D01*
G01X21324Y22067D01*
G01X21309Y22049D01*
G01X21295Y22029D01*
G01X21284Y22009D01*
G01X21274Y21987D01*
G01X21267Y21965D01*
G01X21261Y21941D01*
G01X21258Y21918D01*
G01X21257Y21894D01*
G01X21257Y20675D01*
G01X21258Y20650D01*
G01X21262Y20626D01*
G01X21268Y20601D01*
G01X21276Y20578D01*
G01X21286Y20555D01*
G01X21299Y20534D01*
G01X21314Y20514D01*
G01X21331Y20495D01*
G01X21349Y20478D01*
G01X21369Y20463D01*
G01X21382Y20453D01*
G01X21393Y20441D01*
G01X21401Y20427D01*
G01X21408Y20412D01*
G01X21412Y20396D01*
G01X21413Y20379D01*
G01X21413Y18609D01*
G01X21412Y18594D01*
G01X21409Y18580D01*
G01X21404Y18566D01*
G01X21397Y18554D01*
G01X21388Y18542D01*
G01X21378Y18532D01*
G01X21366Y18523D01*
G01X21354Y18516D01*
G01X21340Y18511D01*
G01X21326Y18508D01*
G01X21312Y18507D01*
G01X21009Y18507D01*
G01X20986Y18506D01*
G01X20962Y18503D01*
G01X20939Y18497D01*
G01X20917Y18490D01*
G01X20895Y18480D01*
G01X20874Y18469D01*
G01X20855Y18455D01*
G01X20837Y18440D01*
G01X20820Y18423D01*
G01X20805Y18405D01*
G01X20791Y18386D01*
G01X20780Y18365D01*
G01X20770Y18343D01*
G01X20763Y18321D01*
G01X20757Y18298D01*
G01X20754Y18274D01*
G01X20753Y18250D01*
G01X20753Y16801D01*
G01X20754Y16776D01*
G01X20758Y16752D01*
G01X20763Y16728D01*
G01X20771Y16705D01*
G01X20782Y16683D01*
G01X20794Y16662D01*
G01X20808Y16642D01*
G01X20824Y16623D01*
G01X20842Y16606D01*
G01X20861Y16591D01*
G01X20882Y16578D01*
G01X20903Y16567D01*
G01X20926Y16558D01*
G01X20940Y16552D01*
G01X20954Y16543D01*
G01X20966Y16533D01*
G01X20976Y16521D01*
G01X20984Y16507D01*
G01X20990Y16493D01*
G01X20993Y16478D01*
G01X20995Y16462D01*
G01X20993Y16447D01*
G01X20990Y16432D01*
G01X20984Y16417D01*
G01X20977Y16404D01*
G01X20967Y16392D01*
G01X20944Y16366D01*
G01X20923Y16338D01*
G01X20904Y16309D01*
G01X20886Y16279D01*
G01X20871Y16248D01*
G01X20859Y16215D01*
G01X20848Y16182D01*
G01X20840Y16148D01*
G01X20834Y16114D01*
G01X20830Y16079D01*
G01X20829Y16045D01*
G01X20829Y15035D01*
G01X20828Y15020D01*
G01X20825Y15006D01*
G01X20820Y14992D01*
G01X20813Y14980D01*
G01X20804Y14968D01*
G01X20794Y14958D01*
G01X20782Y14949D01*
G01X20770Y14942D01*
G01X20756Y14937D01*
G01X20742Y14934D01*
G01X20727Y14933D01*
G01X20611Y14933D01*
G01X20587Y14932D01*
G01X20563Y14929D01*
G01X20540Y14923D01*
G01X20518Y14916D01*
G01X20496Y14906D01*
G01X20475Y14895D01*
G01X20456Y14881D01*
G01X20438Y14866D01*
G01X20421Y14849D01*
G01X20406Y14831D01*
G01X20392Y14812D01*
G01X20381Y14791D01*
G01X20371Y14769D01*
G01X20364Y14747D01*
G01X20358Y14724D01*
G01X20355Y14700D01*
G01X20354Y14677D01*
G01X20354Y13516D01*
G01X20355Y13493D01*
G01X20358Y13469D01*
G01X20364Y13446D01*
G01X20371Y13424D01*
G01X20381Y13402D01*
G01X20392Y13381D01*
G01X20406Y13362D01*
G01X20421Y13344D01*
G01X20438Y13327D01*
G01X20456Y13312D01*
G01X20475Y13298D01*
G01X20496Y13287D01*
G01X20518Y13277D01*
G01X20540Y13270D01*
G01X20563Y13264D01*
G01X20587Y13261D01*
G01X20611Y13260D01*
G01X22060Y13260D01*
G01X22084Y13261D01*
G01X22108Y13264D01*
G01X22131Y13270D01*
G01X22153Y13277D01*
G01X22175Y13287D01*
G01X22196Y13298D01*
G01X22215Y13312D01*
G01X22233Y13327D01*
G01X22250Y13344D01*
G01X22265Y13362D01*
G01X22279Y13381D01*
G01X22290Y13402D01*
G01X22300Y13424D01*
G01X22307Y13446D01*
G01X22313Y13469D01*
G01X22316Y13493D01*
G01X22317Y13516D01*
G01X22317Y14677D01*
G01X22316Y14700D01*
G01X22313Y14724D01*
G01X22307Y14747D01*
G01X22300Y14769D01*
G01X22290Y14791D01*
G01X22279Y14812D01*
G01X22265Y14831D01*
G01X22250Y14849D01*
G01X22233Y14866D01*
G01X22215Y14881D01*
G01X22196Y14895D01*
G01X22175Y14906D01*
G01X22153Y14916D01*
G01X22131Y14923D01*
G01X22108Y14929D01*
G01X22084Y14932D01*
G01X22060Y14933D01*
G01X21944Y14933D01*
G01X21929Y14934D01*
G01X21915Y14937D01*
G01X21901Y14942D01*
G01X21889Y14949D01*
G01X21877Y14958D01*
G01X21867Y14968D01*
G01X21858Y14980D01*
G01X21851Y14992D01*
G01X21846Y15006D01*
G01X21843Y15020D01*
G01X21842Y15035D01*
G01X21842Y15793D01*
G01X21843Y15809D01*
G01X21847Y15824D01*
G01X21853Y15839D01*
G01X21861Y15852D01*
G01X21872Y15865D01*
G01X21948Y15941D01*
G01X21970Y15965D01*
G01X21991Y15990D01*
G01X22011Y16017D01*
G01X22028Y16045D01*
G01X22044Y16075D01*
G01X22057Y16105D01*
G01X22069Y16136D01*
G01X22079Y16168D01*
G01X22086Y16200D01*
G01X22092Y16233D01*
G01X22095Y16266D01*
G01X22096Y16299D01*
G01X22096Y16443D01*
G01X22097Y16459D01*
G01X22101Y16473D01*
G01X22106Y16487D01*
G01X22114Y16501D01*
G01X22123Y16512D01*
G01X22134Y16523D01*
G01X22147Y16531D01*
G01X22160Y16538D01*
G01X22175Y16542D01*
G01X22190Y16545D01*
G01X22213Y16548D01*
G01X22237Y16553D01*
G01X22259Y16560D01*
G01X22281Y16570D01*
G01X22302Y16581D01*
G01X22322Y16594D01*
G01X22341Y16610D01*
G01X22358Y16626D01*
G01X22373Y16645D01*
G01X22387Y16664D01*
G01X22399Y16685D01*
G01X22408Y16707D01*
G01X22416Y16730D01*
G01X22422Y16753D01*
G01X22425Y16777D01*
G01X22426Y16801D01*
G01X22426Y20379D01*
G01X22428Y20396D01*
G01X22432Y20412D01*
G01X22438Y20427D01*
G01X22447Y20441D01*
G01X22458Y20453D01*
G01X22471Y20463D01*
G01X22491Y20478D01*
G01X22509Y20495D01*
G01X22525Y20514D01*
G01X22540Y20534D01*
G01X22553Y20555D01*
G01X22563Y20578D01*
G01X22572Y20601D01*
G01X22578Y20626D01*
G01X22581Y20650D01*
G01X22583Y20675D01*
G01X22583Y21894D01*
G01X22582Y21918D01*
G01X22578Y21941D01*
G01X22573Y21965D01*
G01X22565Y21987D01*
G01X22556Y22009D01*
G01X22544Y22029D01*
G01X22531Y22049D01*
G01X22516Y22067D01*
G01X22499Y22084D01*
G01X22481Y22099D01*
G01X22461Y22112D01*
G01X22440Y22124D01*
G01X22419Y22134D01*
G01X22396Y22141D01*
G01X22373Y22146D01*
G01X22350Y22150D01*
G01X22326Y22151D01*
G37*
G36*
G01X19762Y23024D02*
G01X19728Y23025D01*
G01X19693Y23024D01*
G01X19659Y23021D01*
G01X19625Y23015D01*
G01X19591Y23008D01*
G01X19558Y22999D01*
G01X19526Y22987D01*
G01X19494Y22974D01*
G01X19463Y22958D01*
G01X19433Y22941D01*
G01X19404Y22922D01*
G01X19391Y22914D01*
G01X19376Y22909D01*
G01X19361Y22905D01*
G01X19346Y22904D01*
G01X18110Y22904D01*
G01X18077Y22903D01*
G01X18044Y22899D01*
G01X18011Y22894D01*
G01X17979Y22886D01*
G01X17947Y22877D01*
G01X17916Y22865D01*
G01X17886Y22852D01*
G01X17856Y22836D01*
G01X17828Y22818D01*
G01X17801Y22799D01*
G01X17776Y22778D01*
G01X17752Y22755D01*
G01X17729Y22731D01*
G01X17708Y22706D01*
G01X17689Y22679D01*
G01X17671Y22650D01*
G01X17655Y22621D01*
G01X17642Y22591D01*
G01X17630Y22560D01*
G01X17620Y22528D01*
G01X17613Y22496D01*
G01X17607Y22463D01*
G01X17604Y22430D01*
G01X17603Y22397D01*
G01X17603Y22190D01*
G01X17602Y22174D01*
G01X17598Y22158D01*
G01X17591Y22143D01*
G01X17583Y22129D01*
G01X17572Y22117D01*
G01X17559Y22106D01*
G01X17539Y22091D01*
G01X17521Y22074D01*
G01X17504Y22056D01*
G01X17489Y22036D01*
G01X17476Y22014D01*
G01X17466Y21992D01*
G01X17458Y21968D01*
G01X17452Y21944D01*
G01X17448Y21919D01*
G01X17447Y21894D01*
G01X17447Y20675D01*
G01X17448Y20651D01*
G01X17451Y20628D01*
G01X17457Y20605D01*
G01X17464Y20582D01*
G01X17474Y20561D01*
G01X17485Y20540D01*
G01X17499Y20521D01*
G01X17514Y20502D01*
G01X17530Y20486D01*
G01X17549Y20470D01*
G01X17568Y20457D01*
G01X17589Y20445D01*
G01X17611Y20436D01*
G01X17633Y20428D01*
G01X17656Y20423D01*
G01X17680Y20420D01*
G01X17703Y20419D01*
G01X18516Y20419D01*
G01X18540Y20420D01*
G01X18563Y20423D01*
G01X18586Y20428D01*
G01X18609Y20436D01*
G01X18630Y20445D01*
G01X18651Y20457D01*
G01X18671Y20470D01*
G01X18689Y20486D01*
G01X18706Y20502D01*
G01X18721Y20521D01*
G01X18734Y20540D01*
G01X18746Y20561D01*
G01X18755Y20582D01*
G01X18763Y20605D01*
G01X18768Y20628D01*
G01X18772Y20651D01*
G01X18773Y20675D01*
G01X18773Y21789D01*
G01X18774Y21804D01*
G01X18777Y21818D01*
G01X18782Y21831D01*
G01X18789Y21844D01*
G01X18797Y21856D01*
G01X18808Y21866D01*
G01X18819Y21875D01*
G01X18832Y21881D01*
G01X18846Y21887D01*
G01X18860Y21890D01*
G01X18874Y21891D01*
G01X19225Y21891D01*
G01X19239Y21890D01*
G01X19253Y21887D01*
G01X19267Y21881D01*
G01X19280Y21875D01*
G01X19291Y21866D01*
G01X19302Y21856D01*
G01X19310Y21844D01*
G01X19317Y21831D01*
G01X19322Y21818D01*
G01X19325Y21804D01*
G01X19326Y21789D01*
G01X19326Y21653D01*
G01X19723Y21653D01*
G01X19723Y21807D01*
G01X19724Y21822D01*
G01X19727Y21836D01*
G01X19732Y21849D01*
G01X19739Y21862D01*
G01X19747Y21874D01*
G01X19758Y21884D01*
G01X19769Y21893D01*
G01X19795Y21905D01*
G01X19809Y21908D01*
G01X19843Y21914D01*
G01X19877Y21922D01*
G01X19910Y21932D01*
G01X19942Y21944D01*
G01X19974Y21958D01*
G01X20004Y21974D01*
G01X20034Y21992D01*
G01X20062Y22012D01*
G01X20089Y22033D01*
G01X20104Y22044D01*
G01X20120Y22051D01*
G01X20137Y22056D01*
G01X20154Y22057D01*
G01X20169Y22056D01*
G01X20183Y22053D01*
G01X20197Y22048D01*
G01X20209Y22041D01*
G01X20221Y22032D01*
G01X20231Y22022D01*
G01X20240Y22011D01*
G01X20247Y21998D01*
G01X20252Y21984D01*
G01X20255Y21970D01*
G01X20256Y21956D01*
G01X20256Y21653D01*
G01X20652Y21653D01*
G01X20652Y21894D01*
G01X20651Y21918D01*
G01X20648Y21941D01*
G01X20642Y21965D01*
G01X20635Y21987D01*
G01X20625Y22009D01*
G01X20614Y22029D01*
G01X20600Y22049D01*
G01X20585Y22067D01*
G01X20569Y22084D01*
G01X20550Y22099D01*
G01X20531Y22112D01*
G01X20510Y22124D01*
G01X20488Y22134D01*
G01X20466Y22141D01*
G01X20443Y22146D01*
G01X20419Y22150D01*
G01X20396Y22151D01*
G01X20356Y22151D01*
G01X20342Y22152D01*
G01X20328Y22155D01*
G01X20314Y22160D01*
G01X20301Y22167D01*
G01X20290Y22176D01*
G01X20280Y22186D01*
G01X20271Y22198D01*
G01X20264Y22210D01*
G01X20259Y22224D01*
G01X20256Y22238D01*
G01X20255Y22252D01*
G01X20256Y22269D01*
G01X20260Y22285D01*
G01X20271Y22320D01*
G01X20279Y22355D01*
G01X20285Y22391D01*
G01X20288Y22427D01*
G01X20289Y22463D01*
G01X20288Y22497D01*
G01X20285Y22531D01*
G01X20280Y22564D01*
G01X20273Y22598D01*
G01X20264Y22630D01*
G01X20253Y22662D01*
G01X20240Y22694D01*
G01X20225Y22724D01*
G01X20208Y22754D01*
G01X20190Y22782D01*
G01X20170Y22810D01*
G01X20148Y22836D01*
G01X20125Y22860D01*
G01X20100Y22884D01*
G01X20074Y22905D01*
G01X20047Y22925D01*
G01X20018Y22944D01*
G01X19989Y22960D01*
G01X19958Y22975D01*
G01X19927Y22988D01*
G01X19895Y22999D01*
G01X19862Y23008D01*
G01X19829Y23016D01*
G01X19795Y23021D01*
G01X19762Y23024D01*
G37*
G36*
G01X15007Y2567D02*
G01X14973Y2568D01*
G01X14937Y2567D01*
G01X14902Y2563D01*
G01X14867Y2558D01*
G01X14833Y2550D01*
G01X14799Y2540D01*
G01X14766Y2528D01*
G01X14733Y2514D01*
G01X14702Y2498D01*
G01X14672Y2480D01*
G01X14642Y2460D01*
G01X14614Y2438D01*
G01X14588Y2415D01*
G01X14563Y2390D01*
G01X14540Y2363D01*
G01X14518Y2336D01*
G01X14498Y2306D01*
G01X14480Y2276D01*
G01X14464Y2244D01*
G01X14450Y2212D01*
G01X14441Y2193D01*
G01X14428Y2177D01*
G01X14268Y2018D01*
G01X14256Y2008D01*
G01X14243Y1999D01*
G01X14228Y1993D01*
G01X14213Y1990D01*
G01X14197Y1988D01*
G01X14182Y1989D01*
G01X14167Y1993D01*
G01X14153Y1998D01*
G01X14140Y2006D01*
G01X14118Y2019D01*
G01X14095Y2030D01*
G01X14072Y2038D01*
G01X14047Y2044D01*
G01X14022Y2048D01*
G01X13997Y2049D01*
G01X12498Y2049D01*
G01X12475Y2048D01*
G01X12451Y2045D01*
G01X12428Y2039D01*
G01X12406Y2032D01*
G01X12384Y2022D01*
G01X12363Y2011D01*
G01X12344Y1997D01*
G01X12325Y1982D01*
G01X12309Y1966D01*
G01X12293Y1947D01*
G01X12280Y1928D01*
G01X12269Y1907D01*
G01X12259Y1885D01*
G01X12251Y1863D01*
G01X12246Y1840D01*
G01X12243Y1816D01*
G01X12242Y1793D01*
G01X12242Y795D01*
G01X12243Y771D01*
G01X12246Y747D01*
G01X12251Y724D01*
G01X12259Y702D01*
G01X12269Y680D01*
G01X12280Y659D01*
G01X12293Y640D01*
G01X12309Y622D01*
G01X12325Y605D01*
G01X12344Y590D01*
G01X12363Y576D01*
G01X12384Y565D01*
G01X12406Y555D01*
G01X12428Y548D01*
G01X12451Y542D01*
G01X12475Y539D01*
G01X12498Y538D01*
G01X13997Y538D01*
G01X14020Y539D01*
G01X14043Y542D01*
G01X14065Y547D01*
G01X14087Y554D01*
G01X14108Y563D01*
G01X14128Y574D01*
G01X14148Y587D01*
G01X14166Y601D01*
G01X14182Y617D01*
G01X14198Y635D01*
G01X14211Y653D01*
G01X14223Y673D01*
G01X14233Y694D01*
G01X14241Y716D01*
G01X14247Y730D01*
G01X14255Y744D01*
G01X14266Y756D01*
G01X14278Y766D01*
G01X14291Y775D01*
G01X14306Y781D01*
G01X14322Y785D01*
G01X14338Y786D01*
G01X14500Y786D01*
G01X14533Y787D01*
G01X14566Y790D01*
G01X14598Y795D01*
G01X14630Y803D01*
G01X14661Y812D01*
G01X14692Y824D01*
G01X14722Y837D01*
G01X14751Y852D01*
G01X14779Y869D01*
G01X14806Y888D01*
G01X14831Y909D01*
G01X14855Y931D01*
G01X14878Y955D01*
G01X14899Y980D01*
G01X14918Y1006D01*
G01X14936Y1034D01*
G01X14952Y1063D01*
G01X14966Y1092D01*
G01X14978Y1123D01*
G01X14988Y1154D01*
G01X14996Y1186D01*
G01X15001Y1218D01*
G01X15005Y1251D01*
G01X15008Y1299D01*
G01X15012Y1314D01*
G01X15018Y1328D01*
G01X15026Y1342D01*
G01X15037Y1354D01*
G01X15144Y1461D01*
G01X15160Y1474D01*
G01X15179Y1484D01*
G01X15211Y1498D01*
G01X15243Y1514D01*
G01X15273Y1532D01*
G01X15302Y1551D01*
G01X15330Y1573D01*
G01X15357Y1596D01*
G01X15382Y1621D01*
G01X15405Y1648D01*
G01X15427Y1676D01*
G01X15447Y1705D01*
G01X15465Y1735D01*
G01X15481Y1767D01*
G01X15495Y1799D01*
G01X15507Y1832D01*
G01X15517Y1866D01*
G01X15524Y1901D01*
G01X15530Y1936D01*
G01X15533Y1971D01*
G01X15534Y2006D01*
G01X15533Y2040D01*
G01X15530Y2074D01*
G01X15525Y2107D01*
G01X15518Y2140D01*
G01X15509Y2173D01*
G01X15498Y2205D01*
G01X15485Y2237D01*
G01X15470Y2267D01*
G01X15453Y2297D01*
G01X15435Y2325D01*
G01X15415Y2352D01*
G01X15393Y2378D01*
G01X15370Y2403D01*
G01X15345Y2426D01*
G01X15319Y2448D01*
G01X15292Y2468D01*
G01X15263Y2487D01*
G01X15234Y2503D01*
G01X15203Y2518D01*
G01X15172Y2531D01*
G01X15140Y2542D01*
G01X15107Y2551D01*
G01X15074Y2558D01*
G01X15040Y2564D01*
G01X15007Y2567D01*
G37*
G36*
G01X8811Y32793D02*
G01X8763Y32794D01*
G01X8713Y32792D01*
G01X8663Y32789D01*
G01X8614Y32784D01*
G01X8565Y32777D01*
G01X8516Y32767D01*
G01X8467Y32756D01*
G01X8420Y32742D01*
G01X8372Y32727D01*
G01X8326Y32709D01*
G01X8280Y32690D01*
G01X8235Y32668D01*
G01X8191Y32645D01*
G01X8149Y32620D01*
G01X8107Y32593D01*
G01X8066Y32564D01*
G01X8027Y32534D01*
G01X7989Y32502D01*
G01X7952Y32468D01*
G01X7917Y32433D01*
G01X7883Y32396D01*
G01X7851Y32358D01*
G01X7821Y32319D01*
G01X7792Y32278D01*
G01X7765Y32236D01*
G01X7740Y32194D01*
G01X7717Y32150D01*
G01X7695Y32105D01*
G01X7676Y32059D01*
G01X7658Y32013D01*
G01X7643Y31965D01*
G01X7629Y31918D01*
G01X7618Y31869D01*
G01X7608Y31820D01*
G01X7601Y31771D01*
G01X7596Y31722D01*
G01X7593Y31672D01*
G01X7591Y31623D01*
G01X7593Y31573D01*
G01X7596Y31523D01*
G01X7601Y31474D01*
G01X7608Y31425D01*
G01X7618Y31376D01*
G01X7629Y31327D01*
G01X7643Y31280D01*
G01X7658Y31232D01*
G01X7676Y31186D01*
G01X7695Y31140D01*
G01X7717Y31095D01*
G01X7740Y31051D01*
G01X7765Y31009D01*
G01X7792Y30967D01*
G01X7821Y30926D01*
G01X7851Y30887D01*
G01X7883Y30849D01*
G01X7917Y30812D01*
G01X7952Y30777D01*
G01X7989Y30743D01*
G01X8027Y30711D01*
G01X8066Y30681D01*
G01X8107Y30652D01*
G01X8149Y30625D01*
G01X8191Y30600D01*
G01X8235Y30577D01*
G01X8280Y30555D01*
G01X8326Y30536D01*
G01X8372Y30518D01*
G01X8420Y30503D01*
G01X8467Y30489D01*
G01X8516Y30478D01*
G01X8565Y30468D01*
G01X8614Y30461D01*
G01X8663Y30456D01*
G01X8713Y30453D01*
G01X8762Y30451D01*
G01X8811Y30452D01*
G01X8860Y30456D01*
G01X8909Y30461D01*
G01X8958Y30468D01*
G01X9006Y30477D01*
G01X9053Y30488D01*
G01X9101Y30501D01*
G01X9147Y30516D01*
G01X9193Y30534D01*
G01X9238Y30552D01*
G01X9283Y30573D01*
G01X9326Y30596D01*
G01X9369Y30620D01*
G01X9410Y30647D01*
G01X9450Y30675D01*
G01X9489Y30704D01*
G01X9527Y30735D01*
G01X9563Y30768D01*
G01X9598Y30802D01*
G01X9632Y30838D01*
G01X9664Y30875D01*
G01X9695Y30914D01*
G01X9723Y30953D01*
G01X9751Y30994D01*
G01X9776Y31036D01*
G01X9800Y31079D01*
G01X9821Y31123D01*
G01X9841Y31167D01*
G01X9860Y31213D01*
G01X9876Y31259D01*
G01X9890Y31306D01*
G01X9902Y31353D01*
G01X9912Y31401D01*
G01X9921Y31450D01*
G01X9927Y31498D01*
G01X9931Y31547D01*
G01X9933Y31562D01*
G01X9937Y31576D01*
G01X9943Y31589D01*
G01X9951Y31602D01*
G01X9961Y31613D01*
G01X9972Y31622D01*
G01X9961Y31632D01*
G01X9951Y31643D01*
G01X9943Y31656D01*
G01X9937Y31669D01*
G01X9933Y31683D01*
G01X9931Y31698D01*
G01X9927Y31747D01*
G01X9921Y31795D01*
G01X9912Y31844D01*
G01X9902Y31892D01*
G01X9890Y31939D01*
G01X9876Y31986D01*
G01X9860Y32032D01*
G01X9841Y32078D01*
G01X9821Y32122D01*
G01X9800Y32166D01*
G01X9776Y32209D01*
G01X9751Y32251D01*
G01X9723Y32292D01*
G01X9695Y32331D01*
G01X9664Y32370D01*
G01X9632Y32407D01*
G01X9598Y32443D01*
G01X9563Y32477D01*
G01X9527Y32510D01*
G01X9489Y32541D01*
G01X9450Y32570D01*
G01X9410Y32598D01*
G01X9369Y32625D01*
G01X9326Y32649D01*
G01X9283Y32672D01*
G01X9238Y32693D01*
G01X9193Y32711D01*
G01X9147Y32729D01*
G01X9101Y32744D01*
G01X9053Y32757D01*
G01X9006Y32768D01*
G01X8958Y32777D01*
G01X8909Y32784D01*
G01X8860Y32789D01*
G01X8811Y32793D01*
G37*
G36*
G01X5637Y32792D02*
G01X5588Y32794D01*
G01X5539Y32793D01*
G01X5490Y32789D01*
G01X5441Y32784D01*
G01X5392Y32777D01*
G01X5344Y32768D01*
G01X5297Y32757D01*
G01X5249Y32744D01*
G01X5203Y32729D01*
G01X5157Y32711D01*
G01X5112Y32693D01*
G01X5067Y32672D01*
G01X5024Y32649D01*
G01X4981Y32625D01*
G01X4940Y32598D01*
G01X4900Y32570D01*
G01X4861Y32541D01*
G01X4823Y32510D01*
G01X4787Y32477D01*
G01X4752Y32443D01*
G01X4718Y32407D01*
G01X4686Y32370D01*
G01X4655Y32331D01*
G01X4627Y32292D01*
G01X4599Y32251D01*
G01X4574Y32209D01*
G01X4550Y32166D01*
G01X4529Y32122D01*
G01X4509Y32078D01*
G01X4490Y32032D01*
G01X4474Y31986D01*
G01X4460Y31939D01*
G01X4448Y31892D01*
G01X4438Y31844D01*
G01X4429Y31795D01*
G01X4423Y31747D01*
G01X4419Y31698D01*
G01X4416Y31623D01*
G01X4419Y31547D01*
G01X4423Y31498D01*
G01X4429Y31450D01*
G01X4438Y31401D01*
G01X4448Y31353D01*
G01X4460Y31306D01*
G01X4474Y31259D01*
G01X4490Y31213D01*
G01X4509Y31167D01*
G01X4529Y31123D01*
G01X4550Y31079D01*
G01X4574Y31036D01*
G01X4599Y30994D01*
G01X4627Y30953D01*
G01X4655Y30914D01*
G01X4686Y30875D01*
G01X4718Y30838D01*
G01X4752Y30802D01*
G01X4787Y30768D01*
G01X4823Y30735D01*
G01X4861Y30704D01*
G01X4900Y30675D01*
G01X4940Y30647D01*
G01X4981Y30620D01*
G01X5024Y30596D01*
G01X5067Y30573D01*
G01X5112Y30552D01*
G01X5157Y30534D01*
G01X5203Y30516D01*
G01X5249Y30501D01*
G01X5297Y30488D01*
G01X5344Y30477D01*
G01X5392Y30468D01*
G01X5441Y30461D01*
G01X5490Y30456D01*
G01X5539Y30452D01*
G01X5588Y30451D01*
G01X5637Y30453D01*
G01X5687Y30456D01*
G01X5736Y30461D01*
G01X5785Y30468D01*
G01X5834Y30478D01*
G01X5883Y30489D01*
G01X5930Y30503D01*
G01X5978Y30518D01*
G01X6024Y30536D01*
G01X6070Y30555D01*
G01X6115Y30577D01*
G01X6159Y30600D01*
G01X6201Y30625D01*
G01X6243Y30652D01*
G01X6284Y30681D01*
G01X6323Y30711D01*
G01X6361Y30743D01*
G01X6398Y30777D01*
G01X6433Y30812D01*
G01X6467Y30849D01*
G01X6499Y30887D01*
G01X6529Y30926D01*
G01X6558Y30967D01*
G01X6585Y31009D01*
G01X6610Y31051D01*
G01X6633Y31095D01*
G01X6655Y31140D01*
G01X6674Y31186D01*
G01X6692Y31232D01*
G01X6707Y31280D01*
G01X6721Y31327D01*
G01X6732Y31376D01*
G01X6742Y31425D01*
G01X6749Y31474D01*
G01X6754Y31523D01*
G01X6757Y31573D01*
G01X6759Y31623D01*
G01X6757Y31672D01*
G01X6754Y31722D01*
G01X6749Y31771D01*
G01X6742Y31820D01*
G01X6732Y31869D01*
G01X6721Y31918D01*
G01X6707Y31965D01*
G01X6692Y32013D01*
G01X6674Y32059D01*
G01X6655Y32105D01*
G01X6633Y32150D01*
G01X6610Y32194D01*
G01X6585Y32236D01*
G01X6558Y32278D01*
G01X6529Y32319D01*
G01X6499Y32358D01*
G01X6467Y32396D01*
G01X6433Y32433D01*
G01X6398Y32468D01*
G01X6361Y32502D01*
G01X6323Y32534D01*
G01X6284Y32564D01*
G01X6243Y32593D01*
G01X6201Y32620D01*
G01X6159Y32645D01*
G01X6115Y32668D01*
G01X6070Y32690D01*
G01X6024Y32709D01*
G01X5978Y32727D01*
G01X5930Y32742D01*
G01X5883Y32756D01*
G01X5834Y32767D01*
G01X5785Y32777D01*
G01X5736Y32784D01*
G01X5687Y32789D01*
G01X5637Y32792D01*
G37*
G36*
G01X22655Y5233D02*
G01X22606Y5235D01*
G01X22556Y5233D01*
G01X22506Y5230D01*
G01X22457Y5225D01*
G01X22408Y5218D01*
G01X22359Y5208D01*
G01X22310Y5197D01*
G01X22263Y5183D01*
G01X22215Y5168D01*
G01X22169Y5150D01*
G01X22123Y5131D01*
G01X22078Y5109D01*
G01X22034Y5086D01*
G01X21992Y5061D01*
G01X21950Y5034D01*
G01X21909Y5005D01*
G01X21870Y4975D01*
G01X21832Y4943D01*
G01X21795Y4909D01*
G01X21760Y4874D01*
G01X21726Y4837D01*
G01X21694Y4799D01*
G01X21664Y4760D01*
G01X21635Y4719D01*
G01X21608Y4677D01*
G01X21583Y4635D01*
G01X21560Y4591D01*
G01X21538Y4546D01*
G01X21519Y4500D01*
G01X21501Y4454D01*
G01X21486Y4406D01*
G01X21472Y4359D01*
G01X21461Y4310D01*
G01X21451Y4261D01*
G01X21444Y4212D01*
G01X21439Y4163D01*
G01X21436Y4113D01*
G01X21434Y4064D01*
G01X21435Y4015D01*
G01X21439Y3966D01*
G01X21444Y3917D01*
G01X21451Y3868D01*
G01X21460Y3820D01*
G01X21471Y3773D01*
G01X21484Y3725D01*
G01X21499Y3679D01*
G01X21517Y3633D01*
G01X21535Y3588D01*
G01X21556Y3543D01*
G01X21579Y3500D01*
G01X21603Y3457D01*
G01X21630Y3416D01*
G01X21658Y3376D01*
G01X21687Y3337D01*
G01X21718Y3299D01*
G01X21751Y3263D01*
G01X21785Y3228D01*
G01X21821Y3194D01*
G01X21858Y3162D01*
G01X21897Y3131D01*
G01X21936Y3103D01*
G01X21977Y3075D01*
G01X22019Y3050D01*
G01X22062Y3026D01*
G01X22106Y3005D01*
G01X22150Y2985D01*
G01X22196Y2966D01*
G01X22242Y2950D01*
G01X22289Y2936D01*
G01X22336Y2924D01*
G01X22384Y2914D01*
G01X22433Y2905D01*
G01X22481Y2899D01*
G01X22530Y2895D01*
G01X22606Y2892D01*
G01X22681Y2895D01*
G01X22730Y2899D01*
G01X22778Y2905D01*
G01X22827Y2914D01*
G01X22875Y2924D01*
G01X22922Y2936D01*
G01X22969Y2950D01*
G01X23015Y2966D01*
G01X23061Y2985D01*
G01X23105Y3005D01*
G01X23149Y3026D01*
G01X23192Y3050D01*
G01X23234Y3075D01*
G01X23275Y3103D01*
G01X23314Y3131D01*
G01X23353Y3162D01*
G01X23390Y3194D01*
G01X23426Y3228D01*
G01X23460Y3263D01*
G01X23493Y3299D01*
G01X23524Y3337D01*
G01X23553Y3376D01*
G01X23581Y3416D01*
G01X23608Y3457D01*
G01X23632Y3500D01*
G01X23655Y3543D01*
G01X23676Y3588D01*
G01X23694Y3633D01*
G01X23712Y3679D01*
G01X23727Y3725D01*
G01X23740Y3773D01*
G01X23751Y3820D01*
G01X23760Y3868D01*
G01X23767Y3917D01*
G01X23772Y3966D01*
G01X23776Y4015D01*
G01X23777Y4064D01*
G01X23775Y4113D01*
G01X23772Y4163D01*
G01X23767Y4212D01*
G01X23760Y4261D01*
G01X23750Y4310D01*
G01X23739Y4359D01*
G01X23725Y4406D01*
G01X23710Y4454D01*
G01X23692Y4500D01*
G01X23673Y4546D01*
G01X23651Y4591D01*
G01X23628Y4635D01*
G01X23603Y4677D01*
G01X23576Y4719D01*
G01X23547Y4760D01*
G01X23517Y4799D01*
G01X23485Y4837D01*
G01X23451Y4874D01*
G01X23416Y4909D01*
G01X23379Y4943D01*
G01X23341Y4975D01*
G01X23302Y5005D01*
G01X23261Y5034D01*
G01X23219Y5061D01*
G01X23177Y5086D01*
G01X23133Y5109D01*
G01X23088Y5131D01*
G01X23042Y5150D01*
G01X22996Y5168D01*
G01X22948Y5183D01*
G01X22901Y5197D01*
G01X22852Y5208D01*
G01X22803Y5218D01*
G01X22754Y5225D01*
G01X22705Y5230D01*
G01X22655Y5233D01*
G37*
G36*
G01X22085Y2044D02*
G01X22085Y2572D01*
G01X22040Y2549D01*
G01X21996Y2523D01*
G01X21953Y2496D01*
G01X21912Y2467D01*
G01X21872Y2436D01*
G01X21833Y2404D01*
G01X21796Y2369D01*
G01X21760Y2333D01*
G01X21725Y2296D01*
G01X21693Y2257D01*
G01X21662Y2217D01*
G01X21633Y2176D01*
G01X21606Y2133D01*
G01X21580Y2089D01*
G01X21557Y2044D01*
G01X22085Y2044D01*
G37*
G36*
G01X23171Y2549D02*
G01X23126Y2572D01*
G01X23126Y2044D01*
G01X23654Y2044D01*
G01X23631Y2089D01*
G01X23605Y2133D01*
G01X23578Y2176D01*
G01X23549Y2217D01*
G01X23518Y2257D01*
G01X23486Y2296D01*
G01X23451Y2333D01*
G01X23415Y2369D01*
G01X23378Y2404D01*
G01X23339Y2436D01*
G01X23299Y2467D01*
G01X23258Y2496D01*
G01X23215Y2523D01*
G01X23171Y2549D01*
G37*
G36*
G01X22085Y1003D02*
G01X21557Y1003D01*
G01X21580Y958D01*
G01X21606Y914D01*
G01X21633Y871D01*
G01X21662Y830D01*
G01X21693Y790D01*
G01X21725Y751D01*
G01X21760Y714D01*
G01X21796Y678D01*
G01X21833Y643D01*
G01X21872Y611D01*
G01X21912Y580D01*
G01X21953Y551D01*
G01X21996Y524D01*
G01X22040Y498D01*
G01X22085Y475D01*
G01X22085Y1003D01*
G37*
G36*
G01X23654Y1003D02*
G01X23126Y1003D01*
G01X23126Y475D01*
G01X23171Y498D01*
G01X23215Y524D01*
G01X23258Y551D01*
G01X23299Y580D01*
G01X23339Y611D01*
G01X23378Y643D01*
G01X23415Y678D01*
G01X23451Y714D01*
G01X23486Y751D01*
G01X23518Y790D01*
G01X23549Y830D01*
G01X23578Y871D01*
G01X23605Y914D01*
G01X23631Y958D01*
G01X23654Y1003D01*
G37*
G36*
G01X3613Y32648D02*
G01X3568Y32671D01*
G01X3568Y32143D01*
G01X4096Y32143D01*
G01X4073Y32188D01*
G01X4047Y32232D01*
G01X4020Y32275D01*
G01X3991Y32316D01*
G01X3960Y32356D01*
G01X3928Y32395D01*
G01X3893Y32432D01*
G01X3857Y32468D01*
G01X3820Y32503D01*
G01X3781Y32535D01*
G01X3741Y32566D01*
G01X3700Y32595D01*
G01X3657Y32622D01*
G01X3613Y32648D01*
G37*
G36*
G01X2527Y31102D02*
G01X1999Y31102D01*
G01X2022Y31057D01*
G01X2048Y31013D01*
G01X2075Y30970D01*
G01X2104Y30929D01*
G01X2135Y30889D01*
G01X2167Y30850D01*
G01X2202Y30813D01*
G01X2238Y30777D01*
G01X2275Y30742D01*
G01X2314Y30710D01*
G01X2354Y30679D01*
G01X2395Y30650D01*
G01X2438Y30623D01*
G01X2482Y30597D01*
G01X2527Y30574D01*
G01X2527Y31102D01*
G37*
G36*
G01X4096Y31102D02*
G01X3568Y31102D01*
G01X3568Y30574D01*
G01X3613Y30597D01*
G01X3657Y30623D01*
G01X3700Y30650D01*
G01X3741Y30679D01*
G01X3781Y30710D01*
G01X3820Y30742D01*
G01X3857Y30777D01*
G01X3893Y30813D01*
G01X3928Y30850D01*
G01X3960Y30889D01*
G01X3991Y30929D01*
G01X4020Y30970D01*
G01X4047Y31013D01*
G01X4073Y31057D01*
G01X4096Y31102D01*
G37*
G36*
G01X2527Y32143D02*
G01X2527Y32671D01*
G01X2482Y32648D01*
G01X2438Y32622D01*
G01X2395Y32595D01*
G01X2354Y32566D01*
G01X2314Y32535D01*
G01X2275Y32503D01*
G01X2238Y32468D01*
G01X2202Y32432D01*
G01X2167Y32395D01*
G01X2135Y32356D01*
G01X2104Y32316D01*
G01X2075Y32275D01*
G01X2048Y32232D01*
G01X2022Y32188D01*
G01X1999Y32143D01*
G01X2527Y32143D01*
G37*
G36*
G01X23736Y10909D02*
G01X23208Y10909D01*
G01X23231Y10864D01*
G01X23257Y10820D01*
G01X23284Y10777D01*
G01X23313Y10736D01*
G01X23344Y10696D01*
G01X23377Y10657D01*
G01X23411Y10620D01*
G01X23447Y10584D01*
G01X23484Y10550D01*
G01X23523Y10517D01*
G01X23563Y10486D01*
G01X23604Y10457D01*
G01X23647Y10430D01*
G01X23691Y10404D01*
G01X23736Y10381D01*
G01X23736Y10909D01*
G37*
G36*
G01X25305Y10909D02*
G01X24777Y10909D01*
G01X24777Y10381D01*
G01X24822Y10404D01*
G01X24866Y10430D01*
G01X24909Y10457D01*
G01X24950Y10486D01*
G01X24990Y10517D01*
G01X25029Y10550D01*
G01X25066Y10584D01*
G01X25102Y10620D01*
G01X25136Y10657D01*
G01X25169Y10696D01*
G01X25200Y10736D01*
G01X25229Y10777D01*
G01X25256Y10820D01*
G01X25282Y10864D01*
G01X25305Y10909D01*
G37*
G36*
G01X24822Y12455D02*
G01X24777Y12478D01*
G01X24777Y11950D01*
G01X25305Y11950D01*
G01X25282Y11995D01*
G01X25256Y12039D01*
G01X25229Y12082D01*
G01X25200Y12123D01*
G01X25169Y12163D01*
G01X25136Y12202D01*
G01X25102Y12239D01*
G01X25066Y12275D01*
G01X25029Y12309D01*
G01X24990Y12342D01*
G01X24950Y12373D01*
G01X24909Y12402D01*
G01X24866Y12429D01*
G01X24822Y12455D01*
G37*
G36*
G01X23736Y11950D02*
G01X23736Y12478D01*
G01X23691Y12455D01*
G01X23647Y12429D01*
G01X23604Y12402D01*
G01X23563Y12373D01*
G01X23523Y12342D01*
G01X23484Y12309D01*
G01X23447Y12275D01*
G01X23411Y12239D01*
G01X23377Y12202D01*
G01X23344Y12163D01*
G01X23313Y12123D01*
G01X23284Y12082D01*
G01X23257Y12039D01*
G01X23231Y11995D01*
G01X23208Y11950D01*
G01X23736Y11950D01*
G37*
G36*
G01X14298Y17100D02*
G01X13815Y17100D01*
G01X13815Y16544D01*
G01X14042Y16544D01*
G01X14065Y16545D01*
G01X14089Y16548D01*
G01X14112Y16554D01*
G01X14134Y16561D01*
G01X14156Y16571D01*
G01X14177Y16582D01*
G01X14196Y16596D01*
G01X14214Y16611D01*
G01X14231Y16628D01*
G01X14246Y16646D01*
G01X14260Y16665D01*
G01X14271Y16686D01*
G01X14281Y16708D01*
G01X14288Y16730D01*
G01X14294Y16753D01*
G01X14297Y16777D01*
G01X14298Y16801D01*
G01X14298Y17100D01*
G37*
G36*
G01X16074Y18507D02*
G01X15847Y18507D01*
G01X15847Y17951D01*
G01X16330Y17951D01*
G01X16330Y18250D01*
G01X16329Y18274D01*
G01X16326Y18298D01*
G01X16320Y18321D01*
G01X16313Y18343D01*
G01X16303Y18365D01*
G01X16292Y18386D01*
G01X16278Y18405D01*
G01X16263Y18423D01*
G01X16246Y18440D01*
G01X16228Y18455D01*
G01X16209Y18469D01*
G01X16188Y18480D01*
G01X16166Y18490D01*
G01X16144Y18497D01*
G01X16121Y18503D01*
G01X16097Y18506D01*
G01X16074Y18507D01*
G37*
G36*
G01X19204Y18507D02*
G01X18977Y18507D01*
G01X18954Y18506D01*
G01X18930Y18503D01*
G01X18907Y18497D01*
G01X18885Y18490D01*
G01X18863Y18480D01*
G01X18842Y18469D01*
G01X18823Y18455D01*
G01X18805Y18440D01*
G01X18788Y18423D01*
G01X18773Y18405D01*
G01X18759Y18386D01*
G01X18748Y18365D01*
G01X18738Y18343D01*
G01X18731Y18321D01*
G01X18725Y18298D01*
G01X18722Y18274D01*
G01X18721Y18250D01*
G01X18721Y17951D01*
G01X19204Y17951D01*
G01X19204Y18507D01*
G37*
G36*
G01X19204Y17100D02*
G01X18721Y17100D01*
G01X18721Y16801D01*
G01X18722Y16777D01*
G01X18725Y16753D01*
G01X18731Y16730D01*
G01X18738Y16708D01*
G01X18748Y16686D01*
G01X18759Y16665D01*
G01X18773Y16646D01*
G01X18788Y16628D01*
G01X18805Y16611D01*
G01X18823Y16596D01*
G01X18842Y16582D01*
G01X18863Y16571D01*
G01X18885Y16561D01*
G01X18907Y16554D01*
G01X18930Y16548D01*
G01X18954Y16545D01*
G01X18977Y16544D01*
G01X19204Y16544D01*
G01X19204Y17100D01*
G37*
G36*
G01X16330Y17100D02*
G01X15847Y17100D01*
G01X15847Y16544D01*
G01X16074Y16544D01*
G01X16097Y16545D01*
G01X16121Y16548D01*
G01X16144Y16554D01*
G01X16166Y16561D01*
G01X16188Y16571D01*
G01X16209Y16582D01*
G01X16228Y16596D01*
G01X16246Y16611D01*
G01X16263Y16628D01*
G01X16278Y16646D01*
G01X16292Y16665D01*
G01X16303Y16686D01*
G01X16313Y16708D01*
G01X16320Y16730D01*
G01X16326Y16753D01*
G01X16329Y16777D01*
G01X16330Y16801D01*
G01X16330Y17100D01*
G37*
G36*
G01X15140Y18507D02*
G01X14913Y18507D01*
G01X14890Y18506D01*
G01X14866Y18503D01*
G01X14843Y18497D01*
G01X14821Y18490D01*
G01X14799Y18480D01*
G01X14778Y18469D01*
G01X14759Y18455D01*
G01X14741Y18440D01*
G01X14724Y18423D01*
G01X14709Y18405D01*
G01X14695Y18386D01*
G01X14684Y18365D01*
G01X14674Y18343D01*
G01X14667Y18321D01*
G01X14661Y18298D01*
G01X14658Y18274D01*
G01X14657Y18250D01*
G01X14657Y17951D01*
G01X15140Y17951D01*
G01X15140Y18507D01*
G37*
G36*
G01X15140Y17100D02*
G01X14657Y17100D01*
G01X14657Y16801D01*
G01X14658Y16777D01*
G01X14661Y16753D01*
G01X14667Y16730D01*
G01X14674Y16708D01*
G01X14684Y16686D01*
G01X14695Y16665D01*
G01X14709Y16646D01*
G01X14724Y16628D01*
G01X14741Y16611D01*
G01X14759Y16596D01*
G01X14778Y16582D01*
G01X14799Y16571D01*
G01X14821Y16561D01*
G01X14843Y16554D01*
G01X14866Y16548D01*
G01X14890Y16545D01*
G01X14913Y16544D01*
G01X15140Y16544D01*
G01X15140Y17100D01*
G37*
G36*
G01X20138Y18507D02*
G01X19911Y18507D01*
G01X19911Y17951D01*
G01X20394Y17951D01*
G01X20394Y18250D01*
G01X20393Y18274D01*
G01X20390Y18298D01*
G01X20384Y18321D01*
G01X20377Y18343D01*
G01X20367Y18365D01*
G01X20356Y18386D01*
G01X20342Y18405D01*
G01X20327Y18423D01*
G01X20310Y18440D01*
G01X20292Y18455D01*
G01X20273Y18469D01*
G01X20252Y18480D01*
G01X20230Y18490D01*
G01X20208Y18497D01*
G01X20185Y18503D01*
G01X20161Y18506D01*
G01X20138Y18507D01*
G37*
G36*
G01X20394Y17100D02*
G01X19911Y17100D01*
G01X19911Y16544D01*
G01X20138Y16544D01*
G01X20161Y16545D01*
G01X20185Y16548D01*
G01X20208Y16554D01*
G01X20230Y16561D01*
G01X20252Y16571D01*
G01X20273Y16582D01*
G01X20292Y16596D01*
G01X20310Y16611D01*
G01X20327Y16628D01*
G01X20342Y16646D01*
G01X20356Y16665D01*
G01X20367Y16686D01*
G01X20377Y16708D01*
G01X20384Y16730D01*
G01X20390Y16753D01*
G01X20393Y16777D01*
G01X20394Y16801D01*
G01X20394Y17100D01*
G37*
G36*
G01X13108Y18507D02*
G01X12881Y18507D01*
G01X12858Y18506D01*
G01X12834Y18503D01*
G01X12811Y18497D01*
G01X12789Y18490D01*
G01X12767Y18480D01*
G01X12746Y18469D01*
G01X12727Y18455D01*
G01X12709Y18440D01*
G01X12692Y18423D01*
G01X12677Y18405D01*
G01X12663Y18386D01*
G01X12652Y18365D01*
G01X12642Y18343D01*
G01X12635Y18321D01*
G01X12629Y18298D01*
G01X12626Y18274D01*
G01X12625Y18250D01*
G01X12625Y17951D01*
G01X13108Y17951D01*
G01X13108Y18507D01*
G37*
G36*
G01X14042Y18507D02*
G01X13815Y18507D01*
G01X13815Y17951D01*
G01X14298Y17951D01*
G01X14298Y18250D01*
G01X14297Y18274D01*
G01X14294Y18298D01*
G01X14288Y18321D01*
G01X14281Y18343D01*
G01X14271Y18365D01*
G01X14260Y18386D01*
G01X14246Y18405D01*
G01X14231Y18423D01*
G01X14214Y18440D01*
G01X14196Y18455D01*
G01X14177Y18469D01*
G01X14156Y18480D01*
G01X14134Y18490D01*
G01X14112Y18497D01*
G01X14089Y18503D01*
G01X14065Y18506D01*
G01X14042Y18507D01*
G37*
G36*
G01X18998Y5049D02*
G01X18686Y5049D01*
G01X18686Y4606D01*
G01X19255Y4606D01*
G01X19255Y4792D01*
G01X19254Y4816D01*
G01X19250Y4840D01*
G01X19245Y4863D01*
G01X19237Y4885D01*
G01X19228Y4907D01*
G01X19216Y4928D01*
G01X19203Y4947D01*
G01X19188Y4965D01*
G01X19171Y4982D01*
G01X19153Y4997D01*
G01X19133Y5011D01*
G01X19112Y5022D01*
G01X19091Y5032D01*
G01X19068Y5039D01*
G01X19045Y5045D01*
G01X19022Y5048D01*
G01X18998Y5049D01*
G37*
G36*
G01X19255Y3980D02*
G01X18686Y3980D01*
G01X18686Y3538D01*
G01X18998Y3538D01*
G01X19022Y3539D01*
G01X19045Y3542D01*
G01X19068Y3548D01*
G01X19091Y3555D01*
G01X19112Y3565D01*
G01X19133Y3576D01*
G01X19153Y3590D01*
G01X19171Y3605D01*
G01X19188Y3621D01*
G01X19203Y3640D01*
G01X19216Y3659D01*
G01X19228Y3680D01*
G01X19237Y3702D01*
G01X19245Y3724D01*
G01X19250Y3747D01*
G01X19254Y3771D01*
G01X19255Y3794D01*
G01X19255Y3980D01*
G37*
G36*
G01X17809Y5049D02*
G01X17497Y5049D01*
G01X17473Y5048D01*
G01X17450Y5045D01*
G01X17427Y5039D01*
G01X17404Y5032D01*
G01X17383Y5022D01*
G01X17362Y5011D01*
G01X17342Y4997D01*
G01X17324Y4982D01*
G01X17307Y4965D01*
G01X17292Y4947D01*
G01X17279Y4928D01*
G01X17267Y4907D01*
G01X17258Y4885D01*
G01X17250Y4863D01*
G01X17245Y4840D01*
G01X17241Y4816D01*
G01X17240Y4792D01*
G01X17240Y4606D01*
G01X17809Y4606D01*
G01X17809Y5049D01*
G37*
G36*
G01X17809Y3980D02*
G01X17240Y3980D01*
G01X17240Y3794D01*
G01X17241Y3771D01*
G01X17245Y3747D01*
G01X17250Y3724D01*
G01X17258Y3702D01*
G01X17267Y3680D01*
G01X17279Y3659D01*
G01X17292Y3640D01*
G01X17307Y3621D01*
G01X17324Y3605D01*
G01X17342Y3590D01*
G01X17362Y3576D01*
G01X17383Y3565D01*
G01X17404Y3555D01*
G01X17427Y3548D01*
G01X17450Y3542D01*
G01X17473Y3539D01*
G01X17497Y3538D01*
G01X17809Y3538D01*
G01X17809Y3980D01*
G37*
G36*
G01X13286Y20916D02*
G01X12890Y20916D01*
G01X12890Y20419D01*
G01X13030Y20419D01*
G01X13053Y20420D01*
G01X13077Y20423D01*
G01X13100Y20428D01*
G01X13122Y20436D01*
G01X13144Y20445D01*
G01X13165Y20457D01*
G01X13184Y20470D01*
G01X13203Y20486D01*
G01X13219Y20502D01*
G01X13234Y20521D01*
G01X13248Y20540D01*
G01X13259Y20561D01*
G01X13269Y20582D01*
G01X13276Y20605D01*
G01X13282Y20628D01*
G01X13285Y20651D01*
G01X13286Y20675D01*
G01X13286Y20916D01*
G37*
G36*
G01X20652Y20916D02*
G01X20256Y20916D01*
G01X20256Y20419D01*
G01X20396Y20419D01*
G01X20419Y20420D01*
G01X20443Y20423D01*
G01X20466Y20428D01*
G01X20488Y20436D01*
G01X20510Y20445D01*
G01X20531Y20457D01*
G01X20550Y20470D01*
G01X20569Y20486D01*
G01X20585Y20502D01*
G01X20600Y20521D01*
G01X20614Y20540D01*
G01X20625Y20561D01*
G01X20635Y20582D01*
G01X20642Y20605D01*
G01X20648Y20628D01*
G01X20651Y20651D01*
G01X20652Y20675D01*
G01X20652Y20916D01*
G37*
G36*
G01X16842Y20916D02*
G01X16446Y20916D01*
G01X16446Y20419D01*
G01X16586Y20419D01*
G01X16609Y20420D01*
G01X16633Y20423D01*
G01X16656Y20428D01*
G01X16678Y20436D01*
G01X16700Y20445D01*
G01X16721Y20457D01*
G01X16740Y20470D01*
G01X16759Y20486D01*
G01X16775Y20502D01*
G01X16790Y20521D01*
G01X16804Y20540D01*
G01X16815Y20561D01*
G01X16825Y20582D01*
G01X16832Y20605D01*
G01X16838Y20628D01*
G01X16841Y20651D01*
G01X16842Y20675D01*
G01X16842Y20916D01*
G37*
G36*
G01X16586Y22151D02*
G01X16446Y22151D01*
G01X16446Y21653D01*
G01X16842Y21653D01*
G01X16842Y21894D01*
G01X16841Y21918D01*
G01X16838Y21941D01*
G01X16832Y21965D01*
G01X16825Y21987D01*
G01X16815Y22009D01*
G01X16804Y22029D01*
G01X16790Y22049D01*
G01X16775Y22067D01*
G01X16759Y22084D01*
G01X16740Y22099D01*
G01X16721Y22112D01*
G01X16700Y22124D01*
G01X16678Y22134D01*
G01X16656Y22141D01*
G01X16633Y22146D01*
G01X16609Y22150D01*
G01X16586Y22151D01*
G37*
G36*
G01X12357Y20916D02*
G01X11960Y20916D01*
G01X11960Y20675D01*
G01X11961Y20651D01*
G01X11965Y20628D01*
G01X11970Y20605D01*
G01X11978Y20582D01*
G01X11987Y20561D01*
G01X11999Y20540D01*
G01X12012Y20521D01*
G01X12027Y20502D01*
G01X12044Y20486D01*
G01X12062Y20470D01*
G01X12082Y20457D01*
G01X12103Y20445D01*
G01X12124Y20436D01*
G01X12147Y20428D01*
G01X12170Y20423D01*
G01X12193Y20420D01*
G01X12217Y20419D01*
G01X12357Y20419D01*
G01X12357Y20916D01*
G37*
G36*
G01X15913Y20916D02*
G01X15516Y20916D01*
G01X15516Y20675D01*
G01X15517Y20651D01*
G01X15521Y20628D01*
G01X15526Y20605D01*
G01X15534Y20582D01*
G01X15543Y20561D01*
G01X15555Y20540D01*
G01X15568Y20521D01*
G01X15583Y20502D01*
G01X15600Y20486D01*
G01X15618Y20470D01*
G01X15638Y20457D01*
G01X15659Y20445D01*
G01X15680Y20436D01*
G01X15703Y20428D01*
G01X15726Y20423D01*
G01X15749Y20420D01*
G01X15773Y20419D01*
G01X15913Y20419D01*
G01X15913Y20916D01*
G37*
G36*
G01X19723Y20916D02*
G01X19326Y20916D01*
G01X19326Y20675D01*
G01X19327Y20651D01*
G01X19331Y20628D01*
G01X19336Y20605D01*
G01X19344Y20582D01*
G01X19353Y20561D01*
G01X19365Y20540D01*
G01X19378Y20521D01*
G01X19393Y20502D01*
G01X19410Y20486D01*
G01X19428Y20470D01*
G01X19448Y20457D01*
G01X19469Y20445D01*
G01X19490Y20436D01*
G01X19513Y20428D01*
G01X19536Y20423D01*
G01X19559Y20420D01*
G01X19583Y20419D01*
G01X19723Y20419D01*
G01X19723Y20916D01*
G37*
G36*
G01X15913Y22151D02*
G01X15773Y22151D01*
G01X15749Y22150D01*
G01X15726Y22146D01*
G01X15703Y22141D01*
G01X15680Y22134D01*
G01X15659Y22124D01*
G01X15638Y22112D01*
G01X15618Y22099D01*
G01X15600Y22084D01*
G01X15583Y22067D01*
G01X15568Y22049D01*
G01X15555Y22029D01*
G01X15543Y22009D01*
G01X15534Y21987D01*
G01X15526Y21965D01*
G01X15521Y21941D01*
G01X15517Y21918D01*
G01X15516Y21894D01*
G01X15516Y21653D01*
G01X15913Y21653D01*
G01X15913Y22151D01*
G37*

%LPD*%
G54D12*
G01X5588Y21493D02*
G01X6510Y20571D01*
G01X12623Y20571D01*
G01X20794Y19146D02*
G01X19639Y19146D01*
G01X19558Y19065D01*
G01X12623Y20571D02*
G01X12623Y19860D01*
G01X12623Y21285D02*
G01X12623Y20571D01*
G01X16182Y19857D02*
G01X16179Y19860D01*
G01X19558Y19857D02*
G01X16182Y19857D01*
G01X16182Y19857D02*
G01X16182Y19753D01*
G01X15494Y19065D01*
G01X15494Y18295D02*
G01X14757Y18295D01*
G01X13192Y19860D01*
G01X12623Y19860D01*
G01X15494Y18295D02*
G01X15494Y19065D01*
G01X15494Y17526D02*
G01X15494Y18295D01*
G01X13462Y17526D02*
G01X15494Y17526D01*
G01X19837Y4292D02*
G01X22606Y1524D01*
G01X18247Y4292D02*
G01X19837Y4292D01*
G01X19837Y4292D02*
G01X19837Y7007D01*
G01X24257Y11430D01*
G01X19989Y19860D02*
G01X19989Y19857D01*
G01X19558Y19857D01*
G01X19558Y19857D02*
G01X19558Y19065D01*
G01X19558Y17526D02*
G01X19558Y19065D01*
G01X16179Y21285D02*
G01X16179Y19860D01*
G01X19989Y21285D02*
G01X19989Y19860D01*
G54D11*
G01X16995Y1292D02*
G01X16995Y2547D01*
G01X11808Y7734D01*
G01X6718Y7734D01*
G01X2875Y11577D01*
G01X18247Y1292D02*
G01X16995Y1292D01*
G01X21336Y10982D02*
G01X19618Y9265D01*
G01X7165Y9265D01*
G01X2461Y13970D01*
G01X1397Y13970D01*
G01X21336Y12065D02*
G01X21336Y10982D01*
G01X17653Y10982D02*
G01X16781Y10111D01*
G01X7500Y10111D01*
G01X1397Y16215D01*
G01X1397Y16510D01*
G01X17653Y12065D02*
G01X17653Y10982D01*
G01X13716Y12065D02*
G01X7482Y18295D01*
G01X2151Y18295D01*
G01X1397Y19050D01*
G01X1397Y24130D02*
G01X6101Y19425D01*
G01X7520Y19425D01*
G01X16309Y14442D02*
G01X16309Y12410D01*
G01X14798Y10899D01*
G01X8933Y10899D01*
G01X6527Y13304D01*
G01X11996Y4292D02*
G01X9309Y6979D01*
G01X4165Y6979D01*
G01X13248Y4292D02*
G01X11996Y4292D01*
G01X11303Y31623D02*
G01X11303Y30304D01*
G01X4165Y23164D01*
G01X14500Y1292D02*
G01X14500Y1534D01*
G01X14973Y2006D01*
G01X13248Y1292D02*
G01X14500Y1292D01*
G01X5148Y13606D02*
G01X5148Y14074D01*
G01X7607Y16532D01*
G01X1346Y4904D02*
G01X1346Y5610D01*
G01X3571Y7838D01*
G01X4569Y7838D01*
G01X11430Y17526D02*
G01X11430Y18752D01*
G01X14554Y22397D02*
G01X10152Y22397D01*
G01X14554Y21285D02*
G01X14554Y22397D01*
G01X11430Y18752D02*
G01X10741Y18752D01*
G01X10152Y19344D01*
G01X11430Y16911D02*
G01X11430Y17526D01*
G01X11430Y16911D02*
G01X11430Y16299D01*
G01X13716Y14097D02*
G01X13716Y15179D01*
G01X13716Y15179D02*
G01X12595Y16299D01*
G01X11430Y16299D01*
G01X17526Y17526D02*
G01X17526Y16299D01*
G01X18110Y22397D02*
G01X19662Y22397D01*
G01X19728Y22463D01*
G01X17653Y15671D02*
G01X17653Y16172D01*
G01X17526Y16299D01*
G01X17653Y14991D02*
G01X17653Y15671D01*
G01X19728Y15671D02*
G01X17653Y15671D01*
G01X18110Y21285D02*
G01X18110Y22397D01*
G01X17653Y14097D02*
G01X17653Y14991D01*
G01X21920Y20172D02*
G01X21920Y17856D01*
G01X21590Y17526D01*
G01X21590Y17526D02*
G01X21590Y16299D01*
G01X21590Y16299D02*
G01X21336Y16045D01*
G01X21336Y14097D01*
G01X21920Y21285D02*
G01X21920Y20172D01*
G54D13*
G01X17018Y31623D02*
G01X13589Y28194D01*
G01X13589Y23926D01*
G01X20955Y23926D02*
G01X20955Y29845D01*
G01X22733Y31623D01*
G01X17145Y23926D02*
G01X17145Y28575D01*
G01X20193Y31623D01*
G54D19*
G01X17526Y17526D03*
G01X15494Y17526D03*
G36*
G01X16928Y14677D02*
G01X16928Y13516D01*
G01X18377Y13516D01*
G01X18377Y14677D01*
G01X16928Y14677D01*
G37*
G36*
G01X16928Y12645D02*
G01X16928Y11484D01*
G01X18377Y11484D01*
G01X18377Y12645D01*
G01X16928Y12645D01*
G37*
G36*
G01X20611Y14677D02*
G01X20611Y13516D01*
G01X22060Y13516D01*
G01X22060Y14677D01*
G01X20611Y14677D01*
G37*
G36*
G01X20611Y12645D02*
G01X20611Y11484D01*
G01X22060Y11484D01*
G01X22060Y12645D01*
G01X20611Y12645D01*
G37*
G01X21590Y17526D03*
G01X19558Y17526D03*
G36*
G01X10849Y16801D02*
G01X12010Y16801D01*
G01X12010Y18250D01*
G01X10849Y18250D01*
G01X10849Y16801D01*
G37*
G36*
G01X12881Y16801D02*
G01X14042Y16801D01*
G01X14042Y18250D01*
G01X12881Y18250D01*
G01X12881Y16801D01*
G37*
G36*
G01X12991Y14677D02*
G01X12991Y13516D01*
G01X14440Y13516D01*
G01X14440Y14677D01*
G01X12991Y14677D01*
G37*
G36*
G01X12991Y12645D02*
G01X12991Y11484D01*
G01X14440Y11484D01*
G01X14440Y12645D01*
G01X12991Y12645D01*
G37*
G54D25*
G01X14554Y21285D03*
G01X12623Y21285D03*
G01X13589Y23926D03*
G01X18110Y21285D03*
G01X16179Y21285D03*
G01X17145Y23926D03*
G01X21920Y21285D03*
G01X19989Y21285D03*
G01X20955Y23926D03*
G36*
G01X12498Y795D02*
G01X13997Y795D01*
G01X13997Y1793D01*
G01X12498Y1793D01*
G01X12498Y795D01*
G37*
G36*
G01X12498Y3794D02*
G01X13997Y3794D01*
G01X13997Y4792D01*
G01X12498Y4792D01*
G01X12498Y3794D01*
G37*
G36*
G01X17497Y3794D02*
G01X18998Y3794D01*
G01X18998Y4792D01*
G01X17497Y4792D01*
G01X17497Y3794D01*
G37*
G36*
G01X17497Y795D02*
G01X18998Y795D01*
G01X18998Y1793D01*
G01X17497Y1793D01*
G01X17497Y795D01*
G37*
G54D23*
G01X17018Y31623D03*
G01X14478Y31623D03*
G01X22606Y1524D03*
G01X22606Y4064D03*
G01X5588Y31623D03*
G01X3048Y31623D03*
G01X22733Y31623D03*
G01X20193Y31623D03*
G01X11303Y31623D03*
G01X8763Y31623D03*
G54D24*
G01X1397Y26670D03*
G01X24257Y8890D03*
G01X24257Y11430D03*
G01X24257Y13970D03*
G01X24257Y16510D03*
G01X24257Y19050D03*
G01X24257Y21590D03*
G01X24257Y24130D03*
G54D23*
G01X24257Y26670D03*
G54D24*
G01X1397Y8890D03*
G01X1397Y11430D03*
G01X1397Y13970D03*
G01X1397Y16510D03*
G01X1397Y19050D03*
G01X1397Y21590D03*
G01X1397Y24130D03*
G54D15*
G01X20794Y19146D03*
G01X5588Y21493D03*
G01X2875Y11577D03*
G01X7520Y19425D03*
G01X6527Y13304D03*
G01X16309Y14442D03*
G01X4165Y23164D03*
G01X4165Y6979D03*
G01X14973Y2006D03*
G01X7607Y16532D03*
G01X5148Y13606D03*
G01X4569Y7838D03*
G01X1346Y4904D03*
G01X10152Y22397D03*
G01X10152Y19344D03*
G01X19728Y15671D03*
G01X19728Y22463D03*
M00*
M02*
