G04 Layer: TopSolderMaskLayer*
G04 EasyEDA v6.1.52, Mon, 29 Jul 2019 07:14:48 GMT*
G04 763c4d154c644d5a9bd2c91acdf97d9b,a2ddd735335a41bd89ccdca2c933086a,10*
G04 Gerber Generator version 0.2*
G04 Scale: 100 percent, Rotated: No, Reflected: No *
G04 Dimensions in millimeters *
G04 leading zeros omitted , absolute positions ,3 integer and 3 decimal *
%FSLAX33Y33*%
%MOMM*%
G90*
G71D02*

%ADD31C,0.803199*%
%ADD32C,2.032203*%
%ADD35R,1.363218X1.673098*%
%ADD36R,1.363218X1.653210*%
%ADD40C,2.032000*%

%LPD*%
G54D31*
G01X13801Y11811D02*
G01X15001Y11811D01*
G01X13801Y13081D02*
G01X15001Y13081D01*
G01X13801Y14351D02*
G01X15001Y14351D01*
G01X13801Y15621D02*
G01X15001Y15621D01*
G01X7858Y11811D02*
G01X9058Y11811D01*
G01X7858Y13081D02*
G01X9058Y13081D01*
G01X7858Y14351D02*
G01X9058Y14351D01*
G01X7858Y15621D02*
G01X9058Y15621D01*
G54D32*
G01X17018Y31623D03*
G01X14478Y31623D03*
G01X22606Y1524D03*
G01X22606Y4064D03*
G01X5588Y31623D03*
G01X3048Y31623D03*
G01X22733Y31623D03*
G01X20193Y31623D03*
G01X11303Y31623D03*
G01X8763Y31623D03*
G36*
G01X9829Y11615D02*
G01X9829Y15816D01*
G01X13032Y15816D01*
G01X13032Y11615D01*
G01X9829Y11615D01*
G37*
G36*
G01X5133Y16718D02*
G01X5133Y18079D01*
G01X6804Y18079D01*
G01X6804Y16718D01*
G01X5133Y16718D01*
G37*
G36*
G01X5133Y14686D02*
G01X5133Y16047D01*
G01X6804Y16047D01*
G01X6804Y14686D01*
G01X5133Y14686D01*
G37*
G54D35*
G01X7874Y8381D03*
G01X9906Y8381D03*
G54D36*
G01X17526Y11938D03*
G01X19558Y11938D03*
G36*
G01X815Y970D02*
G01X815Y2331D01*
G01X2486Y2331D01*
G01X2486Y970D01*
G01X815Y970D01*
G37*
G36*
G01X815Y3002D02*
G01X815Y4363D01*
G01X2486Y4363D01*
G01X2486Y3002D01*
G01X815Y3002D01*
G37*
G36*
G01X14287Y7193D02*
G01X14287Y8554D01*
G01X15938Y8554D01*
G01X15938Y7193D01*
G01X14287Y7193D01*
G37*
G36*
G01X14287Y9225D02*
G01X14287Y10586D01*
G01X15938Y10586D01*
G01X15938Y9225D01*
G01X14287Y9225D01*
G37*
G01X17526Y14351D03*
G01X19558Y14351D03*
G36*
G01X18877Y8689D02*
G01X18877Y10360D01*
G01X20238Y10360D01*
G01X20238Y8689D01*
G01X18877Y8689D01*
G37*
G36*
G01X16845Y8689D02*
G01X16845Y10360D01*
G01X18206Y10360D01*
G01X18206Y8689D01*
G01X16845Y8689D01*
G37*
G36*
G01X15684Y16464D02*
G01X15684Y17825D01*
G01X17335Y17825D01*
G01X17335Y16464D01*
G01X15684Y16464D01*
G37*
G36*
G01X15684Y18496D02*
G01X15684Y19857D01*
G01X17335Y19857D01*
G01X17335Y18496D01*
G01X15684Y18496D01*
G37*
G01X5588Y27432D03*
G01X7620Y27432D03*
G36*
G01X6939Y23939D02*
G01X6939Y25590D01*
G01X8300Y25590D01*
G01X8300Y23939D01*
G01X6939Y23939D01*
G37*
G36*
G01X4907Y23939D02*
G01X4907Y25590D01*
G01X6268Y25590D01*
G01X6268Y23939D01*
G01X4907Y23939D01*
G37*
G01X14478Y29083D03*
G01X16510Y29083D03*
G36*
G01X9471Y1831D02*
G01X9471Y5534D01*
G01X12024Y5534D01*
G01X12024Y1831D01*
G01X9471Y1831D01*
G37*
G36*
G01X3469Y1831D02*
G01X3469Y5534D01*
G01X6024Y5534D01*
G01X6024Y1831D01*
G01X3469Y1831D01*
G37*
G36*
G01X12001Y9202D02*
G01X12001Y10563D01*
G01X13652Y10563D01*
G01X13652Y9202D01*
G01X12001Y9202D01*
G37*
G36*
G01X12001Y7170D02*
G01X12001Y8531D01*
G01X13652Y8531D01*
G01X13652Y7170D01*
G01X12001Y7170D01*
G37*
G36*
G01X16814Y358D02*
G01X16814Y1470D01*
G01X18237Y1470D01*
G01X18237Y358D01*
G01X16814Y358D01*
G37*
G36*
G01X16814Y3609D02*
G01X16814Y4721D01*
G01X18237Y4721D01*
G01X18237Y3609D01*
G01X16814Y3609D01*
G37*
G36*
G01X14274Y358D02*
G01X14274Y1470D01*
G01X15697Y1470D01*
G01X15697Y358D01*
G01X14274Y358D01*
G37*
G36*
G01X14274Y3609D02*
G01X14274Y4721D01*
G01X15697Y4721D01*
G01X15697Y3609D01*
G01X14274Y3609D01*
G37*
G54D40*
G01X1397Y26670D03*
G01X24257Y8890D03*
G01X24257Y11430D03*
G01X24257Y13970D03*
G01X24257Y16510D03*
G01X24257Y19050D03*
G01X24257Y21590D03*
G01X24257Y24130D03*
G54D32*
G01X24257Y26670D03*
G54D40*
G01X1397Y8890D03*
G01X1397Y11430D03*
G01X1397Y13970D03*
G01X1397Y16510D03*
G01X1397Y19050D03*
G01X1397Y21590D03*
G01X1397Y24130D03*
M00*
M02*
